#
#
#

mtllib bantal.mtl


#
#  Mesh
#
g  Mesh


#
#  Mesh_None
#
usemtl  Mesh_None

v 1.021497 0.687672 -0.315922
v 1.021497 0.773584 -0.285011
v 1.021497 0.857504 -0.194956
v -0.946617 -0.797027 0.141953
v -0.946617 0.857504 -0.194957
v -0.946617 -0.024503 -0.295334
v -0.946617 0.830929 -0.244166
v 1.021497 0.830929 -0.244166
v 1.021497 -0.797027 0.141954
v 1.021497 -0.336917 -0.210405
v -0.946617 -0.184843 -0.257304
v 1.021497 -0.184843 -0.257304
v -0.946617 0.773584 -0.285011
v 1.021497 -0.474882 -0.156438
v -0.946617 -0.336917 -0.210405
v 1.021497 0.576495 -0.335710
v -0.946617 0.687672 -0.315922
v 1.021497 -0.593434 -0.097479
v -0.946617 -0.474882 -0.156439
v 1.021497 0.444327 -0.343616
v -0.946617 0.576495 -0.335710
v 1.021497 -0.688020 -0.035791
v -0.946617 -0.593434 -0.097479
v 1.021497 0.296245 -0.339335
v -0.946617 0.444327 -0.343616
v 1.021497 -0.755004 0.026253
v -0.946617 -0.688020 -0.035792
v 1.021497 0.137940 -0.323032
v -0.946617 0.296245 -0.339335
v 1.021497 -0.791810 0.086270
v -0.946617 -0.755004 0.026253
v 1.021497 -0.024503 -0.295333
v -0.946617 0.137940 -0.323032
v -0.946617 -0.791810 0.086270
v -0.951879 0.747689 -0.021182
v -0.951879 0.814673 -0.083226
v -0.951879 0.856696 -0.198927
v 1.016235 -0.797835 0.137984
v 1.016235 0.856696 -0.198926
v 1.016235 0.084172 0.238361
v 1.016235 0.851480 -0.143243
v -0.951879 0.851480 -0.143243
v -0.951879 -0.797835 0.137983
v -0.951879 -0.236575 0.282362
v 1.016235 -0.078271 0.266059
v -0.951879 -0.078271 0.266059
v 1.016235 0.814673 -0.083226
v -0.951879 -0.384657 0.286642
v 1.016235 -0.236575 0.282362
v -0.951879 0.653104 0.040506
v 1.016235 0.747689 -0.021182
v -0.951879 -0.516826 0.278737
v 1.016235 -0.384657 0.286643
v -0.951879 0.534551 0.099465
v 1.016235 0.653104 0.040506
v 1.016235 -0.628002 0.258949
v 1.016235 -0.516826 0.278737
v 1.016235 0.396586 0.153432
v 1.016235 0.534551 0.099466
v -0.951879 -0.713914 0.228038
v -0.951879 -0.628002 0.258949
v -0.951879 0.244512 0.200331
v -0.951879 0.396586 0.153432
v -0.951879 -0.771260 0.187193
v 1.016235 -0.713914 0.228038
v -0.951879 0.084172 0.238360
v 1.016235 0.244512 0.200331
v 1.016235 -0.771260 0.187193
vn 1.000000 0.000000 0.000000
vn -1.000000 0.000000 0.000000
vn 0.000000 0.580121 -0.814530
vn 0.000000 0.199500 0.979898
vn 0.000000 -0.294697 -0.955591
vn 0.000000 0.338610 -0.940927
vn 0.000000 -0.364294 -0.931284
vn 0.000000 0.175206 -0.984532
vn 0.000000 -0.445293 -0.895385
vn 0.000000 0.059701 -0.998216
vn 0.000000 -0.546295 -0.837593
vn 0.000000 -0.028899 -0.999582
vn 0.000000 -0.679538 -0.733641
vn 0.000000 -0.102404 -0.994743
vn 0.000000 -0.852468 -0.522780
vn 0.000000 -0.168095 -0.985771
vn 0.000000 0.879883 -0.475191
vn 0.000000 -0.995638 -0.093304
vn 0.000000 -0.230800 -0.973001
vn 0.000000 0.852468 0.522780
vn 0.000000 -0.199500 -0.979898
vn 0.000000 0.102404 0.994743
vn 0.000000 0.679538 0.733641
vn 0.000000 0.028899 0.999582
vn 0.000000 0.546295 0.837593
vn 0.000000 -0.059701 0.998216
vn 0.000000 0.445293 0.895385
vn 0.000000 -0.175206 0.984532
vn 0.000000 0.364294 0.931284
vn 0.000000 -0.338521 0.940959
vn 0.000000 0.294697 0.955591
vn 0.000000 -0.580121 0.814530
vn 0.000000 0.230800 0.973001
vn 0.000000 0.995638 0.093304
vn 0.000000 -0.879883 0.475191
vn 0.000000 0.168095 0.985771
vn 0.000000 0.338521 -0.940959
vt 0.000000 0.000000
f 1/1/1 2/1/1 3/1/1
f 4/1/2 5/1/2 6/1/2
f 2/1/3 7/1/3 8/1/3
f 3/1/4 4/1/4 9/1/4
f 10/1/5 11/1/5 12/1/5
f 1/1/6 13/1/6 2/1/6
f 14/1/7 15/1/7 10/1/7
f 16/1/8 17/1/8 1/1/8
f 18/1/9 19/1/9 14/1/9
f 20/1/10 21/1/10 16/1/10
f 22/1/11 23/1/11 18/1/11
f 24/1/12 25/1/12 20/1/12
f 26/1/13 27/1/13 22/1/13
f 28/1/14 29/1/14 24/1/14
f 30/1/15 31/1/15 26/1/15
f 32/1/16 33/1/16 28/1/16
f 8/1/17 5/1/17 3/1/17
f 9/1/18 34/1/18 30/1/18
f 12/1/19 6/1/19 32/1/19
f 35/1/2 36/1/2 37/1/2
f 38/1/1 39/1/1 40/1/1
f 36/1/20 41/1/20 42/1/20
f 37/1/21 38/1/21 43/1/21
f 44/1/22 45/1/22 46/1/22
f 35/1/23 47/1/23 36/1/23
f 48/1/24 49/1/24 44/1/24
f 50/1/25 51/1/25 35/1/25
f 52/1/26 53/1/26 48/1/26
f 54/1/27 55/1/27 50/1/27
f 52/1/28 56/1/28 57/1/28
f 54/1/29 58/1/29 59/1/29
f 60/1/30 56/1/30 61/1/30
f 62/1/31 58/1/31 63/1/31
f 64/1/32 65/1/32 60/1/32
f 66/1/33 67/1/33 62/1/33
f 42/1/34 39/1/34 37/1/34
f 43/1/35 68/1/35 64/1/35
f 46/1/36 40/1/36 66/1/36
f 2/1/1 8/1/1 3/1/1
f 3/1/1 9/1/1 32/1/1
f 9/1/1 30/1/1 26/1/1
f 12/1/1 9/1/1 10/1/1
f 26/1/1 22/1/1 9/1/1
f 22/1/1 18/1/1 9/1/1
f 18/1/1 14/1/1 9/1/1
f 14/1/1 10/1/1 9/1/1
f 12/1/1 32/1/1 9/1/1
f 32/1/1 28/1/1 3/1/1
f 28/1/1 24/1/1 3/1/1
f 24/1/1 20/1/1 3/1/1
f 20/1/1 16/1/1 3/1/1
f 16/1/1 1/1/1 3/1/1
f 5/1/2 7/1/2 13/1/2
f 13/1/2 17/1/2 5/1/2
f 17/1/2 21/1/2 5/1/2
f 21/1/2 25/1/2 5/1/2
f 25/1/2 29/1/2 5/1/2
f 29/1/2 33/1/2 5/1/2
f 33/1/2 6/1/2 5/1/2
f 6/1/2 11/1/2 4/1/2
f 11/1/2 15/1/2 4/1/2
f 15/1/2 19/1/2 4/1/2
f 19/1/2 23/1/2 4/1/2
f 23/1/2 27/1/2 4/1/2
f 27/1/2 31/1/2 4/1/2
f 31/1/2 34/1/2 4/1/2
f 2/1/3 13/1/3 7/1/3
f 3/1/4 5/1/4 4/1/4
f 10/1/5 15/1/5 11/1/5
f 1/1/37 17/1/37 13/1/37
f 14/1/7 19/1/7 15/1/7
f 16/1/8 21/1/8 17/1/8
f 18/1/9 23/1/9 19/1/9
f 20/1/10 25/1/10 21/1/10
f 22/1/11 27/1/11 23/1/11
f 24/1/12 29/1/12 25/1/12
f 26/1/13 31/1/13 27/1/13
f 28/1/14 33/1/14 29/1/14
f 30/1/15 34/1/15 31/1/15
f 32/1/16 6/1/16 33/1/16
f 8/1/17 7/1/17 5/1/17
f 9/1/18 4/1/18 34/1/18
f 12/1/19 11/1/19 6/1/19
f 36/1/2 42/1/2 37/1/2
f 37/1/2 43/1/2 66/1/2
f 43/1/2 64/1/2 60/1/2
f 46/1/2 43/1/2 44/1/2
f 60/1/2 61/1/2 43/1/2
f 61/1/2 52/1/2 43/1/2
f 52/1/2 48/1/2 43/1/2
f 48/1/2 44/1/2 43/1/2
f 46/1/2 66/1/2 43/1/2
f 66/1/2 62/1/2 37/1/2
f 62/1/2 63/1/2 37/1/2
f 63/1/2 54/1/2 37/1/2
f 54/1/2 50/1/2 37/1/2
f 50/1/2 35/1/2 37/1/2
f 39/1/1 41/1/1 47/1/1
f 47/1/1 51/1/1 39/1/1
f 51/1/1 55/1/1 39/1/1
f 55/1/1 59/1/1 39/1/1
f 59/1/1 58/1/1 39/1/1
f 58/1/1 67/1/1 39/1/1
f 67/1/1 40/1/1 39/1/1
f 40/1/1 45/1/1 38/1/1
f 45/1/1 49/1/1 38/1/1
f 49/1/1 53/1/1 38/1/1
f 53/1/1 57/1/1 38/1/1
f 57/1/1 56/1/1 38/1/1
f 56/1/1 65/1/1 38/1/1
f 65/1/1 68/1/1 38/1/1
f 36/1/20 47/1/20 41/1/20
f 37/1/21 39/1/21 38/1/21
f 44/1/22 49/1/22 45/1/22
f 35/1/23 51/1/23 47/1/23
f 48/1/24 53/1/24 49/1/24
f 50/1/25 55/1/25 51/1/25
f 52/1/26 57/1/26 53/1/26
f 54/1/27 59/1/27 55/1/27
f 52/1/28 61/1/28 56/1/28
f 54/1/29 63/1/29 58/1/29
f 60/1/30 65/1/30 56/1/30
f 62/1/31 67/1/31 58/1/31
f 64/1/32 68/1/32 65/1/32
f 66/1/33 40/1/33 67/1/33
f 42/1/34 41/1/34 39/1/34
f 43/1/35 38/1/35 68/1/35
f 46/1/36 45/1/36 40/1/36
