# Blender v2.92.0 OBJ File: ''
# www.blender.org
mtllib jalankechumbucket.mtl
o SketchUp_ID722
v -20.762728 3.548141 -3.053791
v -20.741539 3.549531 -3.053791
v -20.720711 3.553674 -3.053791
v -20.700602 3.560498 -3.053791
v -20.681557 3.569891 -3.053791
v -20.663898 3.581689 -3.053791
v -20.647934 3.595690 -3.053791
v -20.633930 3.611656 -3.053791
v -20.622135 3.629313 -3.053791
v -20.612743 3.648357 -3.053791
v -20.605919 3.668467 -3.053790
v -20.601776 3.689295 -3.053790
v -20.600386 3.710484 -3.053790
v -20.600386 3.839113 -3.053790
v -21.030071 3.548141 -3.053791
l 1 2
l 2 3
l 3 4
l 4 5
l 5 6
l 6 7
l 7 8
l 8 9
l 9 10
l 10 11
l 11 12
l 12 13
l 13 14
l 15 1
o SketchUp.001_ID726
v -20.811140 1.572163 0.336902
v -20.811478 1.572528 0.336871
v -20.810650 1.572062 0.336867
l 16 17
l 18 16
l 17 18
o instance_57.001_ID505
v -9.117983 1.465581 -9.499633
v -9.117178 1.467020 -9.499750
v -9.118128 1.465448 -9.499613
v -9.114336 1.466866 -9.500160
v -9.114336 1.466866 -9.500160
v -9.117983 1.465581 -9.499633
v -9.117178 1.467020 -9.499750
v -9.118128 1.465448 -9.499613
v -9.117178 1.467020 -9.499750
v -9.114336 1.466866 -9.500160
v -9.118128 1.465448 -9.499613
v -9.117983 1.465581 -9.499633
vt 0.625000 0.000000
vt 0.625000 0.000000
vt 0.625000 0.000000
vt 0.625000 0.000000
vt 0.625000 0.000000
vt 0.625000 0.000000
vt 0.625000 0.000000
vt 0.625000 0.000000
vn 0.1265 0.0090 0.9919
vn 0.1435 0.0007 0.9896
vn -0.1435 -0.0007 -0.9897
vn -0.1265 -0.0090 -0.9919
usemtl (null)
s 1
f 19/1/1 20/2/1 21/3/1
f 20/2/2 19/1/2 22/4/2
f 23/5/3 24/6/3 25/7/3
f 26/8/4 25/7/4 24/6/4
l 30 29
l 27 28
l 29 27
l 28 30
o instance_57.002_ID513
v -9.475016 2.022435 -9.447995
v -9.475351 2.022422 -9.447947
v -9.474276 2.020799 -9.448102
v -9.475521 2.022617 -9.447922
v -9.475618 2.024560 -9.447907
v -9.475662 2.024931 -9.447902
v -9.475662 2.024931 -9.447902
v -9.475016 2.022435 -9.447995
v -9.475618 2.024560 -9.447907
v -9.475521 2.022617 -9.447922
v -9.475351 2.022422 -9.447947
v -9.474276 2.020799 -9.448102
v -9.475351 2.022422 -9.447947
v -9.475521 2.022617 -9.447922
v -9.474276 2.020799 -9.448102
v -9.475016 2.022435 -9.447995
v -9.475662 2.024931 -9.447902
v -9.475618 2.024560 -9.447907
vt 0.625000 0.000000
vt 0.625000 0.000000
vt 0.625000 0.000000
vt 0.625000 0.000000
vt 0.625000 0.000000
vt 0.625000 0.000000
vt 0.625000 0.000000
vt 0.625000 0.000000
vt 0.625000 0.000000
vt 0.625000 0.000000
vt 0.625000 0.000000
vt 0.625000 0.000000
vn 0.1409 -0.0013 0.9900
vn 0.1394 -0.0001 0.9902
vn 0.1418 0.0000 0.9899
vn 0.1414 -0.0015 0.9900
vn 0.1443 0.0025 0.9895
vn 0.1420 0.0027 0.9899
vn -0.1414 -0.0027 -0.9899
vn -0.1410 0.0028 -0.9900
vn -0.1451 -0.0023 -0.9894
vn -0.1412 0.0015 -0.9900
vn -0.1392 -0.0007 -0.9903
vn -0.1413 0.0001 -0.9900
usemtl (null)
s 1
f 31/9/5 32/10/6 33/11/7
f 32/10/6 31/9/5 34/12/8
f 34/12/8 31/9/5 35/13/9
f 35/13/9 31/9/5 36/14/10
f 37/15/11 38/16/12 39/17/13
f 39/17/13 38/16/12 40/18/14
f 40/18/14 38/16/12 41/19/15
f 42/20/16 41/19/15 38/16/12
l 43 44
l 45 43
l 46 45
l 47 46
l 48 47
l 44 48
o instance_57.003_ID521
v -9.077093 1.654267 -9.505548
v -9.076515 1.653360 -9.505630
v -9.076942 1.653713 -9.505569
l 49 50
l 51 49
l 50 51
o instance_60.003_ID575
v -7.123701 1.653712 -8.886775
v -7.123552 1.654266 -8.886796
v -7.124130 1.653359 -8.886713
l 52 53
l 54 52
l 53 54
o instance_61.001_ID593
v -9.671453 1.467020 -10.132455
v -9.670647 1.465581 -10.132571
v -9.670504 1.465449 -10.132591
v -9.674294 1.466866 -10.132044
v -9.674294 1.466866 -10.132044
v -9.671453 1.467020 -10.132455
v -9.670647 1.465581 -10.132571
v -9.670504 1.465449 -10.132591
v -9.671453 1.467020 -10.132455
v -9.674294 1.466866 -10.132044
v -9.670647 1.465581 -10.132571
v -9.670504 1.465449 -10.132591
vt 0.625000 0.000000
vt 0.625000 0.000000
vt 0.625000 0.000000
vt 0.625000 0.000000
vt 0.625000 0.000000
vt 0.625000 0.000000
vt 0.625000 0.000000
vt 0.625000 0.000000
vn 0.1229 -0.0055 0.9924
vn 0.1228 -0.0055 0.9924
vn 0.1435 0.0002 0.9897
vn -0.1437 -0.0002 -0.9896
vn -0.1300 0.0046 -0.9915
usemtl (null)
s 1
f 55/21/17 56/22/18 57/23/18
f 56/22/19 55/21/19 58/24/19
f 59/25/20 60/26/20 61/27/20
f 62/28/21 61/27/21 60/26/21
l 63 64
l 64 65
l 65 66
l 66 63
o instance_61.002_ID601
v -9.313280 2.022423 -10.184258
v -9.313616 2.022436 -10.184209
v -9.314356 2.020800 -10.184102
v -9.313108 2.022618 -10.184282
v -9.313011 2.024561 -10.184297
v -9.312969 2.024932 -10.184302
v -9.312969 2.024932 -10.184302
v -9.313011 2.024561 -10.184297
v -9.313616 2.022436 -10.184209
v -9.313108 2.022618 -10.184282
v -9.313280 2.022423 -10.184258
v -9.314356 2.020800 -10.184102
v -9.313280 2.022423 -10.184258
v -9.313108 2.022618 -10.184282
v -9.313011 2.024561 -10.184297
v -9.312969 2.024932 -10.184302
v -9.313616 2.022436 -10.184209
v -9.314356 2.020800 -10.184102
vt 0.625000 0.000000
vt 0.625000 0.000000
vt 0.625000 0.000000
vt 0.625000 0.000000
vt 0.625000 0.000000
vt 0.625000 0.000000
vt 0.625000 0.000000
vt 0.625000 0.000000
vt 0.625000 0.000000
vt 0.625000 0.000000
vt 0.625000 0.000000
vt 0.625000 0.000000
vn 0.1395 0.0002 0.9902
vn 0.1424 0.0007 0.9898
vn 0.1388 -0.0000 0.9903
vn 0.1432 0.0005 0.9897
vn 0.1456 -0.0026 0.9893
vn 0.1469 -0.0019 0.9892
vn -0.1366 0.0017 -0.9906
vn -0.1422 0.0039 -0.9898
vn -0.1388 -0.0009 -0.9903
vn -0.1424 -0.0002 -0.9898
vn -0.1373 0.0000 -0.9905
vn -0.1359 0.0005 -0.9907
usemtl (null)
s 1
f 67/29/22 68/30/23 69/31/24
f 68/30/23 67/29/22 70/32/25
f 68/30/23 70/32/25 71/33/26
f 68/30/23 71/33/26 72/34/27
f 73/35/28 74/36/29 75/37/30
f 74/36/29 76/38/31 75/37/30
f 76/38/31 77/39/32 75/37/30
f 78/40/33 75/37/30 77/39/32
l 79 80
l 80 81
l 81 82
l 82 83
l 83 84
l 84 79
o instance_61.003_ID609
v -9.711687 1.653713 -10.126636
v -9.711538 1.654267 -10.126657
v -9.712116 1.653360 -10.126574
l 85 86
l 87 85
l 86 87
o instance_62.002_ID513
v -5.655237 2.061035 -9.493665
v -5.655573 2.061023 -9.493616
v -5.654497 2.059399 -9.493772
v -5.655743 2.061218 -9.493591
v -5.655840 2.063160 -9.493577
v -5.655884 2.063531 -9.493571
v -5.655884 2.063531 -9.493571
v -5.655237 2.061035 -9.493665
v -5.655840 2.063160 -9.493577
v -5.655743 2.061218 -9.493591
v -5.655573 2.061023 -9.493616
v -5.654497 2.059399 -9.493772
v -5.655573 2.061023 -9.493616
v -5.655743 2.061218 -9.493591
v -5.654497 2.059399 -9.493772
v -5.655237 2.061035 -9.493665
v -5.655884 2.063531 -9.493571
v -5.655840 2.063160 -9.493577
vt 0.625000 0.000000
vt 0.625000 0.000000
vt 0.625000 0.000000
vt 0.625000 0.000000
vt 0.625000 0.000000
vt 0.625000 0.000000
vt 0.625000 0.000000
vt 0.625000 0.000000
vt 0.625000 0.000000
vt 0.625000 0.000000
vt 0.625000 0.000000
vt 0.625000 0.000000
vn 0.1419 0.0002 0.9899
vn 0.1428 -0.0017 0.9898
vn 0.1449 -0.0001 0.9894
vn 0.1431 0.0005 0.9897
vn 0.1452 0.0000 0.9894
vn 0.1694 0.0026 0.9855
vn -0.1694 -0.0026 -0.9855
vn -0.1459 0.0000 -0.9893
vn -0.1445 0.0001 -0.9895
vn -0.1425 0.0000 -0.9898
vn -0.1421 0.0011 -0.9899
vn -0.1423 -0.0002 -0.9898
usemtl (null)
s 1
f 88/41/34 89/42/34 90/43/34
f 89/42/35 88/41/36 91/44/37
f 91/44/37 88/41/36 92/45/38
f 92/45/39 88/41/39 93/46/39
f 94/47/40 95/48/40 96/49/40
f 96/49/41 95/48/42 97/50/43
f 97/50/43 95/48/42 98/51/44
f 99/52/45 98/51/44 95/48/42
l 100 101
l 102 100
l 103 102
l 104 103
l 105 104
l 101 105
o instance_64.002_ID633
v -20.552660 0.737800 -2.823156
v -20.552996 0.737787 -2.823107
v -20.551920 0.736164 -2.823263
v -20.553165 0.737982 -2.823082
v -20.553265 0.739926 -2.823068
v -20.553307 0.740296 -2.823062
v -20.553307 0.740296 -2.823062
v -20.552660 0.737800 -2.823156
v -20.553265 0.739926 -2.823068
v -20.553165 0.737982 -2.823082
v -20.552996 0.737787 -2.823107
v -20.551920 0.736164 -2.823263
v -20.552996 0.737787 -2.823107
v -20.553165 0.737982 -2.823082
v -20.551920 0.736164 -2.823263
v -20.552660 0.737800 -2.823156
v -20.553307 0.740296 -2.823062
v -20.553265 0.739926 -2.823068
vt 0.625000 0.000000
vt 0.625000 0.000000
vt 0.625000 0.000000
vt 0.625000 0.000000
vt 0.625000 0.000000
vt 0.625000 0.000000
vt 0.625000 0.000000
vt 0.625000 0.000000
vt 0.625000 0.000000
vt 0.625000 0.000000
vt 0.625000 0.000000
vt 0.625000 0.000000
vn 0.1401 -0.0003 0.9901
vn 0.1428 0.0012 0.9898
vn 0.1435 0.0005 0.9897
vn 0.1431 0.0012 0.9897
vn 0.1334 -0.0010 0.9911
vn 0.1302 -0.0017 0.9915
vn -0.1302 0.0017 -0.9915
vn -0.1402 -0.0000 -0.9901
vn -0.1334 0.0009 -0.9911
vn -0.1432 -0.0019 -0.9897
vn -0.1423 -0.0034 -0.9898
vn -0.1429 -0.0000 -0.9897
usemtl (null)
s 1
f 106/53/46 107/54/47 108/55/48
f 107/54/47 106/53/46 109/56/49
f 109/56/49 106/53/46 110/57/50
f 110/57/50 106/53/46 111/58/51
f 112/59/52 113/60/53 114/61/54
f 114/61/54 113/60/53 115/62/55
f 115/62/55 113/60/53 116/63/56
f 117/64/57 116/63/56 113/60/53
l 118 119
l 120 118
l 121 120
l 122 121
l 123 122
l 119 123
o instance_64.003_ID641
v -5.089930 1.692867 -10.537109
v -5.089352 1.691960 -10.537192
v -5.089779 1.692313 -10.537130
l 124 125
l 126 124
l 125 126
o instance_67.003_ID575
v -6.094456 1.653713 -9.245605
v -6.094307 1.654267 -9.245626
v -6.094885 1.653360 -9.245543
l 127 128
l 129 127
l 128 129
o instance_68.001_ID505
v -8.391485 1.465580 -8.682044
v -8.390680 1.467019 -8.682161
v -8.391630 1.465448 -8.682024
v -8.387838 1.466865 -8.682571
v -8.387838 1.466865 -8.682571
v -8.391485 1.465580 -8.682044
v -8.390680 1.467019 -8.682161
v -8.391630 1.465448 -8.682024
v -8.390680 1.467019 -8.682161
v -8.387838 1.466865 -8.682571
v -8.391630 1.465448 -8.682024
v -8.391485 1.465580 -8.682044
vt 0.625000 0.000000
vt 0.625000 0.000000
vt 0.625000 0.000000
vt 0.625000 0.000000
vt 0.625000 0.000000
vt 0.625000 0.000000
vt 0.625000 0.000000
vt 0.625000 0.000000
vn 0.1084 0.0090 0.9941
vn 0.1435 0.0009 0.9896
vn -0.1435 -0.0008 -0.9896
vn -0.1084 -0.0113 -0.9940
usemtl (null)
s 1
f 130/65/58 131/66/58 132/67/58
f 131/66/59 130/65/59 133/68/59
f 134/69/60 135/70/60 136/71/60
f 137/72/61 136/71/61 135/70/61
l 141 140
l 138 139
l 140 138
l 139 141
o instance_68.002_ID513
v -8.748518 2.022435 -8.630406
v -8.748854 2.022422 -8.630358
v -8.747778 2.020799 -8.630513
v -8.749023 2.022617 -8.630333
v -8.749121 2.024560 -8.630319
v -8.749165 2.024931 -8.630313
v -8.749165 2.024931 -8.630313
v -8.748518 2.022435 -8.630406
v -8.749121 2.024560 -8.630319
v -8.749023 2.022617 -8.630333
v -8.748854 2.022422 -8.630358
v -8.747778 2.020799 -8.630513
v -8.748854 2.022422 -8.630358
v -8.749023 2.022617 -8.630333
v -8.747778 2.020799 -8.630513
v -8.748518 2.022435 -8.630406
v -8.749165 2.024931 -8.630313
v -8.749121 2.024560 -8.630319
vt 0.625000 0.000000
vt 0.625000 0.000000
vt 0.625000 0.000000
vt 0.625000 0.000000
vt 0.625000 0.000000
vt 0.625000 0.000000
vt 0.625000 0.000000
vt 0.625000 0.000000
vt 0.625000 0.000000
vt 0.625000 0.000000
vt 0.625000 0.000000
vt 0.625000 0.000000
vn 0.1452 0.0024 0.9894
vn 0.1410 -0.0010 0.9900
vn 0.1418 0.0004 0.9899
vn 0.1415 -0.0002 0.9899
vn 0.1472 0.0008 0.9891
vn 0.1419 0.0035 0.9899
vn -0.1417 -0.0035 -0.9899
vn -0.1450 -0.0023 -0.9894
vn -0.1467 -0.0007 -0.9892
vn -0.1418 0.0001 -0.9899
vn -0.1405 0.0010 -0.9901
vn -0.1413 -0.0004 -0.9900
usemtl (null)
s 1
f 142/73/62 143/74/63 144/75/64
f 143/74/63 142/73/62 145/76/65
f 145/76/65 142/73/62 146/77/66
f 146/77/66 142/73/62 147/78/67
f 148/79/68 149/80/69 150/81/70
f 150/81/70 149/80/69 151/82/71
f 151/82/71 149/80/69 152/83/72
f 153/84/73 152/83/72 149/80/69
l 154 155
l 156 154
l 157 156
l 158 157
l 159 158
l 155 159
o instance_68.003_ID521
v -8.350595 1.654266 -8.687959
v -8.350018 1.653359 -8.688042
v -8.350445 1.653712 -8.687980
l 160 161
l 162 160
l 161 162
o Cube_Cube.001
v -28.216795 1.258363 -6.746257
v -28.216795 1.339084 -6.746257
v -25.780363 1.339084 -6.743701
v -25.780363 1.258363 -6.743701
v -25.788164 1.339083 0.693294
v -25.788164 1.258362 0.693294
v -28.224596 1.339083 0.690738
v -28.224596 1.258362 0.690738
vt 0.625000 0.000000
vt 0.375000 0.000000
vt 0.375000 0.250000
vt 0.625000 0.250000
vt 0.375000 0.500000
vt 0.625000 0.500000
vt 0.375000 0.750000
vt 0.625000 0.750000
vt 0.375000 1.000000
vt 0.125000 0.500000
vt 0.125000 0.750000
vt 0.875000 0.500000
vt 0.625000 1.000000
vt 0.875000 0.750000
vn 0.0010 0.0000 -1.0000
vn 1.0000 -0.0000 0.0010
vn -0.0010 -0.0000 1.0000
vn -1.0000 0.0000 -0.0010
vn -0.0000 1.0000 0.0000
vn 0.0000 -1.0000 -0.0000
usemtl None
s 1
f 163/85/74 164/86/74 165/87/74
f 166/88/75 165/87/75 167/89/75
f 168/90/76 167/89/76 169/91/76
f 170/92/77 169/91/77 164/93/77
f 167/89/78 165/94/78 164/95/78
f 166/96/79 168/90/79 170/92/79
f 163/85/74 165/87/74 166/88/74
f 166/88/75 167/89/75 168/90/75
f 168/90/76 169/91/76 170/92/76
f 170/92/77 164/93/77 163/97/77
f 167/89/78 164/95/78 169/91/78
f 166/96/79 170/92/79 163/98/79
o Cube.001_Cube.002
v -7.587067 1.310421 -1.175207
v -7.587067 1.380444 -1.175207
v -7.608095 1.380444 2.002159
v -7.608095 1.310421 2.002159
v -30.357315 1.380444 1.851598
v -30.357315 1.310421 1.851598
v -30.336287 1.380444 -1.325767
v -30.336287 1.310421 -1.325767
vt 0.625000 0.000000
vt 0.375000 0.000000
vt 0.375000 0.250000
vt 0.625000 0.250000
vt 0.375000 0.500000
vt 0.625000 0.500000
vt 0.375000 0.750000
vt 0.625000 0.750000
vt 0.375000 1.000000
vt 0.125000 0.500000
vt 0.125000 0.750000
vt 0.875000 0.500000
vt 0.625000 1.000000
vt 0.875000 0.750000
vn 1.0000 0.0000 0.0066
vn -0.0066 0.0000 1.0000
vn -1.0000 0.0000 -0.0066
vn 0.0066 0.0000 -1.0000
vn -0.0000 1.0000 0.0000
vn 0.0000 -1.0000 -0.0000
usemtl None
s 1
f 171/99/80 172/100/80 173/101/80
f 174/102/81 173/101/81 175/103/81
f 176/104/82 175/103/82 177/105/82
f 178/106/83 177/105/83 172/107/83
f 175/103/84 173/108/84 172/109/84
f 174/110/85 176/104/85 178/106/85
f 171/99/80 173/101/80 174/102/80
f 174/102/81 175/103/81 176/104/81
f 176/104/82 177/105/82 178/106/82
f 178/106/83 172/107/83 171/111/83
f 175/103/84 172/109/84 177/105/84
f 174/110/85 178/106/85 171/112/85
