# Blender v2.93.0 OBJ File: ''
# www.blender.org
o Plane.006
v -0.453017 0.567630 0.823537
v -0.545646 0.097299 0.929341
v 0.454375 0.567624 0.823509
v 0.544908 0.100168 0.930221
vt 0.000000 0.000000
vt 1.000000 1.000000
vt 0.000000 1.000000
vt 1.000000 0.000000
vn 0.0000 0.2226 0.9749
vn -0.0014 0.2197 0.9756
s off
f 1/1/1 4/2/1 3/3/1
f 1/1/2 2/4/2 4/2/2
o Plane.009
v 0.499631 0.588973 0.730616
v 0.597918 0.057350 0.240908
v 0.500117 0.589069 0.240908
v 0.597611 0.052461 0.844540
vt 0.000000 0.000000
vt 1.000000 1.000000
vt 0.000000 1.000000
vt 1.000000 0.000000
vn 0.9836 0.1805 0.0015
vn 0.9836 0.1804 0.0015
vn 0.9835 0.1809 0.0010
vn 0.9837 0.1801 0.0020
s 1
f 5/5/3 6/6/4 7/7/5
f 5/5/3 8/8/6 6/6/4
o Plane.010
v 0.503353 0.591228 -0.231078
v 0.589602 0.065864 0.167268
v 0.589630 0.065868 -0.464492
v 0.504632 0.586628 0.167260
vt 1.000000 0.000000
vt 0.000000 1.000000
vt 0.000000 0.000000
vt 1.000000 1.000000
vn 0.9869 0.1616 -0.0006
vn 0.9869 0.1611 -0.0012
vn 0.9868 0.1620 0.0000
vn 0.9869 0.1610 -0.0013
s 1
f 9/9/7 10/10/8 11/11/9
f 9/9/7 12/12/10 10/10/8
o Plane.011
v -0.498528 0.603488 0.761722
v -0.594800 0.066660 0.240908
v -0.594311 0.066580 0.867632
v -0.500524 0.599015 0.240908
vt 1.000000 0.000000
vt 0.000000 1.000000
vt 0.000000 0.000000
vt 1.000000 1.000000
vn -0.9845 0.1751 0.0015
vn -0.9844 0.1758 0.0008
vn -0.9847 0.1744 0.0023
s 1
f 13/13/11 14/14/11 15/15/12
f 13/13/11 16/16/13 14/14/11
o Plane.012
v -0.505993 0.590027 -0.206284
v -0.592133 0.056295 0.167260
v -0.505965 0.590022 0.167268
v -0.592356 0.051525 -0.436373
vt 0.000000 0.000000
vt 1.000000 1.000000
vt 0.000000 1.000000
vt 1.000000 0.000000
vn -0.9873 0.1590 -0.0004
vn -0.9872 0.1593 -0.0000
vn -0.9872 0.1594 0.0001
vn -0.9873 0.1587 -0.0009
s 1
f 17/17/14 18/18/15 19/19/16
f 17/17/14 20/20/17 18/18/15
o Plane.013
v -0.537021 0.048462 -0.534297
v 0.446790 0.597567 -0.283608
v 0.559452 0.048451 -0.534271
v -0.447412 0.599353 -0.281197
vt 0.000000 0.000000
vt 1.000000 1.000000
vt 0.000000 1.000000
vt 1.000000 0.000000
vn -0.0001 0.4155 -0.9096
vn -0.0014 0.4173 -0.9088
vn 0.0000 0.4153 -0.9097
vn -0.0016 0.4177 -0.9086
s 1
f 21/21/18 22/22/19 23/23/20
f 21/21/18 24/24/21 22/22/19
