# Blender v2.93.0 OBJ File: ''
# www.blender.org
o Circle.001
v 0.707107 0.000000 -1.427270
v -0.707107 0.000000 -1.427270
v 0.000000 -0.000000 1.909593
v -1.000000 0.000000 0.000000
v -0.836197 -0.381458 0.698479
v -0.923879 -0.000000 0.772433
v 0.923879 -0.000000 0.772433
v 0.832229 -0.000000 1.427270
v 0.923879 -0.000000 0.772433
v -0.923879 0.000000 -0.772433
v -0.707107 0.000000 -1.427270
v -0.923879 0.000000 -0.772433
v 0.832229 -0.000000 1.427270
v 0.686348 -0.000000 1.864818
v -0.382683 0.000000 -1.864818
v 0.686348 -0.000000 1.864818
v 0.000000 -0.000000 1.909593
v 0.000000 0.000000 -2.018465
v 0.382683 0.000000 -1.864818
v 0.000000 0.000000 -2.018465
v -0.382683 0.000000 -1.864818
v -0.686348 -0.000000 1.864818
v 0.382683 0.000000 -1.864818
v 0.707107 0.000000 -1.427270
v -0.686348 -0.000000 1.864818
v -0.832229 -0.000000 1.427270
v 0.923879 0.000000 -0.772433
v -0.832229 -0.000000 1.427270
v 0.923879 0.000000 -0.772433
v 1.000000 0.000000 0.000000
v -0.923879 -0.000000 0.772433
v 1.000000 0.000000 0.000000
v -1.000000 0.000000 0.000000
v 0.836197 -0.381459 0.698478
v 0.905093 -0.381459 -0.000646
v -0.836197 -0.381458 -0.699770
v -0.905093 -0.381458 -0.000646
v 0.753245 -0.381459 1.291167
v -0.639998 -0.381458 -1.216256
v 0.621209 -0.381459 1.687189
v -0.346364 -0.381458 -1.512474
v 0.000000 -0.381458 -1.651538
v -0.621210 -0.381458 1.687189
v 0.000000 -0.381458 1.727715
v 0.346364 -0.381459 -1.512474
v 0.639998 -0.381459 -1.216256
v -0.753245 -0.381458 1.291167
v 0.836197 -0.381459 -0.699770
v -0.600041 -0.000000 0.947218
v 0.596723 0.000000 -0.554376
v 0.601425 -0.000000 0.947218
v 0.485533 0.636278 0.807531
v -0.488574 0.636278 -0.262261
v -0.489124 0.636278 0.807531
v 0.487851 0.636278 -0.262261
v -0.599237 0.000000 -0.554376
vt 0.000000 0.000000
vt 0.000000 0.000000
vt 0.000000 0.000000
vt 0.000000 0.000000
vt 0.000000 0.000000
vt 0.000000 0.000000
vt 0.000000 0.000000
vt 0.000000 0.000000
vt 0.000000 0.000000
vt 0.000000 0.000000
vt 0.000000 0.000000
vt 0.000000 0.000000
vt 0.000000 0.000000
vt 0.000000 0.000000
vt 0.000000 0.000000
vt 0.000000 0.000000
vt 0.000000 0.000000
vt 0.000000 0.000000
vt 0.000000 0.000000
vt 0.000000 0.000000
vt 0.000000 0.000000
vt 0.000000 0.000000
vt 0.000000 0.000000
vt 0.000000 0.000000
vt 0.000000 0.000000
vt 0.000000 0.000000
vt 0.000000 0.000000
vt 0.000000 0.000000
vt 0.000000 0.000000
vt 0.000000 0.000000
vt 0.000000 0.000000
vt 0.000000 0.000000
vt 0.000000 0.000000
vt 0.000000 0.000000
vt 0.000000 0.000000
vt 0.000000 0.000000
vt 0.000000 0.000000
vt 0.000000 0.000000
vt 0.000000 0.000000
vt 0.000000 0.000000
vt 0.000000 0.000000
vt 0.000000 0.000000
vt 0.000000 0.000000
vt 0.000000 0.000000
vt 0.000000 0.000000
vt 0.000000 0.000000
vt 0.000000 0.000000
vt 0.000000 0.000000
vt 0.000000 0.000000
vt 1.000000 1.000000
vt 1.000000 0.000000
vt 1.000000 0.000000
vt 0.000000 1.000000
vt 0.000000 0.000000
vt 1.000000 1.000000
vt 0.000000 1.000000
vn -0.0000 1.0000 0.0000
vn -0.9660 -0.2405 0.0952
vn 0.0000 0.0000 1.0000
vn 0.9660 -0.2405 0.0952
vn -0.9660 -0.2402 -0.0952
vn 0.9598 -0.2467 0.1343
vn 0.9598 -0.2466 0.1343
vn -0.8996 -0.2719 -0.3417
vn 0.9063 -0.2955 0.3022
vn -0.6315 -0.4574 -0.6260
vn 0.0588 -0.4296 0.9011
vn 0.2780 -0.6659 -0.6923
vn -0.2780 -0.6659 -0.6923
vn -0.0588 -0.4296 0.9011
vn 0.6807 -0.5310 -0.5047
vn -0.9063 -0.2955 0.3022
vn 0.8986 -0.3226 -0.2975
vn -0.9597 -0.2467 0.1343
vn 0.9660 -0.2402 -0.0952
vn -0.8986 -0.3226 -0.2975
vn -0.6807 -0.5310 -0.5047
vn 0.6315 -0.4574 -0.6260
vn 0.8996 -0.2719 -0.3417
vn 0.0000 -1.0000 -0.0000
vn 0.9852 0.1712 -0.0025
vn 0.9841 0.1778 0.0011
vn 0.9837 0.1796 0.0021
vn -0.9852 0.1716 -0.0005
vn 0.0000 0.4172 -0.9088
vn 0.0000 0.2144 0.9767
vn 0.9854 0.1700 -0.0031
s 1
f 1/1/1 2/2/1 3/3/1
f 4/4/2 5/5/2 6/6/2
f 7/7/3 8/8/3 9/9/3
f 10/10/3 11/11/3 12/12/3
f 13/13/3 14/14/3 8/8/3
f 2/2/3 15/15/3 11/11/3
f 16/16/3 17/17/3 14/14/3
f 18/18/3 19/19/3 20/20/3
f 21/21/3 20/20/3 15/15/3
f 3/3/3 22/22/3 17/17/3
f 23/23/3 24/24/3 19/19/3
f 25/25/3 26/26/3 22/22/3
f 1/1/3 27/27/3 24/24/3
f 28/28/3 6/6/3 26/26/3
f 29/29/3 30/30/3 27/27/3
f 31/31/3 4/4/3 6/6/3
f 32/32/3 9/9/3 30/30/3
f 33/33/3 12/12/3 4/4/3
f 30/30/4 34/34/4 35/35/4
f 4/4/5 36/36/5 37/37/5
f 9/9/6 38/38/6 34/34/7
f 12/12/8 39/39/8 36/36/8
f 8/8/9 40/40/9 38/38/9
f 11/11/10 41/41/10 39/39/10
f 17/17/11 40/40/11 14/14/11
f 19/19/12 42/42/12 20/20/12
f 15/15/13 42/42/13 41/41/13
f 17/17/14 43/43/14 44/44/14
f 24/24/15 45/45/15 19/19/15
f 26/26/16 43/43/16 22/22/16
f 27/27/17 46/46/17 24/24/17
f 6/6/18 47/47/18 26/26/18
f 30/30/19 48/48/19 27/27/19
f 1/1/1 23/23/1 2/2/1
f 23/23/1 18/18/1 21/21/1
f 2/2/1 23/23/1 21/21/1
f 2/2/1 10/10/1 3/3/1
f 10/10/1 33/33/1 3/3/1
f 33/33/1 31/31/1 3/3/1
f 31/31/1 28/28/1 3/3/1
f 28/28/1 25/25/1 3/3/1
f 3/3/1 16/16/1 13/13/1
f 13/13/1 7/7/1 3/3/1
f 7/7/1 32/32/1 3/3/1
f 32/32/1 29/29/1 3/3/1
f 29/29/1 1/1/1 3/3/1
f 4/4/2 37/37/2 5/5/2
f 7/7/3 13/13/3 8/8/3
f 10/10/3 2/2/3 11/11/3
f 13/13/3 16/16/3 14/14/3
f 2/2/3 21/21/3 15/15/3
f 16/16/3 3/3/3 17/17/3
f 18/18/3 23/23/3 19/19/3
f 21/21/3 18/18/3 20/20/3
f 3/3/3 25/25/3 22/22/3
f 23/23/3 1/1/3 24/24/3
f 25/25/3 28/28/3 26/26/3
f 1/1/3 29/29/3 27/27/3
f 28/28/3 31/31/3 6/6/3
f 29/29/3 32/32/3 30/30/3
f 31/31/3 33/33/3 4/4/3
f 32/32/3 7/7/3 9/9/3
f 33/33/3 10/10/3 12/12/3
f 30/30/4 9/9/4 34/34/4
f 4/4/5 12/12/5 36/36/5
f 9/9/6 8/8/6 38/38/6
f 12/12/20 11/11/20 39/39/20
f 8/8/9 14/14/9 40/40/9
f 11/11/21 15/15/21 41/41/21
f 17/17/11 44/44/11 40/40/11
f 19/19/12 45/45/12 42/42/12
f 15/15/13 20/20/13 42/42/13
f 17/17/14 22/22/14 43/43/14
f 24/24/22 46/46/22 45/45/22
f 26/26/16 47/47/16 43/43/16
f 27/27/23 48/48/23 46/46/23
f 6/6/18 5/5/18 47/47/18
f 30/30/19 35/35/19 48/48/19
f 49/49/24 50/50/24 51/51/24
f 52/52/1 53/53/1 54/54/1
f 51/51/25 55/55/26 52/52/27
f 49/49/28 53/53/28 56/56/28
f 50/50/29 53/53/29 55/55/29
f 49/49/30 52/52/30 54/54/30
f 49/49/24 56/56/24 50/50/24
f 52/52/1 55/55/1 53/53/1
f 51/51/25 50/50/31 55/55/26
f 49/49/28 54/54/28 53/53/28
f 50/50/29 56/56/29 53/53/29
f 49/49/30 51/51/30 52/52/30
