# Blender v2.93.0 OBJ File: ''
# www.blender.org
o Plane.007
v 0.229158 0.000000 2.121808
v -0.229158 0.000000 2.121808
v 0.229158 0.000000 1.561605
v -0.229158 0.000000 1.561605
v 0.178609 0.205641 2.060022
v -0.178609 0.205641 2.060022
v 0.178609 0.205641 1.623391
v -0.178609 0.205641 1.623391
vt 0.000000 1.000000
vt 0.000000 0.000000
vt 1.000000 0.000000
vt 1.000000 0.000000
vt 0.000000 0.000000
vt 0.000000 1.000000
vt 1.000000 1.000000
vt 1.000000 1.000000
vn 0.0000 -1.0000 0.0000
vn 0.0000 1.0000 0.0000
vn 0.0000 0.2877 -0.9577
vn 0.0000 0.2877 0.9577
vn -0.9711 0.2387 0.0000
vn 0.9711 0.2387 0.0000
s off
f 3/1/1 1/2/1 2/3/1
f 6/4/2 5/5/2 7/6/2
f 3/1/3 4/7/3 8/8/3
f 2/3/4 1/2/4 5/5/4
f 4/7/5 2/3/5 6/4/5
f 3/1/6 7/6/6 5/5/6
f 3/1/1 2/3/1 4/7/1
f 6/4/2 7/6/2 8/8/2
f 3/1/3 8/8/3 7/6/3
f 2/3/4 5/5/4 6/4/4
f 4/7/5 6/4/5 8/8/5
f 3/1/6 5/5/6 1/2/6
o Cylinder
v 0.000000 0.109678 2.058429
v 0.000000 -0.262673 2.058429
v -0.011444 0.109678 2.057251
v -0.011444 -0.262673 2.057251
v -0.022448 0.109678 2.053761
v -0.022448 -0.262673 2.053761
v -0.032589 0.109678 2.048093
v -0.032589 -0.262673 2.048093
v -0.041478 0.109678 2.040465
v -0.041478 -0.262673 2.040465
v -0.048773 0.109678 2.031171
v -0.048773 -0.262673 2.031171
v -0.054194 0.109678 2.020567
v -0.054194 -0.262673 2.020567
v -0.057532 0.109678 2.009062
v -0.057532 -0.262673 2.009062
v -0.058659 0.109678 1.997096
v -0.058659 -0.262673 1.997096
v -0.057532 0.109678 1.985131
v -0.057532 -0.262673 1.985131
v -0.054194 0.109678 1.973625
v -0.054194 -0.262673 1.973625
v -0.048773 0.109678 1.963021
v -0.048773 -0.262673 1.963021
v -0.041478 0.109678 1.953727
v -0.041478 -0.262673 1.953727
v -0.032589 0.109678 1.946099
v -0.032589 -0.262673 1.946099
v -0.022448 0.109678 1.940432
v -0.022448 -0.262673 1.940432
v -0.011444 0.109678 1.936941
v -0.011444 -0.262673 1.936941
v 0.000000 0.109678 1.935763
v 0.000000 -0.262673 1.935763
v 0.011444 0.109678 1.936941
v 0.011444 -0.262673 1.936941
v 0.022448 0.109678 1.940432
v 0.022448 -0.262673 1.940432
v 0.032589 0.109678 1.946099
v 0.032589 -0.262673 1.946099
v 0.041478 0.109678 1.953727
v 0.041478 -0.262673 1.953727
v 0.048773 0.109678 1.963021
v 0.048773 -0.262673 1.963021
v 0.054194 0.109678 1.973625
v 0.054194 -0.262673 1.973625
v 0.057532 0.109678 1.985131
v 0.057532 -0.262673 1.985131
v 0.058659 0.109678 1.997096
v 0.058659 -0.262673 1.997096
v 0.057532 0.109678 2.009062
v 0.057532 -0.262673 2.009062
v 0.054194 0.109678 2.020567
v 0.054194 -0.262673 2.020567
v 0.048773 0.109678 2.031171
v 0.048773 -0.262673 2.031171
v 0.041478 0.109678 2.040465
v 0.041478 -0.262673 2.040465
v 0.032589 0.109678 2.048093
v 0.032589 -0.262673 2.048093
v 0.022448 0.109678 2.053761
v 0.022448 -0.262673 2.053761
v 0.011444 0.109678 2.057251
v 0.011444 -0.262673 2.057251
vt 1.000000 1.000000
vt 1.000000 0.500000
vt 0.968750 0.500000
vt 0.968750 1.000000
vt 0.937500 0.500000
vt 0.937500 1.000000
vt 0.906250 0.500000
vt 0.906250 1.000000
vt 0.875000 0.500000
vt 0.875000 1.000000
vt 0.843750 0.500000
vt 0.843750 1.000000
vt 0.812500 0.500000
vt 0.812500 1.000000
vt 0.781250 0.500000
vt 0.781250 1.000000
vt 0.750000 0.500000
vt 0.750000 1.000000
vt 0.718750 0.500000
vt 0.718750 1.000000
vt 0.687500 0.500000
vt 0.687500 1.000000
vt 0.656250 0.500000
vt 0.656250 1.000000
vt 0.625000 0.500000
vt 0.625000 1.000000
vt 0.593750 0.500000
vt 0.593750 1.000000
vt 0.562500 0.500000
vt 0.562500 1.000000
vt 0.531250 0.500000
vt 0.531250 1.000000
vt 0.500000 0.500000
vt 0.500000 1.000000
vt 0.468750 0.500000
vt 0.468750 1.000000
vt 0.437500 0.500000
vt 0.437500 1.000000
vt 0.406250 0.500000
vt 0.406250 1.000000
vt 0.375000 0.500000
vt 0.375000 1.000000
vt 0.343750 0.500000
vt 0.343750 1.000000
vt 0.312500 0.500000
vt 0.312500 1.000000
vt 0.281250 0.500000
vt 0.281250 1.000000
vt 0.250000 0.500000
vt 0.250000 1.000000
vt 0.218750 0.500000
vt 0.218750 1.000000
vt 0.187500 0.500000
vt 0.187500 1.000000
vt 0.156250 0.500000
vt 0.156250 1.000000
vt 0.125000 0.500000
vt 0.125000 1.000000
vt 0.093750 0.500000
vt 0.093750 1.000000
vt 0.062500 0.500000
vt 0.028269 0.341844
vt 0.471731 0.158156
vt 0.158156 0.028269
vt 0.062500 1.000000
vt 0.031250 0.500000
vt 0.031250 1.000000
vt 0.000000 0.500000
vt 0.985388 0.296822
vt 0.514612 0.203178
vt 0.796822 0.014612
vt 0.341844 0.471731
vt 0.158156 0.471731
vt 0.296822 0.485388
vt 0.250000 0.490000
vt 0.203178 0.485388
vt 0.080294 0.419706
vt 0.116663 0.449553
vt 0.050447 0.383337
vt 0.010000 0.250000
vt 0.014612 0.296822
vt 0.028269 0.158156
vt 0.014612 0.203178
vt 0.080294 0.080294
vt 0.050447 0.116663
vt 0.116663 0.050447
vt 0.250000 0.010000
vt 0.203178 0.014612
vt 0.341844 0.028269
vt 0.296822 0.014612
vt 0.419706 0.080294
vt 0.383337 0.050447
vt 0.449553 0.116663
vt 0.490000 0.250000
vt 0.485388 0.203178
vt 0.471731 0.341844
vt 0.485388 0.296822
vt 0.419706 0.419706
vt 0.449553 0.383337
vt 0.383337 0.449553
vt 0.000000 1.000000
vt 0.703178 0.485388
vt 0.796822 0.485388
vt 0.750000 0.490000
vt 0.883337 0.449553
vt 0.841844 0.471731
vt 0.949553 0.383337
vt 0.919706 0.419706
vt 0.971731 0.341844
vt 0.985388 0.203178
vt 0.990000 0.250000
vt 0.949553 0.116663
vt 0.971731 0.158156
vt 0.883337 0.050447
vt 0.919706 0.080294
vt 0.841844 0.028269
vt 0.703178 0.014612
vt 0.750000 0.010000
vt 0.616663 0.050447
vt 0.658156 0.028269
vt 0.550447 0.116663
vt 0.580294 0.080294
vt 0.528269 0.158156
vt 0.514612 0.296822
vt 0.510000 0.250000
vt 0.528269 0.341844
vt 0.550447 0.383337
vt 0.616663 0.449553
vt 0.580294 0.419706
vt 0.658156 0.471731
vn -0.1024 0.0000 0.9947
vn -0.3024 0.0000 0.9532
vn -0.4879 0.0000 0.8729
vn -0.6512 0.0000 0.7589
vn -0.7866 0.0000 0.6174
vn -0.8904 0.0000 0.4552
vn -0.9604 0.0000 0.2786
vn -0.9956 0.0000 0.0938
vn -0.9956 0.0000 -0.0938
vn -0.9604 0.0000 -0.2786
vn -0.8904 0.0000 -0.4552
vn -0.7866 0.0000 -0.6174
vn -0.6512 0.0000 -0.7589
vn -0.4879 0.0000 -0.8729
vn -0.3023 0.0000 -0.9532
vn -0.1024 0.0000 -0.9947
vn 0.1024 0.0000 -0.9947
vn 0.3023 0.0000 -0.9532
vn 0.4879 0.0000 -0.8729
vn 0.6512 0.0000 -0.7589
vn 0.7866 0.0000 -0.6174
vn 0.8904 0.0000 -0.4552
vn 0.9604 0.0000 -0.2786
vn 0.9956 0.0000 -0.0938
vn 0.9956 0.0000 0.0938
vn 0.9604 0.0000 0.2786
vn 0.8904 0.0000 0.4552
vn 0.7866 0.0000 0.6174
vn 0.6512 0.0000 0.7589
vn 0.4879 0.0000 0.8729
vn 0.0000 -1.0000 0.0000
vn 0.3023 0.0000 0.9532
vn 0.1024 0.0000 0.9947
vn 0.0000 1.0000 -0.0000
vn -0.3023 0.0000 0.9532
vn 0.3024 0.0000 0.9532
s off
f 10/9/7 9/10/7 11/11/7
f 12/12/8 11/11/8 13/13/8
f 14/14/9 13/13/9 15/15/9
f 16/16/10 15/15/10 17/17/10
f 18/18/11 17/17/11 19/19/11
f 20/20/12 19/19/12 21/21/12
f 22/22/13 21/21/13 23/23/13
f 24/24/14 23/23/14 25/25/14
f 26/26/15 25/25/15 27/27/15
f 28/28/16 27/27/16 29/29/16
f 30/30/17 29/29/17 31/31/17
f 32/32/18 31/31/18 33/33/18
f 34/34/19 33/33/19 35/35/19
f 36/36/20 35/35/20 37/37/20
f 38/38/21 37/37/21 39/39/21
f 40/40/22 39/39/22 41/41/22
f 42/42/23 41/41/23 43/43/23
f 44/44/24 43/43/24 45/45/24
f 46/46/25 45/45/25 47/47/25
f 48/48/26 47/47/26 49/49/26
f 50/50/27 49/49/27 51/51/27
f 52/52/28 51/51/28 53/53/28
f 54/54/29 53/53/29 55/55/29
f 56/56/30 55/55/30 57/57/30
f 58/58/31 57/57/31 59/59/31
f 60/60/32 59/59/32 61/61/32
f 62/62/33 61/61/33 63/63/33
f 64/64/34 63/63/34 65/65/34
f 66/66/35 65/65/35 67/67/35
f 68/68/36 67/67/36 69/69/36
f 62/70/37 30/71/37 46/72/37
f 70/73/38 69/69/38 71/74/38
f 72/75/39 71/74/39 9/76/39
f 23/77/40 55/78/40 39/79/40
f 10/9/7 11/11/7 12/12/7
f 12/12/41 13/13/41 14/14/41
f 14/14/9 15/15/9 16/16/9
f 16/16/10 17/17/10 18/18/10
f 18/18/11 19/19/11 20/20/11
f 20/20/12 21/21/12 22/22/12
f 22/22/13 23/23/13 24/24/13
f 24/24/14 25/25/14 26/26/14
f 26/26/15 27/27/15 28/28/15
f 28/28/16 29/29/16 30/30/16
f 30/30/17 31/31/17 32/32/17
f 32/32/18 33/33/18 34/34/18
f 34/34/19 35/35/19 36/36/19
f 36/36/20 37/37/20 38/38/20
f 38/38/21 39/39/21 40/40/21
f 40/40/22 41/41/22 42/42/22
f 42/42/23 43/43/23 44/44/23
f 44/44/24 45/45/24 46/46/24
f 46/46/25 47/47/25 48/48/25
f 48/48/26 49/49/26 50/50/26
f 50/50/27 51/51/27 52/52/27
f 52/52/28 53/53/28 54/54/28
f 54/54/29 55/55/29 56/56/29
f 56/56/30 57/57/30 58/58/30
f 58/58/31 59/59/31 60/60/31
f 60/60/32 61/61/32 62/62/32
f 62/62/33 63/63/33 64/64/33
f 64/64/34 65/65/34 66/66/34
f 66/66/35 67/67/35 68/68/35
f 68/68/36 69/69/36 70/73/36
f 14/80/37 70/81/37 12/82/37
f 12/82/37 70/81/37 10/83/37
f 10/83/37 70/81/37 72/84/37
f 70/81/37 66/85/37 68/86/37
f 66/85/37 70/81/37 64/87/37
f 64/87/37 70/81/37 62/70/37
f 62/70/37 58/88/37 60/89/37
f 58/88/37 54/90/37 56/91/37
f 54/90/37 50/92/37 52/93/37
f 50/92/37 46/72/37 48/94/37
f 46/72/37 42/95/37 44/96/37
f 42/95/37 38/97/37 40/98/37
f 38/97/37 34/99/37 36/100/37
f 34/99/37 30/71/37 32/101/37
f 30/71/37 26/102/37 28/103/37
f 26/102/37 22/104/37 24/105/37
f 22/104/37 18/106/37 20/107/37
f 18/106/37 14/80/37 16/108/37
f 62/70/37 46/72/37 58/88/37
f 58/88/37 46/72/37 54/90/37
f 54/90/37 46/72/37 50/92/37
f 46/72/37 38/97/37 42/95/37
f 38/97/37 46/72/37 34/99/37
f 34/99/37 46/72/37 30/71/37
f 30/71/37 14/80/37 26/102/37
f 26/102/37 14/80/37 22/104/37
f 22/104/37 14/80/37 18/106/37
f 14/80/37 62/70/37 70/81/37
f 14/80/37 30/71/37 62/70/37
f 70/73/42 71/74/42 72/75/42
f 72/75/39 9/76/39 10/109/39
f 71/110/40 11/111/40 9/112/40
f 11/111/40 15/113/40 13/114/40
f 15/113/40 19/115/40 17/116/40
f 19/115/40 23/77/40 21/117/40
f 23/77/40 27/118/40 25/119/40
f 27/118/40 31/120/40 29/121/40
f 31/120/40 35/122/40 33/123/40
f 35/122/40 39/79/40 37/124/40
f 39/79/40 43/125/40 41/126/40
f 43/125/40 47/127/40 45/128/40
f 47/127/40 51/129/40 49/130/40
f 51/129/40 55/78/40 53/131/40
f 55/78/40 59/132/40 57/133/40
f 59/132/40 55/78/40 61/134/40
f 61/134/40 55/78/40 63/135/40
f 63/135/40 67/136/40 65/137/40
f 67/136/40 63/135/40 69/138/40
f 69/138/40 63/135/40 71/110/40
f 71/110/40 23/77/40 11/111/40
f 11/111/40 23/77/40 15/113/40
f 15/113/40 23/77/40 19/115/40
f 23/77/40 31/120/40 27/118/40
f 31/120/40 23/77/40 35/122/40
f 35/122/40 23/77/40 39/79/40
f 39/79/40 55/78/40 43/125/40
f 43/125/40 55/78/40 47/127/40
f 47/127/40 55/78/40 51/129/40
f 55/78/40 71/110/40 63/135/40
f 71/110/40 55/78/40 23/77/40
