# Blender v2.93.0 OBJ File: ''
# www.blender.org
o Cylinder.001
v -0.004875 -0.017002 0.115707
v -0.004875 -0.017002 -0.105478
v -0.009370 -0.015591 0.115707
v -0.009370 -0.015591 -0.105478
v -0.013504 -0.013344 0.115707
v -0.013504 -0.013344 -0.105478
v -0.017120 -0.010350 0.115707
v -0.017120 -0.010350 -0.105478
v -0.020077 -0.006721 0.115707
v -0.020077 -0.006721 -0.105478
v -0.022263 -0.002599 0.115707
v -0.022263 -0.002599 -0.105478
v -0.023593 0.001859 0.115707
v -0.023593 0.001859 -0.105478
v -0.024017 0.006481 0.115707
v -0.024017 0.006481 -0.105478
v -0.023518 0.011090 0.115707
v -0.023518 0.011090 -0.105478
v -0.022115 0.015508 0.115707
v -0.022115 0.015508 -0.105478
v -0.019862 0.019566 0.115707
v -0.019862 0.019566 -0.105478
v -0.016846 0.023108 0.115707
v -0.016846 0.023108 -0.105478
v -0.013182 0.025997 0.115707
v -0.013182 0.025997 -0.105478
v -0.009012 0.028124 0.115707
v -0.009012 0.028124 -0.105478
v -0.004496 0.029405 0.115707
v -0.004496 0.029405 -0.105478
v 0.000194 0.029792 0.115707
v 0.000194 0.029792 -0.105478
v 0.004875 0.029269 0.115707
v 0.004875 0.029269 -0.105478
v 0.009370 0.027858 0.115707
v 0.009370 0.027858 -0.105478
v 0.013504 0.025612 0.115707
v 0.013504 0.025612 -0.105478
v 0.017120 0.022617 0.115707
v 0.017120 0.022617 -0.105478
v 0.020077 0.018989 0.115707
v 0.020077 0.018989 -0.105478
v 0.022263 0.014866 0.115707
v 0.022263 0.014866 -0.105478
v 0.023593 0.010409 0.115707
v 0.023593 0.010409 -0.105478
v 0.024017 0.005786 0.115707
v 0.024017 0.005786 -0.105478
v 0.023518 0.001178 0.115707
v 0.023518 0.001178 -0.105478
v 0.022115 -0.003241 0.115707
v 0.022115 -0.003241 -0.105478
v 0.019862 -0.007299 0.115707
v 0.019862 -0.007299 -0.105478
v 0.016846 -0.010841 0.115707
v 0.016846 -0.010841 -0.105478
v 0.013182 -0.013730 0.115707
v 0.013182 -0.013730 -0.105478
v 0.009012 -0.015856 0.115707
v 0.009012 -0.015856 -0.105478
v 0.004496 -0.017138 0.115707
v 0.004496 -0.017138 -0.105478
v -0.000194 -0.017524 0.115707
v -0.000194 -0.017524 -0.105478
vt 1.000000 1.000000
vt 1.000000 0.500000
vt 0.968750 0.500000
vt 0.968750 1.000000
vt 0.937500 0.500000
vt 0.937500 1.000000
vt 0.906250 0.500000
vt 0.906250 1.000000
vt 0.875000 0.500000
vt 0.875000 1.000000
vt 0.843750 0.500000
vt 0.843750 1.000000
vt 0.812500 0.500000
vt 0.812500 1.000000
vt 0.781250 0.500000
vt 0.781250 1.000000
vt 0.750000 0.500000
vt 0.750000 1.000000
vt 0.718750 0.500000
vt 0.718750 1.000000
vt 0.687500 0.500000
vt 0.687500 1.000000
vt 0.656250 0.500000
vt 0.656250 1.000000
vt 0.625000 0.500000
vt 0.625000 1.000000
vt 0.593750 0.500000
vt 0.593750 1.000000
vt 0.562500 0.500000
vt 0.562500 1.000000
vt 0.531250 0.500000
vt 0.531250 1.000000
vt 0.500000 0.500000
vt 0.500000 1.000000
vt 0.468750 0.500000
vt 0.468750 1.000000
vt 0.437500 0.500000
vt 0.437500 1.000000
vt 0.406250 0.500000
vt 0.406250 1.000000
vt 0.375000 0.500000
vt 0.375000 1.000000
vt 0.343750 0.500000
vt 0.343750 1.000000
vt 0.312500 0.500000
vt 0.312500 1.000000
vt 0.281250 0.500000
vt 0.281250 1.000000
vt 0.250000 0.500000
vt 0.250000 1.000000
vt 0.218750 0.500000
vt 0.218750 1.000000
vt 0.187500 0.500000
vt 0.187500 1.000000
vt 0.156250 0.500000
vt 0.156250 1.000000
vt 0.125000 0.500000
vt 0.125000 1.000000
vt 0.093750 0.500000
vt 0.093750 1.000000
vt 0.062500 0.500000
vt 0.028269 0.341844
vt 0.471731 0.158156
vt 0.158156 0.028269
vt 0.062500 1.000000
vt 0.031250 0.500000
vt 0.031250 1.000000
vt 0.000000 0.500000
vt 0.985388 0.296822
vt 0.514612 0.203178
vt 0.796822 0.014612
vt 0.341844 0.471731
vt 0.158156 0.471731
vt 0.296822 0.485388
vt 0.250000 0.490000
vt 0.203178 0.485388
vt 0.080294 0.419706
vt 0.116663 0.449553
vt 0.050447 0.383337
vt 0.010000 0.250000
vt 0.014612 0.296822
vt 0.028269 0.158156
vt 0.014612 0.203178
vt 0.080294 0.080294
vt 0.050447 0.116663
vt 0.116663 0.050447
vt 0.250000 0.010000
vt 0.203178 0.014612
vt 0.341844 0.028269
vt 0.296822 0.014612
vt 0.419706 0.080294
vt 0.383337 0.050447
vt 0.449553 0.116663
vt 0.490000 0.250000
vt 0.485388 0.203178
vt 0.471731 0.341844
vt 0.485388 0.296822
vt 0.419706 0.419706
vt 0.449553 0.383337
vt 0.383337 0.449553
vt 0.000000 1.000000
vt 0.703178 0.485388
vt 0.796822 0.485388
vt 0.750000 0.490000
vt 0.883337 0.449553
vt 0.841844 0.471731
vt 0.949553 0.383337
vt 0.919706 0.419706
vt 0.971731 0.341844
vt 0.985388 0.203178
vt 0.990000 0.250000
vt 0.949553 0.116663
vt 0.971731 0.158156
vt 0.883337 0.050447
vt 0.919706 0.080294
vt 0.841844 0.028269
vt 0.703178 0.014612
vt 0.750000 0.010000
vt 0.616663 0.050447
vt 0.658156 0.028269
vt 0.550447 0.116663
vt 0.580294 0.080294
vt 0.528269 0.158156
vt 0.514612 0.296822
vt 0.510000 0.250000
vt 0.528269 0.341844
vt 0.550447 0.383337
vt 0.616663 0.449553
vt 0.580294 0.419706
vt 0.658156 0.471731
vn -0.2996 -0.9541 -0.0000
vn -0.4774 -0.8787 -0.0000
vn -0.6379 -0.7701 -0.0000
vn -0.7751 -0.6318 -0.0000
vn -0.8835 -0.4685 -0.0000
vn -0.9582 -0.2860 -0.0000
vn -0.9958 -0.0913 -0.0000
vn -0.9942 0.1077 -0.0000
vn -0.9531 0.3027 -0.0000
vn -0.8743 0.4854 0.0000
vn -0.7613 0.6483 0.0000
vn -0.6193 0.7852 0.0000
vn -0.4542 0.8909 0.0000
vn -0.2729 0.9620 0.0000
vn -0.0822 0.9966 0.0000
vn 0.1109 0.9938 0.0000
vn 0.2996 0.9541 0.0000
vn 0.4774 0.8787 0.0000
vn 0.6379 0.7701 0.0000
vn 0.7751 0.6318 0.0000
vn 0.8835 0.4685 0.0000
vn 0.9582 0.2860 0.0000
vn 0.9958 0.0913 0.0000
vn 0.9942 -0.1077 0.0000
vn 0.9531 -0.3027 0.0000
vn 0.8743 -0.4854 -0.0000
vn 0.7613 -0.6483 -0.0000
vn 0.6193 -0.7852 -0.0000
vn 0.4542 -0.8909 -0.0000
vn 0.2729 -0.9620 -0.0000
vn -0.0000 0.0000 -1.0000
vn 0.0822 -0.9966 -0.0000
vn -0.1109 -0.9938 -0.0000
vn 0.0000 0.0000 1.0000
vn 0.0001 0.0000 1.0000
s off
f 2/1/1 1/2/1 3/3/1
f 4/4/2 3/3/2 5/5/2
f 6/6/3 5/5/3 7/7/3
f 8/8/4 7/7/4 9/9/4
f 10/10/5 9/9/5 11/11/5
f 12/12/6 11/11/6 13/13/6
f 14/14/7 13/13/7 15/15/7
f 16/16/8 15/15/8 17/17/8
f 18/18/9 17/17/9 19/19/9
f 20/20/10 19/19/10 21/21/10
f 22/22/11 21/21/11 23/23/11
f 24/24/12 23/23/12 25/25/12
f 26/26/13 25/25/13 27/27/13
f 28/28/14 27/27/14 29/29/14
f 30/30/15 29/29/15 31/31/15
f 32/32/16 31/31/16 33/33/16
f 34/34/17 33/33/17 35/35/17
f 36/36/18 35/35/18 37/37/18
f 38/38/19 37/37/19 39/39/19
f 40/40/20 39/39/20 41/41/20
f 42/42/21 41/41/21 43/43/21
f 44/44/22 43/43/22 45/45/22
f 46/46/23 45/45/23 47/47/23
f 48/48/24 47/47/24 49/49/24
f 50/50/25 49/49/25 51/51/25
f 52/52/26 51/51/26 53/53/26
f 54/54/27 53/53/27 55/55/27
f 56/56/28 55/55/28 57/57/28
f 58/58/29 57/57/29 59/59/29
f 60/60/30 59/59/30 61/61/30
f 54/62/31 22/63/31 38/64/31
f 62/65/32 61/61/32 63/66/32
f 64/67/33 63/66/33 1/68/33
f 15/69/34 47/70/34 31/71/34
f 2/1/1 3/3/1 4/4/1
f 4/4/2 5/5/2 6/6/2
f 6/6/3 7/7/3 8/8/3
f 8/8/4 9/9/4 10/10/4
f 10/10/5 11/11/5 12/12/5
f 12/12/6 13/13/6 14/14/6
f 14/14/7 15/15/7 16/16/7
f 16/16/8 17/17/8 18/18/8
f 18/18/9 19/19/9 20/20/9
f 20/20/10 21/21/10 22/22/10
f 22/22/11 23/23/11 24/24/11
f 24/24/12 25/25/12 26/26/12
f 26/26/13 27/27/13 28/28/13
f 28/28/14 29/29/14 30/30/14
f 30/30/15 31/31/15 32/32/15
f 32/32/16 33/33/16 34/34/16
f 34/34/17 35/35/17 36/36/17
f 36/36/18 37/37/18 38/38/18
f 38/38/19 39/39/19 40/40/19
f 40/40/20 41/41/20 42/42/20
f 42/42/21 43/43/21 44/44/21
f 44/44/22 45/45/22 46/46/22
f 46/46/23 47/47/23 48/48/23
f 48/48/24 49/49/24 50/50/24
f 50/50/25 51/51/25 52/52/25
f 52/52/26 53/53/26 54/54/26
f 54/54/27 55/55/27 56/56/27
f 56/56/28 57/57/28 58/58/28
f 58/58/29 59/59/29 60/60/29
f 60/60/30 61/61/30 62/65/30
f 6/72/31 62/73/31 4/74/31
f 4/74/31 62/73/31 2/75/31
f 2/75/31 62/73/31 64/76/31
f 62/73/31 58/77/31 60/78/31
f 58/77/31 62/73/31 56/79/31
f 56/79/31 62/73/31 54/62/31
f 54/62/31 50/80/31 52/81/31
f 50/80/31 46/82/31 48/83/31
f 46/82/31 42/84/31 44/85/31
f 42/84/31 38/64/31 40/86/31
f 38/64/31 34/87/31 36/88/31
f 34/87/31 30/89/31 32/90/31
f 30/89/31 26/91/31 28/92/31
f 26/91/31 22/63/31 24/93/31
f 22/63/31 18/94/31 20/95/31
f 18/94/31 14/96/31 16/97/31
f 14/96/31 10/98/31 12/99/31
f 10/98/31 6/72/31 8/100/31
f 54/62/31 38/64/31 50/80/31
f 50/80/31 38/64/31 46/82/31
f 46/82/31 38/64/31 42/84/31
f 38/64/31 30/89/31 34/87/31
f 30/89/31 38/64/31 26/91/31
f 26/91/31 38/64/31 22/63/31
f 22/63/31 6/72/31 18/94/31
f 18/94/31 6/72/31 14/96/31
f 14/96/31 6/72/31 10/98/31
f 6/72/31 54/62/31 62/73/31
f 6/72/31 22/63/31 54/62/31
f 62/65/32 63/66/32 64/67/32
f 64/67/33 1/68/33 2/101/33
f 63/102/34 3/103/34 1/104/34
f 3/103/34 7/105/34 5/106/34
f 7/105/34 11/107/34 9/108/34
f 11/107/34 15/69/34 13/109/34
f 15/69/34 19/110/34 17/111/34
f 19/110/34 23/112/34 21/113/34
f 23/112/34 27/114/34 25/115/34
f 27/114/34 31/71/34 29/116/34
f 31/71/34 35/117/34 33/118/34
f 35/117/34 39/119/34 37/120/34
f 39/119/34 43/121/34 41/122/34
f 43/121/35 47/70/35 45/123/35
f 47/70/34 51/124/34 49/125/34
f 51/124/34 47/70/34 53/126/34
f 53/126/34 47/70/34 55/127/34
f 55/127/34 59/128/34 57/129/34
f 59/128/34 55/127/34 61/130/34
f 61/130/34 55/127/34 63/102/34
f 63/102/34 15/69/34 3/103/34
f 3/103/34 15/69/34 7/105/34
f 7/105/34 15/69/34 11/107/34
f 15/69/34 23/112/34 19/110/34
f 23/112/34 15/69/34 27/114/34
f 27/114/34 15/69/34 31/71/34
f 31/71/34 47/70/34 35/117/34
f 35/117/34 47/70/34 39/119/34
f 39/119/34 47/70/34 43/121/34
f 47/70/34 63/102/34 55/127/34
f 63/102/34 47/70/34 15/69/34
o Circle.001_Circle.002
v 0.190169 -0.060099 0.057939
v 0.169190 -0.029322 0.057939
v 0.128535 0.001930 0.057939
v 0.079016 0.015245 0.057939
v 0.028171 0.008596 0.057939
v 0.002397 -0.004572 0.057939
v 0.083558 -0.087485 0.057939
v 0.155707 -0.143778 0.057939
v 0.178342 -0.145217 0.057939
v 0.196818 -0.110944 0.057939
vt 0.000000 0.000000
vt 0.000000 0.000000
vt 0.000000 0.000000
vt 0.000000 0.000000
vt 0.000000 0.000000
vt 0.000000 0.000000
vt 0.000000 0.000000
vt 0.000000 0.000000
vt 0.000000 0.000000
vt 0.000000 0.000000
vn 0.0000 0.0000 1.0000
s off
f 65/131/36 72/132/36 74/133/36
f 65/131/36 66/134/36 71/135/36
f 66/134/36 67/136/36 71/135/36
f 67/136/36 68/137/36 71/135/36
f 68/137/36 69/138/36 71/135/36
f 69/138/36 70/139/36 71/135/36
f 71/135/36 72/132/36 65/131/36
f 72/132/36 73/140/36 74/133/36
o Circle.002_Circle.003
v 0.114204 0.165267 0.057939
v 0.078326 0.155263 0.057939
v 0.035690 0.126774 0.057939
v 0.007201 0.084138 0.057939
v -0.002803 0.033845 0.057939
v 0.001407 0.005210 0.057939
v 0.105964 0.055503 0.057939
v 0.182417 0.105796 0.057939
v 0.191038 0.126774 0.057939
v 0.164497 0.155263 0.057939
vt 0.000000 0.000000
vt 0.000000 0.000000
vt 0.000000 0.000000
vt 0.000000 0.000000
vt 0.000000 0.000000
vt 0.000000 0.000000
vt 0.000000 0.000000
vt 0.000000 0.000000
vt 0.000000 0.000000
vt 0.000000 0.000000
vn 0.0000 0.0000 1.0000
s off
f 75/141/37 82/142/37 84/143/37
f 75/141/37 76/144/37 81/145/37
f 76/144/37 77/146/37 81/145/37
f 77/146/37 78/147/37 81/145/37
f 78/147/37 79/148/37 81/145/37
f 79/148/37 80/149/37 81/145/37
f 81/145/37 82/142/37 75/141/37
f 82/142/37 83/150/37 84/143/37
o Circle.003_Circle.004
v -0.064894 -0.172831 0.057939
v -0.033266 -0.153159 0.057939
v -0.000339 -0.113849 0.057939
v 0.015038 -0.064931 0.057939
v 0.010524 -0.013852 0.057939
v -0.001553 0.012450 0.057939
v -0.087792 -0.065167 0.057939
v -0.147057 -0.134896 0.057939
v -0.149443 -0.157450 0.057939
v -0.115973 -0.177345 0.057939
vt 0.000000 0.000000
vt 0.000000 0.000000
vt 0.000000 0.000000
vt 0.000000 0.000000
vt 0.000000 0.000000
vt 0.000000 0.000000
vt 0.000000 0.000000
vt 0.000000 0.000000
vt 0.000000 0.000000
vt 0.000000 0.000000
vn 0.0000 0.0000 1.0000
s off
f 85/151/38 92/152/38 94/153/38
f 85/151/38 86/154/38 91/155/38
f 86/154/38 87/156/38 91/155/38
f 87/156/38 88/157/38 91/155/38
f 88/157/38 89/158/38 91/155/38
f 89/158/38 90/159/38 91/155/38
f 91/155/38 92/152/38 85/151/38
f 92/152/38 93/160/38 94/153/38
o Circle.004_Circle.005
v -0.188702 0.065188 0.057939
v -0.167508 0.034558 0.057939
v -0.126637 0.003591 0.057939
v -0.077026 -0.009378 0.057939
v -0.026228 -0.002375 0.057939
v -0.000547 0.010973 0.057939
v -0.082284 0.093318 0.057939
v -0.154825 0.149105 0.057939
v -0.177469 0.150387 0.057939
v -0.195705 0.115985 0.057939
vt 0.000000 0.000000
vt 0.000000 0.000000
vt 0.000000 0.000000
vt 0.000000 0.000000
vt 0.000000 0.000000
vt 0.000000 0.000000
vt 0.000000 0.000000
vt 0.000000 0.000000
vt 0.000000 0.000000
vt 0.000000 0.000000
vn 0.0000 0.0000 1.0000
s off
f 95/161/39 102/162/39 104/163/39
f 95/161/39 96/164/39 101/165/39
f 96/164/39 97/166/39 101/165/39
f 97/166/39 98/167/39 101/165/39
f 98/167/39 99/168/39 101/165/39
f 99/168/39 100/169/39 101/165/39
f 101/165/39 102/162/39 95/161/39
f 102/162/39 103/170/39 104/163/39
