# Blender v2.93.0 OBJ File: ''
# www.blender.org
o Circle
v 0.000000 -0.000000 -2.018465
v 0.382683 -0.000000 -1.864818
v 0.707107 -0.000000 -1.427270
v 0.923879 -0.000000 -0.772433
v 1.000000 -0.000000 0.000000
v 0.923879 -0.000000 0.772433
v 0.832229 -0.000000 1.427270
v 0.686348 -0.000000 1.864818
v -0.000000 0.000000 1.909593
v -0.686348 0.000000 1.864818
v -0.832229 0.000000 1.427270
v -0.923879 0.000000 0.772433
v -1.000000 0.000000 -0.000000
v -0.923879 0.000000 -0.772433
v -0.707107 0.000000 -1.427270
v -0.382683 0.000000 -1.864818
v 0.000000 -0.000000 -2.018465
v 0.382683 -0.000000 -1.864818
v 0.707107 -0.000000 -1.427270
v 0.923879 -0.000000 -0.772433
v 1.000000 -0.000000 0.000000
v 0.923879 -0.000000 0.772433
v 0.832229 -0.000000 1.427270
v 0.686348 -0.000000 1.864818
v -0.000000 0.000000 1.909593
v -0.686348 0.000000 1.864818
v -0.832229 0.000000 1.427270
v -0.923879 0.000000 0.772433
v -1.000000 0.000000 -0.000000
v -0.923879 0.000000 -0.772433
v -0.707107 0.000000 -1.427270
v -0.382683 0.000000 -1.864818
v -0.000000 -0.381458 -1.651538
v 0.346364 -0.381459 -1.512474
v 0.639998 -0.381459 -1.216256
v 0.836197 -0.381459 -0.699770
v 0.905093 -0.381459 -0.000646
v 0.836197 -0.381459 0.698478
v 0.753245 -0.381459 1.291167
v 0.621209 -0.381459 1.687189
v -0.000000 -0.381458 1.727715
v -0.621210 -0.381458 1.687189
v -0.753245 -0.381458 1.291167
v -0.836197 -0.381458 0.698479
v -0.905093 -0.381458 -0.000646
v -0.836197 -0.381458 -0.699770
v -0.639998 -0.381458 -1.216256
v -0.346364 -0.381458 -1.512474
vt 0.000000 0.000000
vt 0.000000 0.000000
vt 0.000000 0.000000
vt 0.000000 0.000000
vt 0.000000 0.000000
vt 0.000000 0.000000
vt 0.000000 0.000000
vt 0.000000 0.000000
vt 0.000000 0.000000
vt 0.000000 0.000000
vt 0.000000 0.000000
vt 0.000000 0.000000
vt 0.000000 0.000000
vt 0.000000 0.000000
vt 0.000000 0.000000
vt 0.000000 0.000000
vt 0.000000 0.000000
vt 0.000000 0.000000
vt 0.000000 0.000000
vt 0.000000 0.000000
vt 0.000000 0.000000
vt 0.000000 0.000000
vt 0.000000 0.000000
vt 0.000000 0.000000
vt 0.000000 0.000000
vt 0.000000 0.000000
vt 0.000000 0.000000
vt 0.000000 0.000000
vt 0.000000 0.000000
vt 0.000000 0.000000
vt 0.000000 0.000000
vt 0.000000 0.000000
vt 0.000000 0.000000
vt 0.000000 0.000000
vt 0.000000 0.000000
vt 0.000000 0.000000
vt 0.000000 0.000000
vt 0.000000 0.000000
vt 0.000000 0.000000
vt 0.000000 0.000000
vt 0.000000 0.000000
vt 0.000000 0.000000
vt 0.000000 0.000000
vt 0.000000 0.000000
vt 0.000000 0.000000
vt 0.000000 0.000000
vt 0.000000 0.000000
vt 0.000000 0.000000
vn 0.0000 1.0000 0.0000
vn -0.9660 -0.2405 0.0952
vn 0.0000 0.0000 1.0000
vn 0.9660 -0.2405 0.0952
vn -0.9660 -0.2402 -0.0952
vn 0.9597 -0.2467 0.1343
vn -0.8996 -0.2719 -0.3417
vn 0.9063 -0.2955 0.3022
vn -0.6315 -0.4574 -0.6260
vn 0.0588 -0.4296 0.9011
vn 0.2780 -0.6659 -0.6923
vn -0.2780 -0.6659 -0.6923
vn -0.0588 -0.4296 0.9011
vn 0.6807 -0.5310 -0.5047
vn -0.9063 -0.2955 0.3022
vn 0.8986 -0.3226 -0.2975
vn -0.9598 -0.2467 0.1343
vn 0.9660 -0.2402 -0.0952
vn 0.9598 -0.2467 0.1343
vn -0.8986 -0.3226 -0.2975
vn -0.6807 -0.5310 -0.5047
vn 0.6315 -0.4574 -0.6260
vn 0.8996 -0.2719 -0.3417
s off
f 3/1/1 15/2/1 9/3/1
f 29/4/2 44/5/2 28/6/2
f 6/7/3 23/8/3 22/9/3
f 14/10/3 31/11/3 30/12/3
f 7/13/3 24/14/3 23/8/3
f 15/2/3 32/15/3 31/11/3
f 8/16/3 25/17/3 24/14/3
f 1/18/3 18/19/3 17/20/3
f 16/21/3 17/20/3 32/15/3
f 9/3/3 26/22/3 25/17/3
f 2/23/3 19/24/3 18/19/3
f 10/25/3 27/26/3 26/22/3
f 3/1/3 20/27/3 19/24/3
f 11/28/3 28/6/3 27/26/3
f 4/29/3 21/30/3 20/27/3
f 12/31/3 29/4/3 28/6/3
f 5/32/3 22/9/3 21/30/3
f 13/33/3 30/12/3 29/4/3
f 21/30/4 38/34/4 37/35/4
f 29/4/5 46/36/5 45/37/5
f 22/9/6 39/38/6 38/34/6
f 30/12/7 47/39/7 46/36/7
f 23/8/8 40/40/8 39/38/8
f 31/11/9 48/41/9 47/39/9
f 25/17/10 40/40/10 24/14/10
f 18/19/11 33/42/11 17/20/11
f 32/15/12 33/42/12 48/41/12
f 25/17/13 42/43/13 41/44/13
f 19/24/14 34/45/14 18/19/14
f 27/26/15 42/43/15 26/22/15
f 20/27/16 35/46/16 19/24/16
f 28/6/17 43/47/17 27/26/17
f 21/30/18 36/48/18 20/27/18
f 3/1/1 2/23/1 15/2/1
f 2/23/1 1/18/1 16/21/1
f 15/2/1 2/23/1 16/21/1
f 15/2/1 14/10/1 9/3/1
f 14/10/1 13/33/1 9/3/1
f 13/33/1 12/31/1 9/3/1
f 12/31/1 11/28/1 9/3/1
f 11/28/1 10/25/1 9/3/1
f 9/3/1 8/16/1 7/13/1
f 7/13/1 6/7/1 9/3/1
f 6/7/1 5/32/1 9/3/1
f 5/32/1 4/29/1 9/3/1
f 4/29/1 3/1/1 9/3/1
f 29/4/2 45/37/2 44/5/2
f 6/7/3 7/13/3 23/8/3
f 14/10/3 15/2/3 31/11/3
f 7/13/3 8/16/3 24/14/3
f 15/2/3 16/21/3 32/15/3
f 8/16/3 9/3/3 25/17/3
f 1/18/3 2/23/3 18/19/3
f 16/21/3 1/18/3 17/20/3
f 9/3/3 10/25/3 26/22/3
f 2/23/3 3/1/3 19/24/3
f 10/25/3 11/28/3 27/26/3
f 3/1/3 4/29/3 20/27/3
f 11/28/3 12/31/3 28/6/3
f 4/29/3 5/32/3 21/30/3
f 12/31/3 13/33/3 29/4/3
f 5/32/3 6/7/3 22/9/3
f 13/33/3 14/10/3 30/12/3
f 21/30/4 22/9/4 38/34/4
f 29/4/5 30/12/5 46/36/5
f 22/9/19 23/8/19 39/38/19
f 30/12/20 31/11/20 47/39/20
f 23/8/8 24/14/8 40/40/8
f 31/11/21 32/15/21 48/41/21
f 25/17/10 41/44/10 40/40/10
f 18/19/11 34/45/11 33/42/11
f 32/15/12 17/20/12 33/42/12
f 25/17/13 26/22/13 42/43/13
f 19/24/22 35/46/22 34/45/22
f 27/26/15 43/47/15 42/43/15
f 20/27/23 36/48/23 35/46/23
f 28/6/17 44/5/17 43/47/17
f 21/30/18 37/35/18 36/48/18
