# Blender v2.93.0 OBJ File: ''
# www.blender.org
o Circle.005_Circle.006
v 0.000000 0.639863 -0.109786
v -0.042013 0.639863 -0.101429
v -0.077630 0.639863 -0.077630
v -0.101429 0.639863 -0.042013
v -0.109786 0.639863 0.000000
v -0.101429 0.639863 0.042013
v -0.077630 0.639863 0.077630
v -0.042013 0.639863 0.101429
v 0.000000 0.639863 0.109786
v 0.042013 0.639863 0.101429
v 0.077630 0.639863 0.077630
v 0.101429 0.639863 0.042013
v 0.109786 0.639863 -0.000000
v 0.101429 0.639863 -0.042013
v 0.077630 0.639863 -0.077630
v 0.042013 0.639863 -0.101429
v -0.002576 0.743831 -0.091359
v -0.038084 0.743831 -0.084296
v -0.068186 0.743831 -0.064183
v -0.088299 0.743831 -0.034081
v -0.095362 0.743831 0.001427
v -0.088299 0.743831 0.036934
v -0.068186 0.743831 0.067036
v -0.038084 0.743831 0.087150
v -0.002576 0.743831 0.094213
v 0.032932 0.743831 0.087150
v 0.063034 0.743831 0.067036
v 0.083147 0.743831 0.036934
v 0.090210 0.743831 0.001427
v 0.083147 0.743831 -0.034081
v 0.063034 0.743831 -0.064183
v 0.032932 0.743831 -0.084296
vt 0.000000 0.000000
vt 0.000000 0.000000
vt 0.000000 0.000000
vt 0.000000 0.000000
vt 0.000000 0.000000
vt 0.000000 0.000000
vt 0.000000 0.000000
vt 0.000000 0.000000
vt 0.000000 0.000000
vt 0.000000 0.000000
vt 0.000000 0.000000
vt 0.000000 0.000000
vt 0.000000 0.000000
vt 0.000000 0.000000
vt 0.000000 0.000000
vt 0.000000 0.000000
vt 0.000000 0.000000
vt 0.000000 0.000000
vt 0.000000 0.000000
vt 0.000000 0.000000
vt 0.000000 0.000000
vt 0.000000 0.000000
vt 0.000000 0.000000
vt 0.000000 0.000000
vt 0.000000 0.000000
vt 0.000000 0.000000
vt 0.000000 0.000000
vt 0.000000 0.000000
vt 0.000000 0.000000
vt 0.000000 0.000000
vt 0.000000 0.000000
vt 0.000000 0.000000
vn 0.9715 -0.1374 0.1932
vn -0.9649 -0.1791 -0.1919
vn 0.9722 -0.1322 -0.1934
vn -0.9640 -0.1841 0.1918
vn 0.8243 -0.1310 -0.5508
vn -0.8171 -0.1853 0.5459
vn 0.5506 -0.1340 -0.8240
vn -0.5462 -0.1824 0.8175
vn 0.1932 -0.1407 -0.9710
vn 0.1924 -0.1666 0.9671
vn -0.1920 -0.1759 0.9655
vn -0.1929 -0.1500 -0.9697
vn 0.5488 -0.1561 0.8213
vn -0.5484 -0.1606 -0.8207
vn 0.8226 -0.1458 0.5496
vn -0.8193 -0.1708 -0.5474
vn 0.0000 -1.0000 0.0000
s off
f 5/1/1 20/2/1 21/3/1
f 12/4/2 29/5/2 13/6/2
f 6/7/3 21/3/3 22/8/3
f 13/6/4 30/9/4 14/10/4
f 6/7/5 23/11/5 7/12/5
f 15/13/6 30/9/6 31/14/6
f 7/12/7 24/15/7 8/16/7
f 16/17/8 31/14/8 32/18/8
f 8/16/9 25/19/9 9/20/9
f 2/21/10 17/22/10 18/23/10
f 1/24/11 32/18/11 17/22/11
f 9/20/12 26/25/12 10/26/12
f 3/27/13 18/23/13 19/28/13
f 10/26/14 27/29/14 11/30/14
f 4/31/15 19/28/15 20/2/15
f 11/30/16 28/32/16 12/4/16
f 21/3/17 19/28/17 27/29/17
f 5/1/1 4/31/1 20/2/1
f 12/4/2 28/32/2 29/5/2
f 6/7/3 5/1/3 21/3/3
f 13/6/4 29/5/4 30/9/4
f 6/7/5 22/8/5 23/11/5
f 15/13/6 14/10/6 30/9/6
f 7/12/7 23/11/7 24/15/7
f 16/17/8 15/13/8 31/14/8
f 8/16/9 24/15/9 25/19/9
f 2/21/10 1/24/10 17/22/10
f 1/24/11 16/17/11 32/18/11
f 9/20/12 25/19/12 26/25/12
f 3/27/13 2/21/13 18/23/13
f 10/26/14 26/25/14 27/29/14
f 4/31/15 3/27/15 19/28/15
f 11/30/16 27/29/16 28/32/16
f 19/28/17 18/23/17 17/22/17
f 17/22/17 32/18/17 31/14/17
f 31/14/17 30/9/17 29/5/17
f 29/5/17 28/32/17 27/29/17
f 27/29/17 26/25/17 25/19/17
f 25/19/17 24/15/17 23/11/17
f 23/11/17 22/8/17 21/3/17
f 21/3/17 20/2/17 19/28/17
f 19/28/17 17/22/17 31/14/17
f 31/14/17 29/5/17 19/28/17
f 29/5/17 27/29/17 19/28/17
f 27/29/17 25/19/17 23/11/17
f 23/11/17 21/3/17 27/29/17
o Circle.006_Circle.007
v 0.000000 0.745824 -0.062232
v -0.025569 0.745824 -0.057146
v -0.047246 0.745824 -0.042662
v -0.061729 0.745824 -0.020986
v -0.066815 0.745824 0.004584
v -0.061729 0.745824 0.030153
v -0.047246 0.745824 0.051829
v -0.025569 0.745824 0.066313
v 0.000000 0.745824 0.071399
v 0.025569 0.745824 0.066313
v 0.047246 0.745824 0.051829
v 0.061729 0.745824 0.030153
v 0.066815 0.745824 0.004584
v 0.061729 0.745824 -0.020986
v 0.047246 0.745824 -0.042662
v 0.025569 0.745824 -0.057146
v 0.000000 0.825892 -0.062232
v -0.025569 0.825892 -0.057146
v -0.047246 0.825892 -0.042662
v -0.061729 0.825892 -0.020986
v -0.066815 0.825892 0.004584
v -0.061729 0.825892 0.030153
v -0.047246 0.825892 0.051829
v -0.025569 0.825892 0.066313
v 0.000000 0.825892 0.071399
v 0.025569 0.825892 0.066313
v 0.047246 0.825892 0.051829
v 0.061729 0.825892 0.030153
v 0.066815 0.825892 0.004584
v 0.061729 0.825892 -0.020986
v 0.047246 0.825892 -0.042662
v 0.025569 0.825892 -0.057146
vt 0.000000 0.000000
vt 0.000000 0.000000
vt 0.000000 0.000000
vt 0.000000 0.000000
vt 0.000000 0.000000
vt 0.000000 0.000000
vt 0.000000 0.000000
vt 0.000000 0.000000
vt 0.000000 0.000000
vt 0.000000 0.000000
vt 0.000000 0.000000
vt 0.000000 0.000000
vt 0.000000 0.000000
vt 0.000000 0.000000
vt 0.000000 0.000000
vt 0.000000 0.000000
vt 0.000000 0.000000
vt 0.000000 0.000000
vt 0.000000 0.000000
vt 0.000000 0.000000
vt 0.000000 0.000000
vt 0.000000 0.000000
vt 0.000000 0.000000
vt 0.000000 0.000000
vt 0.000000 0.000000
vt 0.000000 0.000000
vt 0.000000 0.000000
vt 0.000000 0.000000
vt 0.000000 0.000000
vt 0.000000 0.000000
vt 0.000000 0.000000
vt 0.000000 0.000000
vn 0.0000 -1.0000 -0.0000
vn 0.0000 1.0000 0.0000
vn -0.5556 0.0000 -0.8315
vn 0.5556 0.0000 0.8315
vn -0.8315 0.0000 -0.5556
vn 0.8315 0.0000 0.5556
vn -0.9808 0.0000 -0.1951
vn 0.9808 0.0000 0.1951
vn -0.9808 0.0000 0.1951
vn 0.9808 0.0000 -0.1951
vn -0.8315 0.0000 0.5556
vn 0.8315 0.0000 -0.5556
vn -0.5556 0.0000 0.8315
vn 0.5556 0.0000 -0.8315
vn -0.1951 0.0000 0.9808
vn -0.1951 0.0000 -0.9808
vn 0.1951 0.0000 -0.9808
vn 0.1951 0.0000 0.9808
s off
f 35/33/18 47/34/18 43/35/18
f 49/36/19 53/37/19 57/38/19
f 35/33/20 50/39/20 34/40/20
f 43/35/21 58/41/21 42/42/21
f 36/43/22 51/44/22 35/33/22
f 44/45/23 59/46/23 43/35/23
f 37/47/24 52/48/24 36/43/24
f 45/49/25 60/50/25 44/45/25
f 38/51/26 53/37/26 37/47/26
f 46/52/27 61/53/27 45/49/27
f 39/54/28 54/55/28 38/51/28
f 47/34/29 62/56/29 46/52/29
f 40/57/30 55/58/30 39/54/30
f 48/59/31 63/60/31 47/34/31
f 41/61/32 56/62/32 40/57/32
f 34/40/33 49/36/33 33/63/33
f 33/63/34 64/64/34 48/59/34
f 42/42/35 57/38/35 41/61/35
f 35/33/18 34/40/18 33/63/18
f 33/63/18 48/59/18 47/34/18
f 47/34/18 46/52/18 43/35/18
f 46/52/18 45/49/18 43/35/18
f 45/49/18 44/45/18 43/35/18
f 43/35/18 42/42/18 41/61/18
f 41/61/18 40/57/18 39/54/18
f 39/54/18 38/51/18 37/47/18
f 37/47/18 36/43/18 39/54/18
f 36/43/18 35/33/18 39/54/18
f 35/33/18 33/63/18 47/34/18
f 43/35/18 41/61/18 35/33/18
f 41/61/18 39/54/18 35/33/18
f 49/36/19 50/39/19 51/44/19
f 51/44/19 52/48/19 53/37/19
f 53/37/19 54/55/19 55/58/19
f 55/58/19 56/62/19 53/37/19
f 56/62/19 57/38/19 53/37/19
f 57/38/19 58/41/19 61/53/19
f 58/41/19 59/46/19 61/53/19
f 59/46/19 60/50/19 61/53/19
f 61/53/19 62/56/19 63/60/19
f 63/60/19 64/64/19 49/36/19
f 49/36/19 51/44/19 53/37/19
f 61/53/19 63/60/19 57/38/19
f 63/60/19 49/36/19 57/38/19
f 35/33/20 51/44/20 50/39/20
f 43/35/21 59/46/21 58/41/21
f 36/43/22 52/48/22 51/44/22
f 44/45/23 60/50/23 59/46/23
f 37/47/24 53/37/24 52/48/24
f 45/49/25 61/53/25 60/50/25
f 38/51/26 54/55/26 53/37/26
f 46/52/27 62/56/27 61/53/27
f 39/54/28 55/58/28 54/55/28
f 47/34/29 63/60/29 62/56/29
f 40/57/30 56/62/30 55/58/30
f 48/59/31 64/64/31 63/60/31
f 41/61/32 57/38/32 56/62/32
f 34/40/33 50/39/33 49/36/33
f 33/63/34 49/36/34 64/64/34
f 42/42/35 58/41/35 57/38/35
