# Blender v2.92.0 OBJ File: 'RealSpongebob.blend'
# www.blender.org
o rocks3_Icosphere.003
v -0.000568 -0.071611 0.001075
v 0.080636 -0.042464 0.077365
v -0.029728 -0.039941 0.108994
v -0.116512 -0.045805 0.000898
v -0.024821 -0.045537 -0.107237
v 0.088138 -0.039059 -0.061524
v 0.018462 0.053783 0.099869
v -0.058081 0.065984 0.066406
v -0.093789 0.002986 -0.066725
v 0.037391 0.023948 -0.105271
v 0.072342 0.033740 0.028531
v 0.008489 0.085980 0.010486
v -0.014698 -0.061936 0.053860
v 0.037444 -0.068494 0.037407
v 0.025250 -0.045827 0.096332
v 0.097729 -0.054283 0.007989
v 0.042933 -0.051053 -0.029716
v -0.051869 -0.063210 0.001225
v -0.075938 -0.050897 0.061029
v -0.010748 -0.065337 -0.046890
v -0.074830 -0.061252 -0.057662
v 0.033753 -0.042026 -0.080808
v 0.074802 -0.001134 0.050884
v 0.092166 0.002717 -0.017729
v -0.002304 0.011709 0.092668
v 0.044363 0.011279 0.086698
v -0.086134 0.017145 0.035830
v -0.042314 0.016067 0.083552
v -0.063884 -0.019101 -0.093443
v -0.108975 -0.019831 -0.034834
v 0.065785 -0.009619 -0.082587
v 0.004709 -0.008004 -0.114820
v 0.044803 0.045210 0.067771
v -0.018942 0.062089 0.085872
v -0.070788 0.034963 0.008489
v -0.030734 0.021102 -0.088411
v 0.065554 0.035592 -0.036017
v 0.014658 0.071556 0.060146
v 0.042027 0.060453 0.019708
v -0.026453 0.075867 0.040002
v -0.038720 0.050682 -0.026892
v 0.021930 0.058083 -0.044444
vt 0.353406 0.131243
vt 0.351002 0.071665
vt 0.406193 0.098738
vt 0.347168 0.003496
vt 0.278987 0.047317
vt 0.395141 0.170786
vt 0.324084 0.177802
vt 0.293924 0.120741
vt 0.642457 0.067725
vt 0.642457 0.148796
vt 0.590315 0.087541
vt 0.572077 0.741700
vt 0.603982 0.714194
vt 0.603982 0.786194
vt 0.891751 0.496041
vt 0.891751 0.577104
vt 0.817068 0.542695
vt 0.276120 0.765833
vt 0.303729 0.840871
vt 0.247461 0.811252
vt 0.684441 0.719437
vt 0.684441 0.784842
vt 0.647447 0.749518
vt 0.576948 0.035776
vt 0.873628 0.651311
vt 0.813681 0.655053
vt 0.812693 0.615886
vt 0.863118 0.470688
vt 0.683375 0.857458
vt 0.658866 0.892228
vt 0.639366 0.826706
vt 0.605637 0.215280
vt 0.562277 0.224030
vt 0.574085 0.165905
vt 0.527488 0.005643
vt 0.536487 0.051312
vt 0.497407 0.043167
vt 0.523709 0.478664
vt 0.560250 0.471023
vt 0.561067 0.507342
vt 0.458024 0.632699
vt 0.496052 0.548189
vt 0.537128 0.582854
vt 0.600794 0.691970
vt 0.530953 0.660234
vt 0.601925 0.611150
vt 0.547083 0.105307
vt 0.526494 0.169523
vt 0.507257 0.098294
vt 0.487082 0.157039
vt 0.467576 0.090493
vt 0.512276 0.231393
vt 0.601925 0.539771
vt 0.599341 0.499724
vt 0.503527 0.003420
vt 0.551605 0.709537
vt 0.476852 0.677411
vt 0.430135 0.609163
vt 0.470738 0.526564
vt 0.758790 0.632068
vt 0.758603 0.585229
vt 0.764281 0.673498
vt 0.605683 0.786404
vt 0.263801 0.893337
vt 0.229953 0.860007
vt 0.303729 0.923693
vt 0.810176 0.686858
vt 0.875740 0.684687
vt 0.633645 0.025065
vt 0.261332 0.168868
vt 0.232285 0.110319
vt 0.288186 0.236551
vt 0.367650 0.236551
vt 0.447306 0.220563
vt 0.461485 0.140188
vt 0.461515 0.064178
vt 0.406989 0.031752
vn -0.0730 -0.9843 0.1609
vn 0.3310 -0.9133 0.2372
vn -0.1597 -0.9777 0.1365
vn -0.1612 -0.9824 -0.0943
vn 0.3081 -0.9327 -0.1874
vn 0.9479 0.2556 0.1900
vn 0.2387 0.1752 0.9552
vn -0.8226 0.0850 0.5622
vn -0.5528 -0.4512 -0.7006
vn 0.3282 -0.3720 -0.8683
vn 0.7571 0.4248 0.4963
vn -0.1666 0.3765 0.9113
vn -0.9157 0.3913 0.0912
vn -0.3041 0.0471 -0.9515
vn 0.8436 0.3477 -0.4093
vn 0.5899 0.7566 0.2820
vn -0.0518 0.9541 0.2950
vn -0.5748 0.8015 -0.1650
vn -0.1624 0.8423 -0.5140
vn 0.6683 0.7423 -0.0490
vn 0.6285 0.7447 -0.2244
vn 0.4781 0.8593 -0.1815
vn 0.4821 0.8106 -0.3323
vn -0.2431 0.8396 -0.4859
vn -0.2344 0.8639 -0.4458
vn -0.3845 0.8115 -0.4401
vn -0.4518 0.8591 -0.2406
vn -0.5910 0.7847 -0.1871
vn -0.5127 0.7986 -0.3152
vn -0.0382 0.9583 0.2831
vn -0.0439 0.9548 0.2940
vn 0.0518 0.9134 0.4037
vn 0.5686 0.8062 0.1635
vn 0.6138 0.7620 0.2062
vn 0.6123 0.7631 0.2066
vn 0.7932 0.6054 -0.0661
vn 0.8071 0.4257 -0.4092
vn 0.8149 0.4179 -0.4016
vn -0.2290 0.4863 -0.8433
vn -0.3307 0.3808 -0.8635
vn -0.4018 0.4324 -0.8072
vn -0.8247 0.5654 0.0118
vn -0.7977 0.6005 -0.0564
vn -0.8305 0.5460 -0.1103
vn -0.4251 0.1710 0.8889
vn -0.2155 0.0603 0.9746
vn -0.3482 0.0115 0.9373
vn 0.7751 0.3001 0.5560
vn 0.7757 0.2997 0.5554
vn 0.8108 0.3553 0.4651
vn 0.4527 -0.2037 -0.8681
vn 0.4082 -0.4472 -0.7959
vn 0.3871 -0.4654 -0.7960
vn -0.7508 -0.3131 -0.5816
vn -0.7543 -0.2999 -0.5840
vn -0.7930 -0.4009 -0.4587
vn -0.7366 -0.0004 0.6764
vn -0.7278 0.1396 0.6714
vn -0.7289 0.1406 0.6701
vn 0.1216 -0.2254 0.9666
vn 0.1271 0.1235 0.9842
vn 0.3207 0.0522 0.9457
vn 0.9410 0.2272 0.2509
vn 0.9459 0.2055 0.2509
vn 0.9910 0.0389 -0.1282
vn 0.1218 -0.9734 -0.1939
vn 0.3159 -0.9230 -0.2198
vn 0.2122 -0.9128 -0.3490
vn -0.0085 -0.9507 -0.3099
vn -0.0621 -0.9980 -0.0090
vn -0.2597 -0.9632 0.0692
vn -0.2593 -0.9613 0.0935
vn -0.1602 -0.9776 0.1368
vn -0.1287 -0.9327 0.3370
vn 0.0983 -0.9692 -0.2258
vn 0.1094 -0.9642 -0.2416
vn 0.2859 -0.9329 -0.2190
vn -0.0151 -0.9301 0.3670
vn -0.0044 -0.9336 0.3582
vn 0.1871 -0.9033 0.3862
s off
f 1/1/1 14/2/1 13/3/1
f 2/4/2 14/2/2 16/5/2
f 1/1/3 13/3/3 18/6/3
f 1/1/4 18/6/4 20/7/4
f 1/1/5 20/7/5 17/8/5
f 2/9/6 16/10/6 23/11/6
f 3/12/7 15/13/7 25/14/7
f 4/15/8 19/16/8 27/17/8
f 5/18/9 21/19/9 29/20/9
f 6/21/10 22/22/10 31/23/10
f 2/9/11 23/11/11 26/24/11
f 3/25/12 25/26/12 28/27/12
f 4/15/13 27/17/13 30/28/13
f 5/29/14 29/30/14 32/31/14
f 6/32/15 31/33/15 24/34/15
f 7/35/16 33/36/16 38/37/16
f 8/38/17 34/39/17 40/40/17
f 9/41/18 35/42/18 41/43/18
f 10/44/19 36/45/19 42/46/19
f 11/47/20 37/48/20 39/49/20
f 39/49/21 42/50/21 12/51/21
f 39/49/22 37/48/22 42/50/22
f 37/48/23 10/52/23 42/50/23
f 42/46/24 41/43/24 12/53/24
f 42/46/25 36/45/25 41/43/25
f 36/45/26 9/41/26 41/43/26
f 41/43/27 40/40/27 12/53/27
f 41/43/28 35/42/28 40/40/28
f 35/42/29 8/38/29 40/40/29
f 40/40/30 38/54/30 12/53/30
f 40/40/31 34/39/31 38/54/31
f 34/55/32 7/35/32 38/37/32
f 38/37/33 39/49/33 12/51/33
f 38/37/34 33/36/34 39/49/34
f 33/36/35 11/47/35 39/49/35
f 24/34/36 37/48/36 11/47/36
f 24/34/37 31/33/37 37/48/37
f 31/33/38 10/52/38 37/48/38
f 32/56/39 36/45/39 10/44/39
f 32/56/40 29/57/40 36/45/40
f 29/57/41 9/41/41 36/45/41
f 30/58/42 35/42/42 9/41/42
f 30/58/43 27/59/43 35/42/43
f 27/59/44 8/38/44 35/42/44
f 28/27/45 34/60/45 8/61/45
f 28/27/46 25/26/46 34/60/46
f 25/26/47 7/62/47 34/60/47
f 26/24/48 33/36/48 7/35/48
f 26/24/49 23/11/49 33/36/49
f 23/11/50 11/47/50 33/36/50
f 31/23/51 32/31/51 10/63/51
f 31/23/52 22/22/52 32/31/52
f 22/22/53 5/29/53 32/31/53
f 29/20/54 30/64/54 9/65/54
f 29/20/55 21/19/55 30/64/55
f 21/19/56 4/66/56 30/64/56
f 27/17/57 28/27/57 8/61/57
f 27/17/58 19/16/58 28/27/58
f 19/16/59 3/25/59 28/27/59
f 25/26/60 26/67/60 7/62/60
f 25/26/61 15/68/61 26/67/61
f 15/69/62 2/9/62 26/24/62
f 23/11/63 24/34/63 11/47/63
f 23/11/64 16/10/64 24/34/64
f 16/10/65 6/32/65 24/34/65
f 17/8/66 22/70/66 6/71/66
f 17/8/67 20/7/67 22/70/67
f 20/7/68 5/72/68 22/70/68
f 20/7/69 21/73/69 5/72/69
f 20/7/70 18/6/70 21/73/70
f 18/6/71 4/74/71 21/73/71
f 18/6/72 19/75/72 4/74/72
f 18/6/73 13/3/73 19/75/73
f 13/3/74 3/76/74 19/75/74
f 16/5/75 17/8/75 6/71/75
f 16/5/76 14/2/76 17/8/76
f 14/2/77 1/1/77 17/8/77
f 13/3/78 15/77/78 3/76/78
f 13/3/79 14/2/79 15/77/79
f 14/2/80 2/4/80 15/77/80
