# Blender v2.93.0 OBJ File: 'rumahsquidward1.blend'
# www.blender.org
o instance_4.002_ID73
v 0.446293 0.666244 0.627313
v 0.351488 0.666244 0.627313
v 0.398890 0.660004 0.627313
v 0.490465 0.684541 0.627313
v 0.307316 0.684541 0.627313
v 0.528397 0.713647 0.627313
v 0.269384 0.713647 0.627313
v 0.240278 0.751578 0.627313
v 0.557503 0.751578 0.627313
v 0.575799 0.795751 0.627313
v 0.221982 0.795751 0.627313
v 0.215741 0.843153 0.627313
v 0.582040 0.843153 0.627313
v 0.575799 0.890556 0.627313
v 0.221982 0.890556 0.627313
v 0.240278 0.934728 0.627313
v 0.557503 0.934728 0.627313
v 0.528397 0.972660 0.627313
v 0.269384 0.972660 0.627313
v 0.307316 1.001765 0.627313
v 0.490465 1.001765 0.627313
v 0.446293 1.020062 0.627313
v 0.351488 1.020062 0.627313
v 0.398890 1.026303 0.627313
v 0.398890 1.026303 0.627313
v 0.446293 1.020062 0.627313
v 0.351488 1.020062 0.627313
v 0.307316 1.001765 0.627313
v 0.490465 1.001765 0.627313
v 0.528397 0.972660 0.627313
v 0.269384 0.972660 0.627313
v 0.240278 0.934728 0.627313
v 0.557503 0.934728 0.627313
v 0.575799 0.890556 0.627313
v 0.221982 0.890556 0.627313
v 0.215741 0.843153 0.627313
v 0.582040 0.843153 0.627313
v 0.575799 0.795751 0.627313
v 0.221982 0.795751 0.627313
v 0.240278 0.751578 0.627313
v 0.557503 0.751578 0.627313
v 0.528397 0.713647 0.627313
v 0.269384 0.713647 0.627313
v 0.307316 0.684541 0.627313
v 0.490465 0.684541 0.627313
v 0.351488 0.666244 0.627313
v 0.446293 0.666244 0.627313
v 0.398890 0.660004 0.627313
v 0.307316 0.684541 0.627313
v 0.351488 0.666244 0.627313
v 0.398890 0.660004 0.627313
v 0.446293 0.666244 0.627313
v 0.490465 0.684541 0.627313
v 0.528397 0.713647 0.627313
v 0.557503 0.751578 0.627313
v 0.575799 0.795751 0.627313
v 0.582040 0.843153 0.627313
v 0.575799 0.890556 0.627313
v 0.557503 0.934728 0.627313
v 0.528397 0.972660 0.627313
v 0.490465 1.001765 0.627313
v 0.446293 1.020062 0.627313
v 0.398890 1.026303 0.627313
v 0.351488 1.020062 0.627313
v 0.307316 1.001765 0.627313
v 0.269384 0.972660 0.627313
v 0.240278 0.934728 0.627313
v 0.221982 0.890556 0.627313
v 0.215741 0.843153 0.627313
v 0.221982 0.795751 0.627313
v 0.240278 0.751578 0.627313
v 0.269384 0.713647 0.627313
vt 3.461106 3.757138
vt 3.157734 3.630666
vt 3.317745 3.673932
vt 3.578046 3.874612
vt 2.991977 3.630288
vt 3.660598 4.018351
vt 2.831771 3.672824
vt 2.688033 3.755376
vt 3.703134 4.178557
vt 3.702756 4.344314
vt 2.570558 3.872316
vt 2.487352 4.015677
vt 3.659490 4.504325
vt 3.576284 4.647686
vt 2.444086 4.175688
vt 2.443709 4.341445
vt 3.458810 4.764626
vt 3.315071 4.847177
vt 2.486245 4.501651
vt 2.568796 4.645390
vt 3.154865 4.889714
vt 2.989108 4.889336
vt 2.685736 4.762864
vt 2.829097 4.846070
vt 4.133858 7.171212
vt 4.919983 7.067716
vt 3.347733 7.067716
vt 2.615182 6.764284
vt 5.652535 6.764284
vt 6.281592 6.281592
vt 1.986125 6.281592
vt 1.503433 5.652535
vt 6.764284 5.652535
vt 7.067716 4.919983
vt 1.200000 4.919983
vt 1.096505 4.133858
vt 7.171212 4.133858
vt 7.067716 3.347733
vt 1.200000 3.347733
vt 1.503433 2.615182
vt 6.764284 2.615182
vt 6.281592 1.986125
vt 1.986125 1.986125
vt 2.615182 1.503433
vt 5.652535 1.503433
vt 3.347733 1.200000
vt 4.919983 1.200000
vt 4.133858 1.096505
vn 0.0000 0.0000 1.0000
vn 0.0000 0.0000 -1.0000
s off
f 1/1/1 2/2/1 3/3/1
f 2/2/1 1/1/1 4/4/1
f 2/2/1 4/4/1 5/5/1
f 5/5/1 4/4/1 6/6/1
f 5/5/1 6/6/1 7/7/1
f 7/7/1 6/6/1 8/8/1
f 8/8/1 6/6/1 9/9/1
f 8/8/1 9/9/1 10/10/1
f 8/8/1 10/10/1 11/11/1
f 11/11/1 10/10/1 12/12/1
f 12/12/1 10/10/1 13/13/1
f 12/12/1 13/13/1 14/14/1
f 12/12/1 14/14/1 15/15/1
f 15/15/1 14/14/1 16/16/1
f 16/16/1 14/14/1 17/17/1
f 16/16/1 17/17/1 18/18/1
f 16/16/1 18/18/1 19/19/1
f 19/19/1 18/18/1 20/20/1
f 20/20/1 18/18/1 21/21/1
f 20/20/1 21/21/1 22/22/1
f 20/20/1 22/22/1 23/23/1
f 23/23/1 22/22/1 24/24/1
f 25/25/2 26/26/2 27/27/2
f 27/27/2 26/26/2 28/28/2
f 26/26/2 29/29/2 28/28/2
f 29/29/2 30/30/2 28/28/2
f 28/28/2 30/30/2 31/31/2
f 31/31/2 30/30/2 32/32/2
f 30/30/2 33/33/2 32/32/2
f 33/33/2 34/34/2 32/32/2
f 32/32/2 34/34/2 35/35/2
f 35/35/2 34/34/2 36/36/2
f 34/34/2 37/37/2 36/36/2
f 37/37/2 38/38/2 36/36/2
f 36/36/2 38/38/2 39/39/2
f 39/39/2 38/38/2 40/40/2
f 38/38/2 41/41/2 40/40/2
f 41/41/2 42/42/2 40/40/2
f 40/40/2 42/42/2 43/43/2
f 43/43/2 42/42/2 44/44/2
f 42/42/2 45/45/2 44/44/2
f 44/44/2 45/45/2 46/46/2
f 45/45/2 47/47/2 46/46/2
f 48/48/2 46/46/2 47/47/2
l 49 50
l 50 51
l 51 52
l 52 53
l 53 54
l 54 55
l 55 56
l 56 57
l 57 58
l 58 59
l 59 60
l 60 61
l 61 62
l 62 63
l 63 64
l 64 65
l 65 66
l 66 67
l 67 68
l 68 69
l 69 70
l 70 71
l 71 72
l 72 49
o instance_5.002_ID73
v -0.284403 0.666244 0.627313
v -0.379208 0.666244 0.627313
v -0.331805 0.660004 0.627313
v -0.240230 0.684541 0.627313
v -0.423380 0.684541 0.627313
v -0.202299 0.713647 0.627313
v -0.461312 0.713647 0.627313
v -0.490417 0.751578 0.627313
v -0.173193 0.751578 0.627313
v -0.154896 0.795751 0.627313
v -0.508714 0.795751 0.627313
v -0.514955 0.843153 0.627313
v -0.148656 0.843153 0.627313
v -0.154896 0.890556 0.627313
v -0.508714 0.890556 0.627313
v -0.490417 0.934728 0.627313
v -0.173193 0.934728 0.627313
v -0.202299 0.972660 0.627313
v -0.461312 0.972660 0.627313
v -0.423380 1.001765 0.627313
v -0.240230 1.001765 0.627313
v -0.284403 1.020062 0.627313
v -0.379208 1.020062 0.627313
v -0.331805 1.026303 0.627313
v -0.331805 1.026303 0.627313
v -0.284403 1.020062 0.627313
v -0.379208 1.020062 0.627313
v -0.423380 1.001765 0.627313
v -0.240230 1.001765 0.627313
v -0.202299 0.972660 0.627313
v -0.461312 0.972660 0.627313
v -0.490417 0.934728 0.627313
v -0.173193 0.934728 0.627313
v -0.154896 0.890556 0.627313
v -0.508714 0.890556 0.627313
v -0.514955 0.843153 0.627313
v -0.148656 0.843153 0.627313
v -0.154896 0.795751 0.627313
v -0.508714 0.795751 0.627313
v -0.490417 0.751578 0.627313
v -0.173193 0.751578 0.627313
v -0.202299 0.713647 0.627313
v -0.461312 0.713647 0.627313
v -0.423380 0.684541 0.627313
v -0.240230 0.684541 0.627313
v -0.379208 0.666244 0.627313
v -0.284403 0.666244 0.627313
v -0.331805 0.660004 0.627313
v -0.423380 0.684541 0.627313
v -0.379208 0.666244 0.627313
v -0.331805 0.660004 0.627313
v -0.284403 0.666244 0.627313
v -0.240230 0.684541 0.627313
v -0.202299 0.713647 0.627313
v -0.173193 0.751578 0.627313
v -0.154896 0.795751 0.627313
v -0.148656 0.843153 0.627313
v -0.154896 0.890556 0.627313
v -0.173193 0.934728 0.627313
v -0.202299 0.972660 0.627313
v -0.240230 1.001765 0.627313
v -0.284403 1.020062 0.627313
v -0.331805 1.026303 0.627313
v -0.379208 1.020062 0.627313
v -0.423380 1.001765 0.627313
v -0.461312 0.972660 0.627313
v -0.490417 0.934728 0.627313
v -0.508714 0.890556 0.627313
v -0.514955 0.843153 0.627313
v -0.508714 0.795751 0.627313
v -0.490417 0.751578 0.627313
v -0.461312 0.713647 0.627313
vt 3.461106 3.757138
vt 3.157734 3.630666
vt 3.317745 3.673932
vt 3.578046 3.874612
vt 2.991977 3.630288
vt 3.660598 4.018351
vt 2.831771 3.672824
vt 2.688033 3.755376
vt 3.703134 4.178557
vt 3.702756 4.344314
vt 2.570558 3.872316
vt 2.487352 4.015677
vt 3.659490 4.504325
vt 3.576284 4.647686
vt 2.444086 4.175688
vt 2.443709 4.341445
vt 3.458810 4.764626
vt 3.315071 4.847177
vt 2.486245 4.501651
vt 2.568796 4.645390
vt 3.154865 4.889714
vt 2.989108 4.889336
vt 2.685736 4.762864
vt 2.829097 4.846070
vt 4.133858 7.171212
vt 4.919983 7.067716
vt 3.347733 7.067716
vt 2.615182 6.764284
vt 5.652535 6.764284
vt 6.281592 6.281592
vt 1.986125 6.281592
vt 1.503433 5.652535
vt 6.764284 5.652535
vt 7.067716 4.919983
vt 1.200000 4.919983
vt 1.096505 4.133858
vt 7.171212 4.133858
vt 7.067716 3.347733
vt 1.200000 3.347733
vt 1.503433 2.615182
vt 6.764284 2.615182
vt 6.281592 1.986125
vt 1.986125 1.986125
vt 2.615182 1.503433
vt 5.652535 1.503433
vt 3.347733 1.200000
vt 4.919983 1.200000
vt 4.133858 1.096505
vn 0.0000 0.0000 1.0000
vn 0.0000 0.0000 -1.0000
s off
f 73/49/3 74/50/3 75/51/3
f 74/50/3 73/49/3 76/52/3
f 74/50/3 76/52/3 77/53/3
f 77/53/3 76/52/3 78/54/3
f 77/53/3 78/54/3 79/55/3
f 79/55/3 78/54/3 80/56/3
f 80/56/3 78/54/3 81/57/3
f 80/56/3 81/57/3 82/58/3
f 80/56/3 82/58/3 83/59/3
f 83/59/3 82/58/3 84/60/3
f 84/60/3 82/58/3 85/61/3
f 84/60/3 85/61/3 86/62/3
f 84/60/3 86/62/3 87/63/3
f 87/63/3 86/62/3 88/64/3
f 88/64/3 86/62/3 89/65/3
f 88/64/3 89/65/3 90/66/3
f 88/64/3 90/66/3 91/67/3
f 91/67/3 90/66/3 92/68/3
f 92/68/3 90/66/3 93/69/3
f 92/68/3 93/69/3 94/70/3
f 92/68/3 94/70/3 95/71/3
f 95/71/3 94/70/3 96/72/3
f 97/73/4 98/74/4 99/75/4
f 99/75/4 98/74/4 100/76/4
f 98/74/4 101/77/4 100/76/4
f 101/77/4 102/78/4 100/76/4
f 100/76/4 102/78/4 103/79/4
f 103/79/4 102/78/4 104/80/4
f 102/78/4 105/81/4 104/80/4
f 105/81/4 106/82/4 104/80/4
f 104/80/4 106/82/4 107/83/4
f 107/83/4 106/82/4 108/84/4
f 106/82/4 109/85/4 108/84/4
f 109/85/4 110/86/4 108/84/4
f 108/84/4 110/86/4 111/87/4
f 111/87/4 110/86/4 112/88/4
f 110/86/4 113/89/4 112/88/4
f 113/89/4 114/90/4 112/88/4
f 112/88/4 114/90/4 115/91/4
f 115/91/4 114/90/4 116/92/4
f 114/90/4 117/93/4 116/92/4
f 116/92/4 117/93/4 118/94/4
f 117/93/4 119/95/4 118/94/4
f 120/96/4 118/94/4 119/95/4
l 121 122
l 122 123
l 123 124
l 124 125
l 125 126
l 126 127
l 127 128
l 128 129
l 129 130
l 130 131
l 131 132
l 132 133
l 133 134
l 134 135
l 135 136
l 136 137
l 137 138
l 138 139
l 139 140
l 140 141
l 141 142
l 142 143
l 143 144
l 144 121
o instance_6.002_ID145
v -0.874317 1.035881 -0.301816
v -0.887121 1.035881 -0.276253
l 146 145
o instance_9.001_ID205
v 208.808289 -7.874008 551.736511
v 176.527588 -7.874008 558.098816
v 181.815063 -7.874008 558.234131
v 181.815063 -7.874008 558.234131
v 176.527588 -7.874008 558.098816
v 208.808289 -7.874008 551.736511
v 181.815063 -7.874008 558.234131
v 176.527588 -7.874008 558.098816
v 208.808289 -7.874008 551.736511
vn 0.0000 -1.0000 0.0000
vn 0.0000 1.0000 0.0000
s off
f 150//5 151//5 152//5
f 147//6 148//6 149//6
l 153 154
l 155 153
l 154 155
o instance_9.002_ID213
v 48.009766 -7.874008 554.810547
v 37.025452 -7.874008 554.071289
v 38.722656 -7.874008 554.572876
v 38.722656 -7.874008 554.572876
v 37.025452 -7.874008 554.071289
v 48.009766 -7.874008 554.810547
v 38.722656 -7.874008 554.572876
v 37.025452 -7.874008 554.071289
v 48.009766 -7.874008 554.810547
vn 0.0000 -1.0000 0.0000
vn 0.0000 1.0000 0.0000
s off
f 159//7 160//7 161//7
f 156//8 157//8 158//8
l 162 163
l 164 162
l 163 164
