# Blender v2.93.0 OBJ File: 'rumahsquidward1.blend'
# www.blender.org
o instance_6.001_ID141
v 0.301881 -0.301232 0.675949
v 0.289010 -0.301232 0.680348
l 2 1
o instance_7.001_ID161
v 0.150124 -0.485465 0.578643
v -0.046809 -0.485465 0.578643
v -0.138565 -0.523471 0.578643
v 0.241880 -0.523471 0.578643
v 0.241880 -0.523471 0.578643
v 0.150124 -0.485465 0.578643
v -0.046809 -0.485465 0.578643
v -0.138565 -0.523471 0.578643
v -0.144577 -1.689225 0.598981
v 0.227878 -1.687031 0.599285
v -0.054421 -1.689106 0.597799
v 0.144302 -1.689766 0.600275
v 0.241807 -0.524034 0.592464
v 0.150304 -0.483134 0.591212
v -0.046839 -0.485946 0.590637
v -0.139871 -0.523183 0.591763
v -0.141631 -1.691250 0.579488
v -0.055521 -1.689226 0.579093
v 0.229094 -1.691420 0.581572
v 0.143339 -1.689871 0.578580
vt 0.000000 0.000000
vt 0.000000 0.000000
vt 0.000000 0.000000
vt 0.000000 0.000000
vt 0.000000 0.000000
vt 0.000000 0.000000
vt 0.000000 0.000000
vt 0.000000 0.000000
vt 0.000000 0.000000
vt 0.000000 0.000000
vt 0.000000 0.000000
vt 0.000000 0.000000
vt 0.000000 0.000000
vt 0.000000 0.000000
vt 0.000000 0.000000
vt 0.000000 0.000000
vn 0.0131 0.0061 0.9999
vn 0.0027 -0.9946 0.1037
vn 0.9983 -0.0066 -0.0587
vn -0.9951 0.0034 -0.0991
vn -0.3824 0.9233 0.0361
vn -0.3824 -0.9232 -0.0396
vn 0.0103 -0.0076 -0.9999
vn -0.0046 -0.0007 -1.0000
vn -0.9999 0.0119 -0.0048
vn 0.9990 -0.0056 -0.0443
vn 0.0183 0.9998 -0.0057
vn -0.0000 -0.0001 1.0000
vn 0.0097 0.0059 0.9999
vn 0.0235 -0.9997 0.0050
vn 1.0000 -0.0072 0.0022
vn -0.9887 0.0025 -0.1497
vn -0.3716 0.9266 -0.0573
vn -0.4039 -0.8984 0.1724
vn -0.0117 -0.0057 -0.9999
vn 0.0002 -0.0004 -1.0000
vn -0.9974 0.0107 -0.0711
vn 0.9999 -0.0051 -0.0134
vn -0.0346 0.9695 -0.2426
vn -0.0348 0.0029 0.9994
s off
f 13/1/1 18/2/1 11/3/1
f 19/4/2 13/1/2 11/3/2
f 20/5/3 17/6/3 13/1/3
f 10/7/4 11/3/4 18/2/4
f 10/7/5 17/6/5 9/8/5
f 15/9/6 8/10/6 7/11/6
f 15/9/7 14/12/7 16/13/7
f 10/7/8 20/5/8 19/4/8
f 7/11/9 12/14/9 15/9/9
f 8/10/10 14/12/10 22/15/10
f 14/12/11 21/16/11 22/15/11
f 22/15/12 7/11/12 8/10/12
f 13/1/13 17/6/13 18/2/13
f 19/4/14 20/5/14 13/1/14
f 20/5/15 9/8/15 17/6/15
f 10/7/16 19/4/16 11/3/16
f 10/7/17 18/2/17 17/6/17
f 15/9/18 16/13/18 8/10/18
f 15/9/19 12/14/19 14/12/19
f 10/7/20 9/8/20 20/5/20
f 7/11/21 21/16/21 12/14/21
f 8/10/22 16/13/22 14/12/22
f 14/12/23 12/14/23 21/16/23
f 22/15/24 21/16/24 7/11/24
l 4 5
l 3 6
o instance_9.001_ID205
v 208.808289 -7.874008 551.736511
v 176.527588 -7.874008 558.098816
v 181.815063 -7.874008 558.234131
v 181.815063 -7.874008 558.234131
v 176.527588 -7.874008 558.098816
v 208.808289 -7.874008 551.736511
v 181.815063 -7.874008 558.234131
v 176.527588 -7.874008 558.098816
v 208.808289 -7.874008 551.736511
vn 0.0000 -1.0000 0.0000
vn 0.0000 1.0000 0.0000
s off
f 26//25 27//25 28//25
f 23//26 24//26 25//26
l 29 30
l 31 29
l 30 31
o instance_9.002_ID213
v 48.009766 -7.874008 554.810547
v 37.025452 -7.874008 554.071289
v 38.722656 -7.874008 554.572876
v 38.722656 -7.874008 554.572876
v 37.025452 -7.874008 554.071289
v 48.009766 -7.874008 554.810547
v 38.722656 -7.874008 554.572876
v 37.025452 -7.874008 554.071289
v 48.009766 -7.874008 554.810547
vn 0.0000 -1.0000 0.0000
vn 0.0000 1.0000 0.0000
s off
f 35//27 36//27 37//27
f 32//28 33//28 34//28
l 38 39
l 40 38
l 39 40
