# Blender v2.93.0 OBJ File: ''
# www.blender.org
o instance_0_ID7
v 0.381514 -0.409929 0.620782
v -0.308636 -0.409929 0.890649
v -0.308636 -0.409929 0.620782
v 0.381514 -0.409929 0.890649
v 0.381514 -0.409929 0.890649
v 0.381514 -0.409929 0.620782
v -0.308636 -0.409929 0.890649
v -0.308636 -0.409929 0.620782
v 0.381514 -0.409929 0.890649
v -0.308636 -0.409929 0.890649
v -0.308636 -0.409929 0.620782
v 0.381514 -0.409929 0.620782
v 0.124920 1.034063 0.726242
v -0.308636 -0.409929 0.890649
v 0.381514 -0.409929 0.890649
v -0.052042 1.034063 0.726242
v -0.052042 1.034063 0.726242
v 0.124920 1.034063 0.726242
v -0.308636 -0.409929 0.890649
v 0.381514 -0.409929 0.890649
v 0.124920 1.034063 0.726242
v -0.052042 1.034063 0.726242
v -0.052042 1.034063 0.726242
v -0.308636 -0.409929 0.620782
v -0.308636 -0.409929 0.890649
v -0.052042 1.034063 0.620782
v -0.052042 1.034063 0.620782
v -0.052042 1.034063 0.726242
v -0.308636 -0.409929 0.620782
v -0.308636 -0.409929 0.890649
v -0.052042 1.034063 0.620782
v -0.052042 1.034063 0.620782
v 0.381514 -0.409929 0.620782
v -0.308636 -0.409929 0.620782
v 0.124920 1.034063 0.620782
v 0.124920 1.034063 0.620782
v -0.052042 1.034063 0.620782
v 0.381514 -0.409929 0.620782
v -0.308636 -0.409929 0.620782
v 0.124920 1.034063 0.620782
v 0.381514 -0.409929 0.620782
v 0.124920 1.034063 0.726242
v 0.381514 -0.409929 0.890649
v 0.124920 1.034063 0.620782
v 0.124920 1.034063 0.620782
v 0.381514 -0.409929 0.620782
v 0.124920 1.034063 0.726242
v 0.381514 -0.409929 0.890649
v 0.124920 1.034063 0.726242
v -0.052042 1.034063 0.620782
v -0.052042 1.034063 0.726242
v 0.124920 1.034063 0.620782
v 0.124920 1.034063 0.620782
v 0.124920 1.034063 0.726242
v -0.052042 1.034063 0.620782
v -0.052042 1.034063 0.726242
vt -0.505494 0.366300
vt 0.065934 0.142857
vt 0.065934 0.366300
vt -0.505494 0.142857
vt -0.505494 0.142857
vt -0.505494 0.366300
vt 0.065934 0.142857
vt 0.065934 0.366300
vt 0.293040 1.267711
vt -0.065934 0.015530
vt 0.505494 0.015530
vt 0.146520 1.267711
vt 0.146520 1.267711
vt 0.293040 1.267711
vt -0.065934 0.015530
vt 0.505494 0.015530
vt -0.278982 1.251667
vt -0.366300 -0.011093
vt -0.142857 -0.011093
vt -0.366300 1.251667
vt -0.366300 1.251667
vt -0.278982 1.251667
vt -0.366300 -0.011093
vt -0.142857 -0.011093
vt -0.146520 1.244760
vt -0.505494 0.000000
vt 0.065934 0.000000
vt -0.293040 1.244760
vt -0.293040 1.244760
vt -0.146520 1.244760
vt -0.505494 0.000000
vt 0.065934 0.000000
vt 0.366300 -0.085047
vt 0.278982 1.177713
vt 0.142857 -0.085047
vt 0.366300 1.177713
vt 0.366300 1.177713
vt 0.366300 -0.085047
vt 0.278982 1.177713
vt 0.142857 -0.085047
vt 0.293040 0.278982
vt 0.146520 0.366300
vt 0.146520 0.278982
vt 0.293040 0.366300
vt 0.293040 0.366300
vt 0.293040 0.278982
vt 0.146520 0.366300
vt 0.146520 0.278982
vn 0.0000 -1.0000 0.0000
vn 0.0000 1.0000 0.0000
vn 0.0000 0.1131 0.9936
vn 0.0000 -0.1131 -0.9936
vn -0.9846 0.1750 0.0000
vn 0.9846 -0.1750 0.0000
vn 0.0000 0.0000 -1.0000
vn 0.0000 0.0000 1.0000
vn 0.9846 0.1750 0.0000
vn -0.9846 -0.1750 0.0000
s off
f 1/1/1 2/2/1 3/3/1
f 2/2/1 1/1/1 4/4/1
f 5/5/2 6/6/2 7/7/2
f 8/8/2 7/7/2 6/6/2
f 13/9/3 14/10/3 15/11/3
f 14/10/3 13/9/3 16/12/3
f 17/13/4 18/14/4 19/15/4
f 20/16/4 19/15/4 18/14/4
f 23/17/5 24/18/5 25/19/5
f 24/18/5 23/17/5 26/20/5
f 27/21/6 28/22/6 29/23/6
f 30/24/6 29/23/6 28/22/6
f 32/25/7 33/26/7 34/27/7
f 33/26/7 32/25/7 35/28/7
f 36/29/8 37/30/8 38/31/8
f 39/32/8 38/31/8 37/30/8
f 41/33/9 42/34/9 43/35/9
f 42/34/9 41/33/9 44/36/9
f 45/37/10 46/38/10 47/39/10
f 48/40/10 47/39/10 46/38/10
f 49/41/2 50/42/2 51/43/2
f 50/42/2 49/41/2 52/44/2
f 53/45/1 54/46/1 55/47/1
f 56/48/1 55/47/1 54/46/1
l 9 10
l 10 11
l 11 12
l 12 9
l 9 21
l 21 22
l 10 22
l 22 31
l 11 31
l 31 40
l 12 40
l 40 21
o instance_1_ID26
v -0.603675 1.259251 0.164632
v 0.640321 1.034063 0.164632
v -0.603675 1.034063 0.164632
v 0.640321 1.259251 0.164632
v 0.640321 1.259251 0.164632
v -0.603675 1.259251 0.164632
v 0.640321 1.034063 0.164632
v -0.603675 1.034063 0.164632
v -0.603675 1.034063 0.164632
v 0.640321 1.034063 0.164632
v -0.603675 1.259251 0.164632
v 0.640321 1.259251 0.164632
v 0.640321 1.034063 0.164632
v -0.603675 1.034063 0.726241
v -0.603675 1.034063 0.164632
v 0.640321 1.034063 0.726241
v 0.640321 1.034063 0.726241
v 0.640321 1.034063 0.164632
v -0.603675 1.034063 0.726241
v -0.603675 1.034063 0.164632
v 0.640321 1.034063 0.726241
v -0.603675 1.034063 0.726241
v -0.603675 1.259251 0.164632
v -0.603675 1.034063 0.726241
v -0.603675 1.259251 0.726241
v -0.603675 1.034063 0.164632
v -0.603675 1.034063 0.164632
v -0.603675 1.259251 0.164632
v -0.603675 1.034063 0.726241
v -0.603675 1.259251 0.726241
v -0.603675 1.259251 0.726241
v 0.640321 1.259251 0.726241
v -0.603675 1.259251 0.164632
v -0.603675 1.259251 0.726241
v 0.640321 1.259251 0.164632
v 0.640321 1.259251 0.164632
v 0.640321 1.259251 0.726241
v -0.603675 1.259251 0.164632
v -0.603675 1.259251 0.726241
v 0.640321 1.259251 0.726241
v 0.640321 1.034063 0.164632
v 0.640321 1.259251 0.726241
v 0.640321 1.034063 0.726241
v 0.640321 1.259251 0.164632
v 0.640321 1.259251 0.164632
v 0.640321 1.034063 0.164632
v 0.640321 1.259251 0.726241
v 0.640321 1.034063 0.726241
v 0.640321 1.259251 0.726241
v -0.603675 1.034063 0.726241
v 0.640321 1.034063 0.726241
v -0.603675 1.259251 0.726241
v -0.603675 1.259251 0.726241
v 0.640321 1.259251 0.726241
v -0.603675 1.034063 0.726241
v 0.640321 1.034063 0.726241
vt -0.135000 0.165000
vt -1.165000 0.000000
vt -0.135000 0.000000
vt -1.165000 0.165000
vt -1.165000 0.165000
vt -0.135000 0.165000
vt -1.165000 0.000000
vt -0.135000 0.000000
vt -1.165000 0.465000
vt -0.135000 0.000000
vt -0.135000 0.465000
vt -1.165000 0.000000
vt -1.165000 0.000000
vt -1.165000 0.465000
vt -0.135000 0.000000
vt -0.135000 0.465000
vt -0.465000 0.165000
vt 0.000000 0.000000
vt 0.000000 0.165000
vt -0.465000 0.000000
vt -0.465000 0.000000
vt -0.465000 0.165000
vt 0.000000 0.000000
vt 0.000000 0.165000
vt 1.165000 0.000000
vt 0.135000 0.465000
vt 0.135000 0.000000
vt 1.165000 0.465000
vt 1.165000 0.465000
vt 1.165000 0.000000
vt 0.135000 0.465000
vt 0.135000 0.000000
vt 0.465000 0.000000
vt 0.000000 0.165000
vt 0.000000 0.000000
vt 0.465000 0.165000
vt 0.465000 0.165000
vt 0.465000 0.000000
vt 0.000000 0.165000
vt 0.000000 0.000000
vt 1.165000 0.165000
vt 0.135000 0.000000
vt 1.165000 0.000000
vt 0.135000 0.165000
vt 0.135000 0.165000
vt 1.165000 0.165000
vt 0.135000 0.000000
vt 1.165000 0.000000
vn 0.0000 0.0000 -1.0000
vn 0.0000 0.0000 1.0000
vn 0.0000 -1.0000 0.0000
vn 0.0000 1.0000 0.0000
vn -1.0000 0.0000 0.0000
vn 1.0000 0.0000 0.0000
s off
f 57/49/11 58/50/11 59/51/11
f 58/50/11 57/49/11 60/52/11
f 61/53/12 62/54/12 63/55/12
f 64/56/12 63/55/12 62/54/12
f 69/57/13 70/58/13 71/59/13
f 70/58/13 69/57/13 72/60/13
f 73/61/14 74/62/14 75/63/14
f 76/64/14 75/63/14 74/62/14
f 79/65/15 80/66/15 81/67/15
f 80/66/15 79/65/15 82/68/15
f 83/69/16 84/70/16 85/71/16
f 86/72/16 85/71/16 84/70/16
f 88/73/14 89/74/14 90/75/14
f 89/74/14 88/73/14 91/76/14
f 92/77/13 93/78/13 94/79/13
f 95/80/13 94/79/13 93/78/13
f 97/81/16 98/82/16 99/83/16
f 98/82/16 97/81/16 100/84/16
f 101/85/15 102/86/15 103/87/15
f 104/88/15 103/87/15 102/86/15
f 105/89/12 106/90/12 107/91/12
f 106/90/12 105/89/12 108/92/12
f 109/93/11 110/94/11 111/95/11
f 112/96/11 111/95/11 110/94/11
l 65 66
l 65 67
l 67 68
l 66 68
l 66 77
l 77 78
l 78 65
l 78 87
l 87 67
l 96 87
l 68 96
l 77 96
o instance_2_ID38
v 1.272187 -0.465362 -0.301828
v 0.607917 -0.465362 0.060501
v 0.607917 -0.465362 -0.301828
v 1.272187 -0.465362 0.060501
v 1.272187 -0.465362 0.060501
v 1.272187 -0.465362 -0.301828
v 0.607917 -0.465362 0.060501
v 0.607917 -0.465362 -0.301828
v 1.272187 -0.465362 -0.301828
v 1.272187 -0.465362 0.060501
v 0.607917 -0.465362 0.060501
v 0.607917 -0.465362 -0.301828
v 1.272187 -0.465362 -0.301828
v 1.272187 0.927189 0.060501
v 1.272187 -0.465362 0.060501
v 1.272187 0.927189 -0.301828
v 1.272187 0.927189 -0.301828
v 1.272187 -0.465362 -0.301828
v 1.272187 0.927189 0.060501
v 1.272187 -0.465362 0.060501
v 1.272187 0.927189 -0.301828
v 1.272187 0.927189 0.060501
v 1.272187 0.927189 0.060501
v 0.607917 -0.465362 0.060501
v 1.272187 -0.465362 0.060501
v 0.607917 0.927189 0.060501
v 0.607917 0.927189 0.060501
v 1.272187 0.927189 0.060501
v 0.607917 -0.465362 0.060501
v 1.272187 -0.465362 0.060501
v 0.607917 0.927189 0.060501
v 0.607917 0.927189 -0.301828
v 0.607917 -0.465362 0.060501
v 0.607917 0.927189 0.060501
v 0.607917 -0.465362 -0.301828
v 0.607917 -0.465362 -0.301828
v 0.607917 0.927189 -0.301828
v 0.607917 -0.465362 0.060501
v 0.607917 0.927189 0.060501
v 0.607917 0.927189 -0.301828
v 0.607917 0.927189 -0.301828
v 1.272187 -0.465362 -0.301828
v 0.607917 -0.465362 -0.301828
v 1.272187 0.927189 -0.301828
v 1.272187 0.927189 -0.301828
v 0.607917 0.927189 -0.301828
v 1.272187 -0.465362 -0.301828
v 0.607917 -0.465362 -0.301828
v 1.272187 0.927189 0.060501
v 0.607917 0.927189 -0.301828
v 0.607917 0.927189 0.060501
v 1.272187 0.927189 -0.301828
v 1.272187 0.927189 -0.301828
v 1.272187 0.927189 0.060501
v 0.607917 0.927189 -0.301828
v 0.607917 0.927189 0.060501
vt -0.310000 0.300000
vt 0.240000 0.000000
vt 0.240000 0.300000
vt -0.310000 0.000000
vt -0.310000 0.000000
vt -0.310000 0.300000
vt 0.240000 0.000000
vt 0.240000 0.300000
vt 0.300000 0.079646
vt 0.000000 1.100000
vt 0.000000 0.079646
vt 0.300000 1.100000
vt 0.300000 1.100000
vt 0.300000 0.079646
vt 0.000000 1.100000
vt 0.000000 0.079646
vt 0.310000 1.100000
vt -0.240000 0.079646
vt 0.310000 0.079646
vt -0.240000 1.100000
vt -0.240000 1.100000
vt 0.310000 1.100000
vt -0.240000 0.079646
vt 0.310000 0.079646
vt -0.300000 1.100000
vt 0.000000 0.079646
vt 0.000000 1.100000
vt -0.300000 0.079646
vt -0.300000 0.079646
vt -0.300000 1.100000
vt 0.000000 0.079646
vt 0.000000 1.100000
vt 0.240000 1.100000
vt -0.310000 0.079646
vt 0.240000 0.079646
vt -0.310000 1.100000
vt -0.310000 1.100000
vt 0.240000 1.100000
vt -0.310000 0.079646
vt 0.240000 0.079646
vt 0.310000 0.000000
vt -0.240000 0.300000
vt -0.240000 0.000000
vt 0.310000 0.300000
vt 0.310000 0.300000
vt 0.310000 0.000000
vt -0.240000 0.300000
vt -0.240000 0.000000
vn 0.0000 -1.0000 0.0000
vn 0.0000 1.0000 0.0000
vn 1.0000 0.0000 0.0000
vn -1.0000 0.0000 0.0000
vn 0.0000 0.0000 1.0000
vn 0.0000 0.0000 -1.0000
s off
f 113/97/17 114/98/17 115/99/17
f 114/98/17 113/97/17 116/100/17
f 117/101/18 118/102/18 119/103/18
f 120/104/18 119/103/18 118/102/18
f 125/105/19 126/106/19 127/107/19
f 126/106/19 125/105/19 128/108/19
f 129/109/20 130/110/20 131/111/20
f 132/112/20 131/111/20 130/110/20
f 135/113/21 136/114/21 137/115/21
f 136/114/21 135/113/21 138/116/21
f 139/117/22 140/118/22 141/119/22
f 142/120/22 141/119/22 140/118/22
f 144/121/20 145/122/20 146/123/20
f 145/122/20 144/121/20 147/124/20
f 148/125/19 149/126/19 150/127/19
f 151/128/19 150/127/19 149/126/19
f 153/129/22 154/130/22 155/131/22
f 154/130/22 153/129/22 156/132/22
f 157/133/21 158/134/21 159/135/21
f 160/136/21 159/135/21 158/134/21
f 161/137/18 162/138/18 163/139/18
f 162/138/18 161/137/18 164/140/18
f 165/141/17 166/142/17 167/143/17
f 168/144/17 167/143/17 166/142/17
l 121 122
l 122 123
l 123 124
l 124 121
l 121 133
l 133 134
l 122 134
l 134 143
l 123 143
l 143 152
l 124 152
l 152 133
o instance_3_ID38
v -0.587768 -0.465362 -0.301828
v -1.252038 -0.465362 0.060501
v -1.252038 -0.465362 -0.301828
v -0.587768 -0.465362 0.060501
v -0.587768 -0.465362 0.060501
v -0.587768 -0.465362 -0.301828
v -1.252038 -0.465362 0.060501
v -1.252038 -0.465362 -0.301828
v -0.587768 -0.465362 -0.301828
v -0.587768 -0.465362 0.060501
v -1.252038 -0.465362 0.060501
v -1.252038 -0.465362 -0.301828
v -0.587768 -0.465362 -0.301828
v -0.587768 0.927189 0.060501
v -0.587768 -0.465362 0.060501
v -0.587768 0.927189 -0.301828
v -0.587768 0.927189 -0.301828
v -0.587768 -0.465362 -0.301828
v -0.587768 0.927189 0.060501
v -0.587768 -0.465362 0.060501
v -0.587768 0.927189 -0.301828
v -0.587768 0.927189 0.060501
v -0.587768 0.927189 0.060501
v -1.252038 -0.465362 0.060501
v -0.587768 -0.465362 0.060501
v -1.252038 0.927189 0.060501
v -1.252038 0.927189 0.060501
v -0.587768 0.927189 0.060501
v -1.252038 -0.465362 0.060501
v -0.587768 -0.465362 0.060501
v -1.252038 0.927189 0.060501
v -1.252038 0.927189 -0.301828
v -1.252038 -0.465362 0.060501
v -1.252038 0.927189 0.060501
v -1.252038 -0.465362 -0.301828
v -1.252038 -0.465362 -0.301828
v -1.252038 0.927189 -0.301828
v -1.252038 -0.465362 0.060501
v -1.252038 0.927189 0.060501
v -1.252038 0.927189 -0.301828
v -1.252038 0.927189 -0.301828
v -0.587768 -0.465362 -0.301828
v -1.252038 -0.465362 -0.301828
v -0.587768 0.927189 -0.301828
v -0.587768 0.927189 -0.301828
v -1.252038 0.927189 -0.301828
v -0.587768 -0.465362 -0.301828
v -1.252038 -0.465362 -0.301828
v -0.587768 0.927189 0.060501
v -1.252038 0.927189 -0.301828
v -1.252038 0.927189 0.060501
v -0.587768 0.927189 -0.301828
v -0.587768 0.927189 -0.301828
v -0.587768 0.927189 0.060501
v -1.252038 0.927189 -0.301828
v -1.252038 0.927189 0.060501
vt -0.310000 0.300000
vt 0.240000 0.000000
vt 0.240000 0.300000
vt -0.310000 0.000000
vt -0.310000 0.000000
vt -0.310000 0.300000
vt 0.240000 0.000000
vt 0.240000 0.300000
vt 0.300000 0.079646
vt 0.000000 1.100000
vt 0.000000 0.079646
vt 0.300000 1.100000
vt 0.300000 1.100000
vt 0.300000 0.079646
vt 0.000000 1.100000
vt 0.000000 0.079646
vt 0.310000 1.100000
vt -0.240000 0.079646
vt 0.310000 0.079646
vt -0.240000 1.100000
vt -0.240000 1.100000
vt 0.310000 1.100000
vt -0.240000 0.079646
vt 0.310000 0.079646
vt -0.300000 1.100000
vt 0.000000 0.079646
vt 0.000000 1.100000
vt -0.300000 0.079646
vt -0.300000 0.079646
vt -0.300000 1.100000
vt 0.000000 0.079646
vt 0.000000 1.100000
vt 0.240000 1.100000
vt -0.310000 0.079646
vt 0.240000 0.079646
vt -0.310000 1.100000
vt -0.310000 1.100000
vt 0.240000 1.100000
vt -0.310000 0.079646
vt 0.240000 0.079646
vt 0.310000 0.000000
vt -0.240000 0.300000
vt -0.240000 0.000000
vt 0.310000 0.300000
vt 0.310000 0.300000
vt 0.310000 0.000000
vt -0.240000 0.300000
vt -0.240000 0.000000
vn 0.0000 -1.0000 0.0000
vn 0.0000 1.0000 0.0000
vn 1.0000 0.0000 0.0000
vn -1.0000 0.0000 0.0000
vn 0.0000 0.0000 1.0000
vn 0.0000 0.0000 -1.0000
s off
f 169/145/23 170/146/23 171/147/23
f 170/146/23 169/145/23 172/148/23
f 173/149/24 174/150/24 175/151/24
f 176/152/24 175/151/24 174/150/24
f 181/153/25 182/154/25 183/155/25
f 182/154/25 181/153/25 184/156/25
f 185/157/26 186/158/26 187/159/26
f 188/160/26 187/159/26 186/158/26
f 191/161/27 192/162/27 193/163/27
f 192/162/27 191/161/27 194/164/27
f 195/165/28 196/166/28 197/167/28
f 198/168/28 197/167/28 196/166/28
f 200/169/26 201/170/26 202/171/26
f 201/170/26 200/169/26 203/172/26
f 204/173/25 205/174/25 206/175/25
f 207/176/25 206/175/25 205/174/25
f 209/177/28 210/178/28 211/179/28
f 210/178/28 209/177/28 212/180/28
f 213/181/27 214/182/27 215/183/27
f 216/184/27 215/183/27 214/182/27
f 217/185/24 218/186/24 219/187/24
f 218/186/24 217/185/24 220/188/24
f 221/189/23 222/190/23 223/191/23
f 224/192/23 223/191/23 222/190/23
l 177 178
l 178 179
l 179 180
l 180 177
l 177 189
l 189 190
l 178 190
l 190 199
l 179 199
l 199 208
l 180 208
l 208 189
o instance_6.001_ID141
v 0.301881 -0.301232 0.675949
v 0.289010 -0.301232 0.680348
l 226 225
o instance_6.002_ID145
v -0.874317 1.035881 -0.301816
v -0.887121 1.035881 -0.276253
l 228 227
o instance_9.001_ID205
v 208.808289 -7.874008 551.736511
v 176.527588 -7.874008 558.098816
v 181.815063 -7.874008 558.234131
v 181.815063 -7.874008 558.234131
v 176.527588 -7.874008 558.098816
v 208.808289 -7.874008 551.736511
v 181.815063 -7.874008 558.234131
v 176.527588 -7.874008 558.098816
v 208.808289 -7.874008 551.736511
vn 0.0000 -1.0000 0.0000
vn 0.0000 1.0000 0.0000
s off
f 232//29 233//29 234//29
f 229//30 230//30 231//30
l 235 236
l 237 235
l 236 237
o instance_9.002_ID213
v 48.009766 -7.874008 554.810547
v 37.025452 -7.874008 554.071289
v 38.722656 -7.874008 554.572876
v 38.722656 -7.874008 554.572876
v 37.025452 -7.874008 554.071289
v 48.009766 -7.874008 554.810547
v 38.722656 -7.874008 554.572876
v 37.025452 -7.874008 554.071289
v 48.009766 -7.874008 554.810547
vn 0.0000 -1.0000 0.0000
vn 0.0000 1.0000 0.0000
s off
f 241//31 242//31 243//31
f 238//32 239//32 240//32
l 244 245
l 246 244
l 245 246
