# Blender v2.93.0 OBJ File: ''
# www.blender.org
o LeafGroup_Mesh.001
v 7.103313 71.702057 1.327849
v 11.142716 72.314613 7.285731
v 6.096758 71.702057 7.500103
v 8.069579 71.702057 -4.849969
v 11.936695 71.950607 1.884825
v 19.092136 98.811844 11.022304
v 21.257439 98.811844 -4.672139
v 22.331615 99.852409 3.505408
v 23.135008 128.910934 14.596594
v 25.680811 128.910934 -3.855822
v 26.642963 128.910980 5.360481
v -10.830450 71.702057 -5.058170
v -11.746387 72.314613 -12.197781
v -7.146749 71.702057 -10.111899
v -14.480707 71.702057 0.018727
v -14.892313 71.950607 -7.736451
v -11.409910 92.201523 -12.252264
v -18.366287 72.314613 -2.078657
v -18.922281 99.852409 -9.549992
v -14.656368 128.910934 -16.149302
v -23.619501 98.811844 -2.761684
v -22.668388 128.910980 -9.851120
v -7.608539 71.702057 7.788707
v -14.362089 72.314613 10.279200
v -13.358477 71.702057 5.329412
v -1.843514 71.702057 10.210213
v -9.309886 71.950607 12.346920
v -18.789124 88.214111 14.387309
v -4.073883 88.214111 20.258053
v -13.984547 89.254669 22.459911
v -25.272425 114.853752 20.157070
v -5.992380 115.227875 19.556889
v -17.466732 114.853783 28.138901
v -11.285686 71.702057 4.529725
v -18.226284 72.314613 2.621529
v -14.527948 71.702057 -0.817956
v -8.009142 71.702057 9.855455
v -15.323200 71.950607 7.244563
v -19.690399 81.788383 3.387596
v -17.308521 84.666931 18.796667
v -21.760344 85.707497 11.844951
v -25.676702 111.680702 6.383119
v -18.103439 111.680702 18.209099
v -27.598585 110.148705 16.440905
v -9.884591 71.702057 8.579959
v -2.876215 71.950607 13.597672
v -9.912468 72.043808 15.562035
v 2.619224 71.702057 8.846375
v -3.632684 71.702057 8.733513
v -3.761252 99.852402 25.587934
v -11.558655 98.811844 23.005024
v 4.284433 98.811844 23.005024
v -14.955015 128.910934 31.471941
v 5.479425 128.910934 31.471941
v -4.480385 128.910980 34.476688
v 6.924927 71.702057 -3.001901
v 13.228053 72.314613 0.474253
v 8.828808 71.702057 2.955046
v 4.982572 71.702057 -8.945496
v 11.484747 71.950607 -4.698873
v 20.207472 74.978394 -6.555863
v 18.652836 88.214111 1.910044
v 12.247906 73.962288 -12.465631
v 25.824884 114.853798 -7.196562
v 24.898817 114.853752 3.929109
v 18.794056 114.853752 -13.669305
v 1.593768 71.702057 -7.673163
v 8.085720 72.314613 -10.782432
v 7.547927 71.702057 -5.760641
v -4.371903 71.702057 -9.546652
v 2.862738 71.950607 -12.370138
v 5.504956 74.978394 -20.193556
v 10.910995 73.962288 -12.782491
v -2.945753 84.399727 -13.773153
v 16.345610 114.853752 -16.617847
v 7.829829 114.853806 -23.837204
v -3.855136 71.702057 -8.475332
v 1.494797 72.314613 -13.291082
v 2.396771 71.702057 -8.321775
v -10.107043 71.702057 -8.588191
v -3.963965 71.950607 -13.339485
v 2.273344 84.310852 -18.638586
v -9.932269 92.201523 -14.894954
v -4.342341 99.852409 -21.702299
v 3.955575 128.910934 -21.679703
v -14.671646 128.910934 -21.679703
v -5.782598 128.910980 -24.684441
v -7.254145 71.702057 -7.820516
v -3.824924 72.314613 -14.149296
v -1.311513 71.702057 -9.768612
v -13.183140 71.702057 -5.834063
v -8.984960 71.950607 -12.367611
v -3.520041 84.399727 -13.996867
v -18.816254 88.214111 -12.856293
v -12.824934 89.254669 -21.052261
v -4.903180 114.853752 -23.150959
v -22.455746 114.853752 -16.915581
v -16.035429 114.853806 -23.994326
v 4.203335 71.702057 -6.099159
v 11.399592 72.314613 -5.935289
v 8.648260 71.702057 -1.699996
v -0.269498 71.702057 -10.468710
v 7.459850 71.950607 -9.713984
v 18.270582 99.852409 -16.044216
v 20.527828 98.811844 -8.713011
v 8.997017 98.811844 -19.577831
v 23.411507 128.910980 -17.364250
v 28.438501 128.910934 -8.499182
v 14.881396 128.910934 -21.273279
v -12.976919 71.702057 -0.942165
v -17.287781 72.314613 -3.897512
v -13.339268 71.702057 -7.185449
v -12.574011 71.702057 5.297778
v -17.762152 71.950607 0.212700
v -27.606298 98.811844 -7.071321
v -26.300261 98.811844 8.717853
v -29.537645 99.852409 0.912459
v -36.447037 128.910934 -7.876176
v -34.762527 128.910934 12.488714
v -38.578094 128.910980 2.810488
v 3.814969 71.702057 6.861938
v 1.589682 72.314613 13.707466
v -1.676112 71.702057 9.854910
v 9.285714 71.702057 3.833726
v 6.341307 71.950607 11.020002
v 2.608967 88.214111 19.344505
v 16.329470 88.214111 11.422954
v 11.922955 89.254669 20.569130
v 2.429444 115.227875 19.517052
v 19.331352 114.853752 17.693020
v 14.300429 114.853783 25.818237
v 12.483513 72.314613 -4.731837
v -25.255543 128.910934 -0.831659
v -3.018144 72.314613 14.466637
v -10.053933 72.068840 15.291134
v 2.962435 72.314613 13.235046
v 8.969501 72.314613 -10.843195
v -3.599204 72.314613 -13.894042
v -1.523661 114.853752 -21.877211
v -10.593273 72.314613 -12.976864
v -15.110407 72.314613 -9.806784
v 2.386277 72.314613 -13.996283
v -16.919458 72.314613 6.001603
v 11.901145 72.314613 7.391305
vt 0.546535 0.019231
vt 0.353957 0.339744
vt 0.353957 0.019231
vt 0.739113 0.019231
vt 0.546535 0.339744
vt 0.353957 0.660256
vt 0.739113 0.660256
vt 0.546535 0.660256
vt 0.353957 0.980769
vt 0.739113 0.980769
vt 0.546535 0.980769
vt 0.546535 0.019231
vt 0.353957 0.339744
vt 0.353957 0.019231
vt 0.739113 0.019231
vt 0.546535 0.339744
vt 0.353957 0.660256
vt 0.739113 0.339744
vt 0.546535 0.660256
vt 0.353957 0.980769
vt 0.739113 0.660256
vt 0.546535 0.980769
vt 0.546535 0.019231
vt 0.353957 0.339744
vt 0.353957 0.019231
vt 0.739113 0.019231
vt 0.546535 0.339744
vt 0.353957 0.660256
vt 0.739113 0.660256
vt 0.546535 0.660256
vt 0.353957 0.980769
vt 0.739113 0.980769
vt 0.546535 0.980769
vt 0.546535 0.019231
vt 0.353957 0.339744
vt 0.353957 0.019231
vt 0.739113 0.019231
vt 0.546535 0.339744
vt 0.353957 0.660256
vt 0.739113 0.660256
vt 0.546535 0.660256
vt 0.353957 0.980769
vt 0.739113 0.980769
vt 0.546535 0.980769
vt 0.353957 0.019231
vt 0.546535 0.339744
vt 0.353957 0.339744
vt 0.739113 0.019231
vt 0.546535 0.019231
vt 0.546535 0.660256
vt 0.353957 0.660256
vt 0.739113 0.660256
vt 0.353957 0.980769
vt 0.739113 0.980769
vt 0.546535 0.980769
vt 0.546535 0.019231
vt 0.353957 0.339744
vt 0.353957 0.019231
vt 0.739113 0.019231
vt 0.546535 0.339744
vt 0.546535 0.660256
vt 0.353957 0.660256
vt 0.739113 0.660256
vt 0.546535 0.980769
vt 0.353957 0.980769
vt 0.739113 0.980769
vt 0.546535 0.019231
vt 0.353957 0.339744
vt 0.353957 0.019231
vt 0.739113 0.019231
vt 0.546535 0.339744
vt 0.546535 0.660256
vt 0.353957 0.660256
vt 0.739113 0.660256
vt 0.353957 0.980769
vt 0.546535 0.980769
vt 0.546535 0.019231
vt 0.353957 0.339744
vt 0.353957 0.019231
vt 0.739113 0.019231
vt 0.546535 0.339744
vt 0.353957 0.660256
vt 0.739113 0.660256
vt 0.546535 0.660256
vt 0.353957 0.980769
vt 0.739113 0.980769
vt 0.546535 0.980769
vt 0.546535 0.019231
vt 0.353957 0.339744
vt 0.353957 0.019231
vt 0.739113 0.019231
vt 0.546535 0.339744
vt 0.353957 0.660256
vt 0.739113 0.660256
vt 0.546535 0.660256
vt 0.353957 0.980769
vt 0.739113 0.980769
vt 0.546535 0.980769
vt 0.546535 0.019231
vt 0.353957 0.339744
vt 0.353957 0.019231
vt 0.739113 0.019231
vt 0.546535 0.339744
vt 0.546535 0.660256
vt 0.353957 0.660256
vt 0.739113 0.660256
vt 0.546535 0.980769
vt 0.353957 0.980769
vt 0.739113 0.980769
vt 0.546535 0.019231
vt 0.353957 0.339744
vt 0.353957 0.019231
vt 0.739113 0.019231
vt 0.546535 0.339744
vt 0.353957 0.660256
vt 0.739113 0.660256
vt 0.546535 0.660256
vt 0.353957 0.980769
vt 0.739113 0.980769
vt 0.546535 0.980769
vt 0.546535 0.019231
vt 0.353957 0.339744
vt 0.353957 0.019231
vt 0.739113 0.019231
vt 0.546535 0.339744
vt 0.353957 0.660256
vt 0.739113 0.660256
vt 0.546535 0.660256
vt 0.353957 0.980769
vt 0.739113 0.980769
vt 0.546535 0.980769
vt 0.739113 0.339744
vt 0.739113 0.980769
vt 0.739113 0.339744
vt 0.739113 0.339744
vt 0.739113 0.339744
vt 0.739113 0.339744
vt 0.739113 0.339744
vt 0.739113 0.980769
vt 0.739113 0.339744
vt 0.739113 0.339744
vt 0.739113 0.339744
vt 0.739113 0.339744
vt 0.739113 0.339744
vn 0.0655 -0.9974 0.0287
vn 0.8463 -0.4911 0.2064
vn 0.1213 -0.9924 0.0198
vn 0.1036 -0.9944 -0.0228
vn 0.5045 -0.7223 0.4731
vn 0.9029 -0.2636 0.3395
vn 0.9610 -0.2653 -0.0784
vn 0.9624 -0.2436 0.1201
vn 0.9213 -0.1606 0.3541
vn 0.9847 -0.1399 -0.1042
vn 0.9785 -0.1540 0.1370
vn -0.0456 -0.9974 -0.0552
vn -0.7767 -0.2928 -0.5577
vn -0.0993 -0.9924 -0.0724
vn -0.1027 -0.9944 -0.0264
vn -0.2316 -0.6169 -0.7522
vn -0.4827 -0.1154 -0.8681
vn -0.8586 -0.2853 -0.4260
vn -0.6575 -0.1358 -0.7411
vn -0.5906 -0.0953 -0.8013
vn -0.8190 -0.1411 -0.5561
vn -0.8187 -0.0696 -0.5700
vn -0.0436 -0.9974 0.0567
vn -0.3618 -0.6064 0.7081
vn -0.0483 -0.9924 0.1130
vn -0.0028 -0.9944 0.1060
vn -0.4818 -0.7711 0.4162
vn -0.7611 -0.3692 0.5334
vn 0.1587 -0.2217 0.9621
vn -0.3250 -0.3263 0.8876
vn -0.7189 -0.2590 0.6450
vn 0.5193 -0.0646 0.8521
vn -0.1135 -0.2307 0.9664
vn -0.0685 -0.9974 0.0208
vn -0.6704 -0.6281 0.3949
vn -0.1051 -0.9924 0.0637
vn -0.0488 -0.9979 0.0416
vn -0.6060 -0.7921 0.0723
vn -0.9581 -0.2847 0.0302
vn -0.8309 -0.2660 0.4887
vn -0.9400 -0.2705 0.2077
vn -0.9616 -0.1872 -0.2008
vn -0.3020 -0.1866 0.9349
vn -0.7851 -0.2907 0.5469
vn -0.0002 -0.9988 0.0498
vn 0.2218 -0.5722 0.7895
vn 0.1415 -0.3977 0.9066
vn 0.0389 -0.9945 0.0970
vn 0.0022 -0.9987 0.0502
vn 0.0186 -0.3121 0.9499
vn -0.2694 -0.2747 0.9230
vn 0.2373 -0.3324 0.9128
vn -0.2644 -0.2882 0.9203
vn 0.2751 -0.2741 0.9215
vn 0.0014 -0.2925 0.9563
vn 0.0712 -0.9974 -0.0047
vn 0.5894 -0.7705 0.2427
vn 0.1171 -0.9924 -0.0374
vn 0.0819 -0.9944 -0.0673
vn 0.2868 -0.9435 0.1662
vn 0.8248 -0.5379 -0.1743
vn 0.9015 -0.1454 0.4077
vn 0.4975 -0.6784 -0.5406
vn 0.9310 -0.1819 -0.3164
vn 0.9690 -0.2333 0.0807
vn 0.6634 -0.1086 -0.7404
vn 0.0375 -0.9974 -0.0607
vn 0.3101 -0.8862 -0.3442
vn 0.0376 -0.9924 -0.1170
vn -0.0071 -0.9944 -0.1058
vn 0.1864 -0.9236 -0.3350
vn -0.0029 -0.5141 -0.8578
vn 0.6288 -0.5881 -0.5086
vn -0.5583 -0.1123 -0.8220
vn 0.6659 -0.1149 -0.7371
vn 0.2099 -0.1755 -0.9618
vn 0.0194 -0.9974 -0.0688
vn 0.0620 -0.5475 -0.8345
vn 0.0030 -0.9924 -0.1229
vn -0.0367 -0.9944 -0.0995
vn 0.3568 -0.7297 -0.5832
vn -0.1310 -0.2746 -0.9526
vn -0.5579 -0.2316 -0.7969
vn -0.2042 -0.1681 -0.9644
vn 0.2896 -0.0819 -0.9536
vn -0.3770 -0.1333 -0.9166
vn -0.0223 -0.1032 -0.9944
vn -0.0051 -0.9974 -0.0713
vn -0.2690 -0.4708 -0.8402
vn -0.0383 -0.9924 -0.1168
vn -0.0679 -0.9944 -0.0814
vn 0.1163 -0.7022 -0.7024
vn 0.4124 -0.2224 -0.8835
vn -0.7327 -0.2946 -0.6135
vn -0.1688 -0.3231 -0.9312
vn 0.1829 -0.1364 -0.9736
vn -0.7423 -0.1747 -0.6469
vn -0.3776 -0.1536 -0.9132
vn 0.0614 -0.9974 -0.0368
vn 0.6595 -0.5542 -0.5078
vn 0.0865 -0.9924 -0.0874
vn 0.0415 -0.9944 -0.0976
vn 0.6578 -0.7358 -0.1610
vn 0.6782 -0.2562 -0.6888
vn 0.9019 -0.2711 -0.3364
vn 0.3918 -0.2614 -0.8821
vn 0.6738 -0.1764 -0.7175
vn 0.8486 -0.2196 -0.4812
vn 0.4047 -0.1160 -0.9071
vn -0.0840 -0.9963 -0.0185
vn -0.8210 -0.5576 -0.1227
vn -0.1464 -0.9892 0.0085
vn -0.0935 -0.9945 0.0468
vn -0.6812 -0.6438 -0.3484
vn -0.9271 -0.3289 -0.1798
vn -0.8878 -0.3404 0.3097
vn -0.9409 -0.3312 0.0704
vn -0.9412 -0.2807 -0.1882
vn -0.8892 -0.2981 0.3470
vn -0.9493 -0.3013 0.0896
vn 0.0176 -0.9974 0.0693
vn 0.3406 -0.6092 0.7161
vn 0.0588 -0.9924 0.1079
vn 0.0815 -0.9944 0.0678
vn 0.0274 -0.7696 0.6379
vn -0.0752 -0.2272 0.9709
vn 0.8180 -0.3332 0.4689
vn 0.3951 -0.3079 0.8655
vn -0.3979 -0.1085 0.9110
vn 0.8445 -0.1880 0.5015
vn 0.2504 -0.2184 0.9432
vn 0.8913 -0.4535 0.0019
vn -0.9607 -0.0345 -0.2756
vn -0.1780 -0.5567 0.8114
vn -0.6173 -0.6668 0.4176
vn 0.1424 -0.4784 0.8665
vn 0.4207 -0.8653 -0.2726
vn 0.1578 -0.3994 -0.9031
vn -0.1989 -0.2433 -0.9493
vn -0.1025 -0.3284 -0.9390
vn -0.4359 -0.5026 -0.7466
vn 0.4956 -0.4524 -0.7414
vn -0.8526 -0.4730 0.2222
vn 0.5371 -0.5520 0.6379
s 1
f 1/1/1 2/2/2 3/3/3
f 4/4/4 5/5/5 1/1/1
f 5/5/5 6/6/6 2/2/2
f 5/5/5 7/7/7 8/8/8
f 8/8/8 9/9/9 6/6/6
f 8/8/8 10/10/10 11/11/11
f 12/12/12 13/13/13 14/14/14
f 15/15/15 16/16/16 12/12/12
f 16/16/16 17/17/17 13/13/13
f 18/18/18 19/19/19 16/16/16
f 19/19/19 20/20/20 17/17/17
f 21/21/21 22/22/22 19/19/19
f 23/23/23 24/24/24 25/25/25
f 26/26/26 27/27/27 23/23/23
f 27/27/27 28/28/28 24/24/24
f 27/27/27 29/29/29 30/30/30
f 30/30/30 31/31/31 28/28/28
f 30/30/30 32/32/32 33/33/33
f 34/34/34 35/35/35 36/36/36
f 37/37/37 38/38/38 34/34/34
f 38/38/38 39/39/39 35/35/35
f 38/38/38 40/40/40 41/41/41
f 41/41/41 42/42/42 39/39/39
f 41/41/41 43/43/43 44/44/44
f 45/45/45 46/46/46 47/47/47
f 48/48/48 46/46/46 49/49/49
f 47/47/47 50/50/50 51/51/51
f 46/46/46 52/52/52 50/50/50
f 50/50/50 53/53/53 51/51/51
f 50/50/50 54/54/54 55/55/55
f 56/56/56 57/57/57 58/58/58
f 59/59/59 60/60/60 56/56/56
f 57/57/57 61/61/61 62/62/62
f 60/60/60 63/63/63 61/61/61
f 62/62/62 64/64/64 65/65/65
f 61/61/61 66/66/66 64/64/64
f 67/67/67 68/68/68 69/69/69
f 70/70/70 71/71/71 67/67/67
f 68/68/68 72/72/72 73/73/73
f 71/71/71 74/74/74 72/72/72
f 72/72/72 75/75/75 73/73/73
f 74/74/74 76/76/76 72/72/72
f 77/77/77 78/78/78 79/79/79
f 80/80/80 81/81/81 77/77/77
f 81/81/81 82/82/82 78/78/78
f 81/81/81 83/83/83 84/84/84
f 84/84/84 85/85/85 82/82/82
f 84/84/84 86/86/86 87/87/87
f 88/88/88 89/89/89 90/90/90
f 91/91/91 92/92/92 88/88/88
f 92/92/92 93/93/93 89/89/89
f 92/92/92 94/94/94 95/95/95
f 95/95/95 96/96/96 93/93/93
f 95/95/95 97/97/97 98/98/98
f 99/99/99 100/100/100 101/101/101
f 102/102/102 103/103/103 99/99/99
f 100/100/100 104/104/104 105/105/105
f 103/103/103 106/106/106 104/104/104
f 105/105/105 107/107/107 108/108/108
f 104/104/104 109/109/109 107/107/107
f 110/110/110 111/111/111 112/112/112
f 113/113/113 114/114/114 110/110/110
f 114/114/114 115/115/115 111/111/111
f 114/114/114 116/116/116 117/117/117
f 117/117/117 118/118/118 115/115/115
f 117/117/117 119/119/119 120/120/120
f 121/121/121 122/122/122 123/123/123
f 124/124/124 125/125/125 121/121/121
f 125/125/125 126/126/126 122/122/122
f 125/125/125 127/127/127 128/128/128
f 128/128/128 129/129/129 126/126/126
f 128/128/128 130/130/130 131/131/131
f 1/1/1 5/5/5 2/2/2
f 4/4/4 132/132/132 5/5/5
f 5/5/5 8/8/8 6/6/6
f 5/5/5 132/132/132 7/7/7
f 8/8/8 11/11/11 9/9/9
f 8/8/8 7/7/7 10/10/10
f 12/12/12 16/16/16 13/13/13
f 15/15/15 18/18/18 16/16/16
f 16/16/16 19/19/19 17/17/17
f 18/18/18 21/21/21 19/19/19
f 19/19/19 22/22/22 20/20/20
f 21/21/21 133/133/133 22/22/22
f 23/23/23 27/27/27 24/24/24
f 26/26/26 134/134/134 27/27/27
f 27/27/27 30/30/30 28/28/28
f 27/27/27 134/134/134 29/29/29
f 30/30/30 33/33/33 31/31/31
f 30/30/30 29/29/29 32/32/32
f 34/34/34 38/38/38 35/35/35
f 37/37/37 135/135/135 38/38/38
f 38/38/38 41/41/41 39/39/39
f 38/38/38 135/135/135 40/40/40
f 41/41/41 44/44/44 42/42/42
f 41/41/41 40/40/40 43/43/43
f 45/45/45 49/49/49 46/46/46
f 48/48/48 136/136/136 46/46/46
f 47/47/47 46/46/46 50/50/50
f 46/46/46 136/136/136 52/52/52
f 50/50/50 55/55/55 53/53/53
f 50/50/50 52/52/52 54/54/54
f 56/56/56 60/60/60 57/57/57
f 59/59/59 137/137/137 60/60/60
f 57/57/57 60/60/60 61/61/61
f 60/60/60 137/137/137 63/63/63
f 62/62/62 61/61/61 64/64/64
f 61/61/61 63/63/63 66/66/66
f 67/67/67 71/71/71 68/68/68
f 70/70/70 138/138/138 71/71/71
f 68/68/68 71/71/71 72/72/72
f 71/71/71 138/138/138 74/74/74
f 72/72/72 76/76/76 75/75/75
f 74/74/74 139/139/139 76/76/76
f 77/77/77 81/81/81 78/78/78
f 80/80/80 140/140/140 81/81/81
f 81/81/81 84/84/84 82/82/82
f 81/81/81 140/140/140 83/83/83
f 84/84/84 87/87/87 85/85/85
f 84/84/84 83/83/83 86/86/86
f 88/88/88 92/92/92 89/89/89
f 91/91/91 141/141/141 92/92/92
f 92/92/92 95/95/95 93/93/93
f 92/92/92 141/141/141 94/94/94
f 95/95/95 98/98/98 96/96/96
f 95/95/95 94/94/94 97/97/97
f 99/99/99 103/103/103 100/100/100
f 102/102/102 142/142/142 103/103/103
f 100/100/100 103/103/103 104/104/104
f 103/103/103 142/142/142 106/106/106
f 105/105/105 104/104/104 107/107/107
f 104/104/104 106/106/106 109/109/109
f 110/110/110 114/114/114 111/111/111
f 113/113/113 143/143/143 114/114/114
f 114/114/114 117/117/117 115/115/115
f 114/114/114 143/143/143 116/116/116
f 117/117/117 120/120/120 118/118/118
f 117/117/117 116/116/116 119/119/119
f 121/121/121 125/125/125 122/122/122
f 124/124/124 144/144/144 125/125/125
f 125/125/125 128/128/128 126/126/126
f 125/125/125 144/144/144 127/127/127
f 128/128/128 131/131/131 129/129/129
f 128/128/128 127/127/127 130/130/130
