# Blender v2.93.0 OBJ File: 'sofa.blend'
# www.blender.org
mtllib sofa.mtl
o Cylinder_Cylinder.003
v 0.005860 -0.518988 1.331478
v 2.005860 -0.518988 1.331478
v 0.005860 -0.418082 1.321263
v 2.005860 -0.418082 1.321263
v 0.005860 -0.321053 1.291012
v 2.005860 -0.321053 1.291012
v 0.005860 -0.231631 1.241886
v 2.005860 -0.231631 1.241886
v 0.005860 -0.153251 1.175775
v 2.005860 -0.153251 1.175775
v 0.005860 -0.088927 1.095217
v 2.005860 -0.088927 1.095217
v 0.005860 -0.041130 1.003310
v 2.005860 -0.041130 1.003310
v 0.005860 -0.011697 0.903585
v 2.005860 -0.011697 0.903585
v 0.005860 -0.001758 0.799874
v 2.005860 -0.001758 0.799874
v 0.005474 -0.518992 0.787971
v 2.007161 -0.517811 0.797422
v -1.987653 -0.518988 1.325680
v -1.987653 -1.401161 1.325685
v 2.008646 -0.518988 1.325680
v 2.008646 -1.401161 1.325686
v -1.987653 -0.519003 -1.194764
v -1.987653 -1.401176 -1.194759
v 2.008646 -0.519003 -1.194764
v 2.008646 -1.401176 -1.194759
v -1.993963 -0.519541 0.800421
v -1.993963 -0.002415 0.800421
v -1.993963 -0.519541 -1.199579
v -1.993963 -0.002415 -1.199578
v 0.006036 -0.519541 0.800421
v 0.006036 -0.002415 0.800421
v 0.006036 -0.519541 -1.199579
v 0.006037 -0.002415 -1.199578
v 0.006845 -0.519541 0.800421
v 0.006845 -0.002415 0.800421
v 0.006845 -0.519541 -1.199579
v 0.006845 -0.002415 -1.199578
v 2.006845 -0.519541 0.800421
v 2.006845 -0.002415 0.800421
v 2.006845 -0.519541 -1.199578
v 2.006845 -0.002415 -1.199578
v 2.418418 -1.399361 1.305007
v 2.009415 -1.399361 1.305007
v 2.418418 -1.399378 -1.601374
v 2.009416 -1.399378 -1.601374
v 2.418418 0.660125 1.304995
v 2.009415 0.660125 1.304995
v 2.418418 0.660107 -1.601387
v 2.009416 0.660107 -1.601387
v -1.995255 1.627925 -1.194776
v -1.995255 1.627922 -1.611296
v -1.995255 -1.391325 -1.194758
v -1.995255 -1.391327 -1.611277
v 2.002138 1.627925 -1.194776
v 2.002138 1.627922 -1.611296
v 2.002138 -1.391325 -1.194758
v 2.002138 -1.391328 -1.611277
v -1.995257 -1.399360 1.305007
v -2.404259 -1.399360 1.305007
v -1.995257 -1.399378 -1.601375
v -2.404259 -1.399378 -1.601375
v -1.995256 0.660125 1.304995
v -2.404259 0.660125 1.304995
v -1.995256 0.660107 -1.601387
v -2.404259 0.660107 -1.601387
v -1.992838 -0.518988 1.331478
v 0.007162 -0.518988 1.331478
v -1.992838 -0.418082 1.321263
v 0.007162 -0.418082 1.321263
v -1.992838 -0.321053 1.291012
v 0.007162 -0.321053 1.291012
v -1.992838 -0.231631 1.241886
v 0.007162 -0.231631 1.241886
v -1.992838 -0.153251 1.175774
v 0.007162 -0.153252 1.175774
v -1.992838 -0.088927 1.095217
v 0.007162 -0.088927 1.095217
v -1.992838 -0.041130 1.003310
v 0.007162 -0.041130 1.003310
v -1.992838 -0.011697 0.903585
v 0.007162 -0.011697 0.903585
v -1.992838 -0.001758 0.799874
v 0.007162 -0.001758 0.799874
v -1.993223 -0.518992 0.787971
v 0.008463 -0.517811 0.797422
vt 0.500000 1.000000
vt 0.468750 0.500000
vt 0.500000 0.500000
vt 0.468750 1.000000
vt 0.437500 0.500000
vt 0.437500 1.000000
vt 0.406250 0.500000
vt 0.406250 1.000000
vt 0.375000 0.500000
vt 0.375000 1.000000
vt 0.343750 0.500000
vt 0.343750 1.000000
vt 0.312500 0.500000
vt 0.312500 1.000000
vt 0.281250 0.500000
vt 0.281250 1.000000
vt 0.250000 0.500000
vt 0.000000 0.000000
vt 0.000000 0.000000
vt 0.625000 0.000000
vt 0.375000 0.250000
vt 0.375000 0.000000
vt 0.625000 0.250000
vt 0.375000 0.500000
vt 0.625000 0.500000
vt 0.375000 0.750000
vt 0.625000 1.000000
vt 0.375000 1.000000
vt 0.125000 0.750000
vt 0.125000 0.500000
vt 0.875000 0.500000
vt 0.625000 0.750000
vt 0.375000 0.000000
vt 0.625000 0.250000
vt 0.375000 0.250000
vt 0.375000 0.500000
vt 0.625000 0.500000
vt 0.375000 0.750000
vt 0.625000 0.750000
vt 0.375000 1.000000
vt 0.125000 0.750000
vt 0.125000 0.500000
vt 0.875000 0.500000
vt 0.625000 0.000000
vt 0.375000 0.250000
vt 0.375000 0.000000
vt 0.625000 0.250000
vt 0.375000 0.500000
vt 0.625000 0.500000
vt 0.375000 0.750000
vt 0.625000 0.750000
vt 0.375000 1.000000
vt 0.125000 0.750000
vt 0.125000 0.500000
vt 0.875000 0.500000
vt 0.625000 0.000000
vt 0.375000 0.250000
vt 0.375000 0.000000
vt 0.625000 0.250000
vt 0.375000 0.500000
vt 0.625000 0.500000
vt 0.375000 0.750000
vt 0.625000 0.750000
vt 0.375000 1.000000
vt 0.125000 0.750000
vt 0.125000 0.500000
vt 0.875000 0.750000
vt 0.625000 0.000000
vt 0.375000 0.250000
vt 0.375000 0.000000
vt 0.625000 0.500000
vt 0.375000 0.500000
vt 0.625000 0.750000
vt 0.375000 0.750000
vt 0.375000 1.000000
vt 0.125000 0.750000
vt 0.125000 0.500000
vt 0.875000 0.500000
vt 0.625000 0.000000
vt 0.375000 0.250000
vt 0.375000 0.000000
vt 0.625000 0.250000
vt 0.375000 0.500000
vt 0.625000 0.500000
vt 0.375000 0.750000
vt 0.625000 0.750000
vt 0.375000 1.000000
vt 0.125000 0.750000
vt 0.125000 0.500000
vt 0.875000 0.750000
vt 0.500000 1.000000
vt 0.468750 0.500000
vt 0.500000 0.500000
vt 0.468750 1.000000
vt 0.437500 0.500000
vt 0.437500 1.000000
vt 0.406250 0.500000
vt 0.406250 1.000000
vt 0.375000 0.500000
vt 0.375000 1.000000
vt 0.343750 0.500000
vt 0.343750 1.000000
vt 0.312500 0.500000
vt 0.312500 1.000000
vt 0.281250 0.500000
vt 0.281250 1.000000
vt 0.250000 0.500000
vt 0.000000 0.000000
vt 0.000000 0.000000
vt 0.250000 1.000000
vt 0.875000 0.750000
vt 0.625000 0.000000
vt 0.625000 1.000000
vt 0.875000 0.750000
vt 0.625000 1.000000
vt 0.875000 0.750000
vt 0.625000 1.000000
vt 0.875000 0.500000
vt 0.625000 0.250000
vt 0.625000 1.000000
vt 0.875000 0.750000
vt 0.625000 1.000000
vt 0.875000 0.500000
vt 0.250000 1.000000
vn 0.0000 0.1007 0.9949
vn 0.0000 0.2976 0.9547
vn 0.0000 0.4815 0.8765
vn 0.0000 0.6448 0.7644
vn 0.0000 0.7814 0.6240
vn 0.0000 0.8872 0.4614
vn 0.0000 0.9591 0.2831
vn 0.0000 0.9954 0.0954
vn 0.0047 0.0230 -0.9997
vn -1.0000 0.0007 0.0002
vn 1.0000 0.0016 0.0019
vn 0.0006 -1.0000 0.0000
vn -0.0000 0.0000 1.0000
vn 1.0000 -0.0000 0.0000
vn 0.0000 -0.0000 -1.0000
vn -1.0000 0.0000 -0.0000
vn 0.0000 1.0000 -0.0000
vn -0.0000 -1.0000 0.0000
vn 0.0000 0.0048 -1.0000
vn -1.0000 0.0007 0.0001
vn -1.0000 0.0001 0.0007
vn -1.0000 0.0002 0.0007
vn -1.0000 0.0003 0.0006
vn -1.0000 0.0005 0.0006
vn -1.0000 0.0006 0.0005
vn -1.0000 0.0007 0.0003
vn 1.0000 0.0007 0.0023
vn 1.0000 0.0002 0.0024
vn 1.0000 0.0025 0.0002
vn 1.0000 0.0012 0.0022
vn 1.0000 0.0024 0.0007
vn 1.0000 0.0022 0.0012
vn 1.0000 0.0020 0.0016
vn -0.0000 -1.0000 -0.0022
usemtl None
s off
f 2/1/1 3/2/1 1/3/1
f 4/4/2 5/5/2 3/2/2
f 6/6/3 7/7/3 5/5/3
f 8/8/4 9/9/4 7/7/4
f 10/10/5 11/11/5 9/9/5
f 12/12/6 13/13/6 11/11/6
f 14/14/7 15/15/7 13/13/7
f 16/16/8 17/17/8 15/15/8
f 17/17/9 20/18/9 19/19/9
f 13/13/10 15/15/10 19/19/10
f 10/10/11 8/8/11 20/18/11
f 20/18/12 1/3/12 19/19/12
f 22/20/13 23/21/13 21/22/13
f 24/23/14 27/24/14 23/21/14
f 28/25/15 25/26/15 27/24/15
f 25/26/16 22/27/16 21/28/16
f 27/24/17 21/29/17 23/30/17
f 24/31/18 26/32/18 28/25/18
f 29/33/16 32/34/16 31/35/16
f 32/34/15 35/36/15 31/35/15
f 36/37/14 33/38/14 35/36/14
f 34/39/13 29/40/13 33/38/13
f 35/36/18 29/41/18 31/42/18
f 32/43/17 34/39/17 36/37/17
f 38/44/16 39/45/16 37/46/16
f 40/47/15 43/48/15 39/45/15
f 44/49/14 41/50/14 43/48/14
f 42/51/13 37/52/13 41/50/13
f 43/48/18 37/53/18 39/54/18
f 40/55/17 42/51/17 44/49/17
f 46/56/18 47/57/18 45/58/18
f 48/59/15 51/60/15 47/57/15
f 52/61/17 49/62/17 51/60/17
f 50/63/13 45/64/13 49/62/13
f 51/60/14 45/65/14 47/66/14
f 52/61/16 46/67/16 50/63/16
f 54/68/16 55/69/16 53/70/16
f 55/69/18 60/71/18 59/72/18
f 59/72/14 58/73/14 57/74/14
f 58/73/17 53/75/17 57/74/17
f 59/72/13 53/76/13 55/77/13
f 56/78/15 58/73/15 60/71/15
f 62/79/18 63/80/18 61/81/18
f 64/82/15 67/83/15 63/80/15
f 68/84/17 65/85/17 67/83/17
f 66/86/13 61/87/13 65/85/13
f 67/83/14 61/88/14 63/89/14
f 68/84/16 62/90/16 66/86/16
f 70/91/1 71/92/1 69/93/1
f 72/94/2 73/95/2 71/92/2
f 74/96/3 75/97/3 73/95/3
f 76/98/4 77/99/4 75/97/4
f 78/100/5 79/101/5 77/99/5
f 80/102/6 81/103/6 79/101/6
f 82/104/7 83/105/7 81/103/7
f 84/106/8 85/107/8 83/105/8
f 85/107/9 88/108/9 87/109/9
f 81/103/10 83/105/10 87/109/10
f 78/100/11 76/98/11 88/108/11
f 88/108/12 69/93/12 87/109/12
f 2/1/1 4/4/1 3/2/1
f 4/4/2 6/6/2 5/5/2
f 6/6/3 8/8/3 7/7/3
f 8/8/4 10/10/4 9/9/4
f 10/10/5 12/12/5 11/11/5
f 12/12/6 14/14/6 13/13/6
f 14/14/7 16/16/7 15/15/7
f 16/16/8 18/110/8 17/17/8
f 17/17/19 18/110/19 20/18/19
f 17/17/20 19/19/20 15/15/20
f 19/19/21 1/3/21 3/2/21
f 5/5/22 19/19/22 3/2/22
f 5/5/23 7/7/23 19/19/23
f 7/7/24 9/9/24 19/19/24
f 9/9/25 11/11/25 19/19/25
f 11/11/26 13/13/26 19/19/26
f 6/6/27 4/4/27 20/18/27
f 4/4/28 2/1/28 20/18/28
f 20/18/29 18/110/29 16/16/29
f 6/6/30 20/18/30 8/8/30
f 16/16/31 14/14/31 20/18/31
f 14/14/32 12/12/32 20/18/32
f 12/12/33 10/10/33 20/18/33
f 20/18/34 2/1/34 1/3/34
f 22/20/13 24/23/13 23/21/13
f 24/23/14 28/25/14 27/24/14
f 28/25/15 26/32/15 25/26/15
f 25/26/16 26/32/16 22/27/16
f 27/24/17 25/26/17 21/29/17
f 24/31/18 22/111/18 26/32/18
f 29/33/16 30/112/16 32/34/16
f 32/34/15 36/37/15 35/36/15
f 36/37/14 34/39/14 33/38/14
f 34/39/13 30/113/13 29/40/13
f 35/36/18 33/38/18 29/41/18
f 32/43/17 30/114/17 34/39/17
f 38/44/16 40/47/16 39/45/16
f 40/47/15 44/49/15 43/48/15
f 44/49/14 42/51/14 41/50/14
f 42/51/13 38/115/13 37/52/13
f 43/48/18 41/50/18 37/53/18
f 40/55/17 38/116/17 42/51/17
f 46/56/18 48/59/18 47/57/18
f 48/59/15 52/61/15 51/60/15
f 52/61/17 50/63/17 49/62/17
f 50/63/13 46/117/13 45/64/13
f 51/60/14 49/62/14 45/65/14
f 52/61/16 48/118/16 46/67/16
f 54/68/16 56/119/16 55/69/16
f 55/69/18 56/119/18 60/71/18
f 59/72/14 60/71/14 58/73/14
f 58/73/17 54/120/17 53/75/17
f 59/72/13 57/74/13 53/76/13
f 56/78/15 54/121/15 58/73/15
f 62/79/18 64/82/18 63/80/18
f 64/82/15 68/84/15 67/83/15
f 68/84/17 66/86/17 65/85/17
f 66/86/13 62/122/13 61/87/13
f 67/83/14 65/85/14 61/88/14
f 68/84/16 64/123/16 62/90/16
f 70/91/1 72/94/1 71/92/1
f 72/94/2 74/96/2 73/95/2
f 74/96/3 76/98/3 75/97/3
f 76/98/4 78/100/4 77/99/4
f 78/100/5 80/102/5 79/101/5
f 80/102/6 82/104/6 81/103/6
f 82/104/7 84/106/7 83/105/7
f 84/106/8 86/124/8 85/107/8
f 85/107/19 86/124/19 88/108/19
f 85/107/20 87/109/20 83/105/20
f 87/109/21 69/93/21 71/92/21
f 73/95/22 87/109/22 71/92/22
f 73/95/23 75/97/23 87/109/23
f 75/97/24 77/99/24 87/109/24
f 77/99/25 79/101/25 87/109/25
f 79/101/26 81/103/26 87/109/26
f 74/96/27 72/94/27 88/108/27
f 72/94/28 70/91/28 88/108/28
f 88/108/29 86/124/29 84/106/29
f 74/96/30 88/108/30 76/98/30
f 84/106/31 82/104/31 88/108/31
f 82/104/32 80/102/32 88/108/32
f 80/102/33 78/100/33 88/108/33
f 88/108/34 70/91/34 69/93/34
