# Blender v2.93.0 OBJ File: 'sofa.blend'
# www.blender.org
mtllib sofabody.mtl
o Cube_Cube.001
v -2.030859 0.912080 1.106377
v -2.030859 1.429206 1.106377
v -2.030859 0.912080 -0.893623
v -2.030859 1.429206 -0.893623
v -0.030858 0.912080 1.106377
v -0.030858 1.429206 1.106377
v -0.030858 0.912080 -0.893623
v -0.030858 1.429206 -0.893623
vt 0.625000 0.000000
vt 0.375000 0.250000
vt 0.375000 0.000000
vt 0.625000 0.250000
vt 0.375000 0.500000
vt 0.625000 0.500000
vt 0.375000 0.750000
vt 0.625000 0.750000
vt 0.375000 1.000000
vt 0.125000 0.750000
vt 0.125000 0.500000
vt 0.875000 0.500000
vt 0.625000 1.000000
vt 0.875000 0.750000
vn -1.0000 0.0000 0.0000
vn 0.0000 0.0000 -1.0000
vn 1.0000 0.0000 0.0000
vn 0.0000 0.0000 1.0000
vn 0.0000 -1.0000 0.0000
vn 0.0000 1.0000 0.0000
usemtl None
s off
f 2/1/1 3/2/1 1/3/1
f 4/4/2 7/5/2 3/2/2
f 8/6/3 5/7/3 7/5/3
f 6/8/4 1/9/4 5/7/4
f 7/5/5 1/10/5 3/11/5
f 4/12/6 6/8/6 8/6/6
f 2/1/1 4/4/1 3/2/1
f 4/4/2 8/6/2 7/5/2
f 8/6/3 6/8/3 5/7/3
f 6/8/4 2/13/4 1/9/4
f 7/5/5 5/7/5 1/10/5
f 4/12/6 2/14/6 6/8/6
o Cube.001_Cube.002
v -0.030050 0.912080 1.106377
v -0.030050 1.429206 1.106377
v -0.030050 0.912080 -0.893623
v -0.030050 1.429206 -0.893623
v 1.969950 0.912080 1.106377
v 1.969950 1.429206 1.106377
v 1.969950 0.912080 -0.893623
v 1.969950 1.429206 -0.893623
vt 0.625000 0.000000
vt 0.375000 0.250000
vt 0.375000 0.000000
vt 0.625000 0.250000
vt 0.375000 0.500000
vt 0.625000 0.500000
vt 0.375000 0.750000
vt 0.625000 0.750000
vt 0.375000 1.000000
vt 0.125000 0.750000
vt 0.125000 0.500000
vt 0.875000 0.500000
vt 0.625000 1.000000
vt 0.875000 0.750000
vn -1.0000 0.0000 0.0000
vn 0.0000 0.0000 -1.0000
vn 1.0000 0.0000 0.0000
vn 0.0000 0.0000 1.0000
vn 0.0000 -1.0000 0.0000
vn 0.0000 1.0000 0.0000
usemtl None
s off
f 10/15/7 11/16/7 9/17/7
f 12/18/8 15/19/8 11/16/8
f 16/20/9 13/21/9 15/19/9
f 14/22/10 9/23/10 13/21/10
f 15/19/11 9/24/11 11/25/11
f 12/26/12 14/22/12 16/20/12
f 10/15/7 12/18/7 11/16/7
f 12/18/8 16/20/8 15/19/8
f 16/20/9 14/22/9 13/21/9
f 14/22/10 10/27/10 9/23/10
f 15/19/11 13/21/11 9/24/11
f 12/26/12 10/28/12 14/22/12
o Cylinder_Cylinder.003
v -0.031035 0.912632 1.637433
v 1.968965 0.912632 1.637433
v -0.031035 1.013539 1.627218
v 1.968965 1.013538 1.627218
v -0.031035 1.110567 1.596967
v 1.968965 1.110567 1.596967
v -0.031035 1.199990 1.547842
v 1.968965 1.199990 1.547842
v -0.031035 1.278369 1.481730
v 1.968965 1.278369 1.481730
v -0.031035 1.342693 1.401172
v 1.968965 1.342693 1.401172
v -0.031035 1.390490 1.309265
v 1.968965 1.390490 1.309265
v -0.031035 1.419924 1.209540
v 1.968965 1.419924 1.209540
v -0.031035 1.429862 1.105829
v 1.968965 1.429862 1.105829
v -0.031421 0.912629 1.093927
v 1.970266 0.913810 1.103377
vt 0.500000 1.000000
vt 0.468750 0.500000
vt 0.500000 0.500000
vt 0.468750 1.000000
vt 0.437500 0.500000
vt 0.437500 1.000000
vt 0.406250 0.500000
vt 0.406250 1.000000
vt 0.375000 0.500000
vt 0.375000 1.000000
vt 0.343750 0.500000
vt 0.343750 1.000000
vt 0.312500 0.500000
vt 0.312500 1.000000
vt 0.281250 0.500000
vt 0.281250 1.000000
vt 0.250000 0.500000
vt 0.000000 0.000000
vt 0.000000 0.000000
vt 0.250000 1.000000
vn 0.0000 0.1007 0.9949
vn 0.0000 0.2976 0.9547
vn 0.0000 0.4815 0.8765
vn 0.0000 0.6448 0.7644
vn 0.0000 0.7814 0.6240
vn 0.0000 0.8872 0.4614
vn 0.0000 0.9591 0.2831
vn 0.0000 0.9954 0.0954
vn 0.0047 0.0230 -0.9997
vn -1.0000 0.0007 0.0002
vn 1.0000 0.0016 0.0019
vn 0.0006 -1.0000 0.0000
vn 0.0000 0.0048 -1.0000
vn -1.0000 0.0007 0.0001
vn -1.0000 0.0001 0.0007
vn -1.0000 0.0002 0.0007
vn -1.0000 0.0003 0.0006
vn -1.0000 0.0005 0.0006
vn -1.0000 0.0006 0.0005
vn -1.0000 0.0007 0.0003
vn 1.0000 0.0007 0.0023
vn 1.0000 0.0002 0.0024
vn 1.0000 0.0025 0.0002
vn 1.0000 0.0012 0.0022
vn 1.0000 0.0024 0.0007
vn 1.0000 0.0022 0.0012
vn 1.0000 0.0020 0.0016
vn -0.0000 -1.0000 -0.0022
usemtl None
s off
f 18/29/13 19/30/13 17/31/13
f 20/32/14 21/33/14 19/30/14
f 22/34/15 23/35/15 21/33/15
f 24/36/16 25/37/16 23/35/16
f 26/38/17 27/39/17 25/37/17
f 28/40/18 29/41/18 27/39/18
f 30/42/19 31/43/19 29/41/19
f 32/44/20 33/45/20 31/43/20
f 33/45/21 36/46/21 35/47/21
f 29/41/22 31/43/22 35/47/22
f 26/38/23 24/36/23 36/46/23
f 36/46/24 17/31/24 35/47/24
f 18/29/13 20/32/13 19/30/13
f 20/32/14 22/34/14 21/33/14
f 22/34/15 24/36/15 23/35/15
f 24/36/16 26/38/16 25/37/16
f 26/38/17 28/40/17 27/39/17
f 28/40/18 30/42/18 29/41/18
f 30/42/19 32/44/19 31/43/19
f 32/44/20 34/48/20 33/45/20
f 33/45/25 34/48/25 36/46/25
f 33/45/26 35/47/26 31/43/26
f 35/47/27 17/31/27 19/30/27
f 21/33/28 35/47/28 19/30/28
f 21/33/29 23/35/29 35/47/29
f 23/35/30 25/37/30 35/47/30
f 25/37/31 27/39/31 35/47/31
f 27/39/32 29/41/32 35/47/32
f 22/34/33 20/32/33 36/46/33
f 20/32/34 18/29/34 36/46/34
f 36/46/35 34/48/35 32/44/35
f 22/34/36 36/46/36 24/36/36
f 32/44/37 30/42/37 36/46/37
f 30/42/38 28/40/38 36/46/38
f 28/40/39 26/38/39 36/46/39
f 36/46/40 18/29/40 17/31/40
o Cylinder.001_Cylinder.004
v -2.029732 0.912632 1.637433
v -0.029732 0.912632 1.637433
v -2.029732 1.013539 1.627218
v -0.029732 1.013538 1.627218
v -2.029732 1.110567 1.596967
v -0.029732 1.110567 1.596967
v -2.029732 1.199990 1.547842
v -0.029732 1.199990 1.547842
v -2.029732 1.278369 1.481730
v -0.029732 1.278369 1.481730
v -2.029732 1.342693 1.401172
v -0.029732 1.342693 1.401172
v -2.029732 1.390490 1.309265
v -0.029732 1.390490 1.309265
v -2.029732 1.419924 1.209540
v -0.029732 1.419924 1.209540
v -2.029732 1.429862 1.105829
v -0.029732 1.429862 1.105829
v -2.030118 0.912629 1.093927
v -0.028432 0.913810 1.103377
vt 0.500000 1.000000
vt 0.468750 0.500000
vt 0.500000 0.500000
vt 0.468750 1.000000
vt 0.437500 0.500000
vt 0.437500 1.000000
vt 0.406250 0.500000
vt 0.406250 1.000000
vt 0.375000 0.500000
vt 0.375000 1.000000
vt 0.343750 0.500000
vt 0.343750 1.000000
vt 0.312500 0.500000
vt 0.312500 1.000000
vt 0.281250 0.500000
vt 0.281250 1.000000
vt 0.250000 0.500000
vt 0.000000 0.000000
vt 0.000000 0.000000
vt 0.250000 1.000000
vn 0.0000 0.1007 0.9949
vn 0.0000 0.2976 0.9547
vn 0.0000 0.4815 0.8765
vn 0.0000 0.6448 0.7644
vn 0.0000 0.7814 0.6240
vn 0.0000 0.8872 0.4614
vn 0.0000 0.9591 0.2831
vn 0.0000 0.9954 0.0954
vn 0.0047 0.0230 -0.9997
vn -1.0000 0.0007 0.0002
vn 1.0000 0.0016 0.0019
vn 0.0006 -1.0000 0.0000
vn 0.0000 0.0048 -1.0000
vn -1.0000 0.0007 0.0001
vn -1.0000 0.0001 0.0007
vn -1.0000 0.0002 0.0007
vn -1.0000 0.0003 0.0006
vn -1.0000 0.0005 0.0006
vn -1.0000 0.0006 0.0005
vn -1.0000 0.0007 0.0003
vn 1.0000 0.0007 0.0023
vn 1.0000 0.0002 0.0024
vn 1.0000 0.0025 0.0002
vn 1.0000 0.0012 0.0022
vn 1.0000 0.0024 0.0007
vn 1.0000 0.0022 0.0012
vn 1.0000 0.0020 0.0016
vn -0.0000 -1.0000 -0.0022
usemtl None
s off
f 38/49/41 39/50/41 37/51/41
f 40/52/42 41/53/42 39/50/42
f 42/54/43 43/55/43 41/53/43
f 44/56/44 45/57/44 43/55/44
f 46/58/45 47/59/45 45/57/45
f 48/60/46 49/61/46 47/59/46
f 50/62/47 51/63/47 49/61/47
f 52/64/48 53/65/48 51/63/48
f 53/65/49 56/66/49 55/67/49
f 49/61/50 51/63/50 55/67/50
f 46/58/51 44/56/51 56/66/51
f 56/66/52 37/51/52 55/67/52
f 38/49/41 40/52/41 39/50/41
f 40/52/42 42/54/42 41/53/42
f 42/54/43 44/56/43 43/55/43
f 44/56/44 46/58/44 45/57/44
f 46/58/45 48/60/45 47/59/45
f 48/60/46 50/62/46 49/61/46
f 50/62/47 52/64/47 51/63/47
f 52/64/48 54/68/48 53/65/48
f 53/65/53 54/68/53 56/66/53
f 53/65/54 55/67/54 51/63/54
f 55/67/55 37/51/55 39/50/55
f 41/53/56 55/67/56 39/50/56
f 41/53/57 43/55/57 55/67/57
f 43/55/58 45/57/58 55/67/58
f 45/57/59 47/59/59 55/67/59
f 47/59/60 49/61/60 55/67/60
f 42/54/61 40/52/61 56/66/61
f 40/52/62 38/49/62 56/66/62
f 56/66/63 54/68/63 52/64/63
f 42/54/64 56/66/64 44/56/64
f 52/64/65 50/62/65 56/66/65
f 50/62/66 48/60/66 56/66/66
f 48/60/67 46/58/67 56/66/67
f 56/66/68 38/49/68 37/51/68
o Cube.002_Cube.003
v -2.024548 0.912633 1.631635
v -2.024548 0.030459 1.631641
v 1.971751 0.912632 1.631635
v 1.971751 0.030459 1.631641
v -2.024548 0.912617 -0.888809
v -2.024548 0.030444 -0.888804
v 1.971751 0.912617 -0.888809
v 1.971751 0.030444 -0.888804
vt 0.625000 0.000000
vt 0.375000 0.250000
vt 0.375000 0.000000
vt 0.625000 0.250000
vt 0.375000 0.500000
vt 0.625000 0.500000
vt 0.375000 0.750000
vt 0.625000 0.750000
vt 0.375000 1.000000
vt 0.125000 0.750000
vt 0.125000 0.500000
vt 0.875000 0.500000
vt 0.625000 1.000000
vt 0.875000 0.750000
vn -0.0000 0.0000 1.0000
vn 1.0000 -0.0000 0.0000
vn 0.0000 -0.0000 -1.0000
vn -1.0000 0.0000 0.0000
vn 0.0000 1.0000 -0.0000
vn -0.0000 -1.0000 0.0000
usemtl None
s off
f 58/69/69 59/70/69 57/71/69
f 60/72/70 63/73/70 59/70/70
f 64/74/71 61/75/71 63/73/71
f 62/76/72 57/77/72 61/75/72
f 63/73/73 57/78/73 59/79/73
f 60/80/74 62/76/74 64/74/74
f 58/69/69 60/72/69 59/70/69
f 60/72/70 64/74/70 63/73/70
f 64/74/71 62/76/71 61/75/71
f 62/76/72 58/81/72 57/77/72
f 63/73/73 61/75/73 57/78/73
f 60/80/74 58/82/74 62/76/74
o Cube.003_Cube.004
v -2.032150 3.059546 -0.888821
v -2.032150 3.059543 -1.305341
v -2.032151 0.040296 -0.888803
v -2.032151 0.040293 -1.305322
v 1.965243 3.059546 -0.888821
v 1.965243 3.059543 -1.305340
v 1.965243 0.040295 -0.888803
v 1.965243 0.040293 -1.305322
vt 0.625000 0.000000
vt 0.375000 0.250000
vt 0.375000 0.000000
vt 0.625000 0.250000
vt 0.375000 0.500000
vt 0.625000 0.500000
vt 0.375000 0.750000
vt 0.625000 0.750000
vt 0.375000 1.000000
vt 0.125000 0.750000
vt 0.125000 0.500000
vt 0.875000 0.500000
vt 0.625000 1.000000
vt 0.875000 0.750000
vn -1.0000 0.0000 -0.0000
vn -0.0000 -1.0000 0.0000
vn 1.0000 -0.0000 0.0000
vn 0.0000 1.0000 -0.0000
vn -0.0000 0.0000 1.0000
vn -0.0000 -0.0000 -1.0000
usemtl None
s off
f 66/83/75 67/84/75 65/85/75
f 68/86/76 71/87/76 67/84/76
f 72/88/77 69/89/77 71/87/77
f 70/90/78 65/91/78 69/89/78
f 71/87/79 65/92/79 67/93/79
f 68/94/80 70/90/80 72/88/80
f 66/83/75 68/86/75 67/84/75
f 68/86/76 72/88/76 71/87/76
f 72/88/77 70/90/77 69/89/77
f 70/90/78 66/95/78 65/91/78
f 71/87/79 69/89/79 65/92/79
f 68/94/80 66/96/80 70/90/80
o Cube.004_Cube.005
v -2.032151 0.032260 1.610963
v -2.441154 0.032260 1.610963
v -2.032151 0.032242 -1.295419
v -2.441154 0.032242 -1.295419
v -2.032151 2.091745 1.610950
v -2.441154 2.091745 1.610950
v -2.032151 2.091727 -1.295432
v -2.441154 2.091727 -1.295432
vt 0.625000 0.000000
vt 0.375000 0.250000
vt 0.375000 0.000000
vt 0.625000 0.250000
vt 0.375000 0.500000
vt 0.625000 0.500000
vt 0.375000 0.750000
vt 0.625000 0.750000
vt 0.375000 1.000000
vt 0.125000 0.750000
vt 0.125000 0.500000
vt 0.875000 0.500000
vt 0.625000 1.000000
vt 0.875000 0.750000
vn 0.0000 -1.0000 0.0000
vn 0.0000 -0.0000 -1.0000
vn 0.0000 1.0000 -0.0000
vn 0.0000 0.0000 1.0000
vn 1.0000 0.0000 0.0000
vn -1.0000 0.0000 0.0000
usemtl None
s off
f 74/97/81 75/98/81 73/99/81
f 76/100/82 79/101/82 75/98/82
f 80/102/83 77/103/83 79/101/83
f 78/104/84 73/105/84 77/103/84
f 79/101/85 73/106/85 75/107/85
f 76/108/86 78/104/86 80/102/86
f 74/97/81 76/100/81 75/98/81
f 76/100/82 80/102/82 79/101/82
f 80/102/83 78/104/83 77/103/83
f 78/104/84 74/109/84 73/105/84
f 79/101/85 77/103/85 73/106/85
f 76/108/86 74/110/86 78/104/86
o Cube.005_Cube.006
v 2.381523 0.032260 1.610963
v 1.972520 0.032260 1.610963
v 2.381523 0.032242 -1.295419
v 1.972520 0.032242 -1.295419
v 2.381523 2.091745 1.610950
v 1.972520 2.091745 1.610950
v 2.381523 2.091727 -1.295432
v 1.972520 2.091727 -1.295432
vt 0.625000 0.000000
vt 0.375000 0.250000
vt 0.375000 0.000000
vt 0.625000 0.250000
vt 0.375000 0.500000
vt 0.625000 0.500000
vt 0.375000 0.750000
vt 0.625000 0.750000
vt 0.375000 1.000000
vt 0.125000 0.750000
vt 0.125000 0.500000
vt 0.875000 0.500000
vt 0.625000 1.000000
vt 0.875000 0.750000
vn 0.0000 -1.0000 0.0000
vn 0.0000 -0.0000 -1.0000
vn 0.0000 1.0000 -0.0000
vn 0.0000 0.0000 1.0000
vn 1.0000 0.0000 0.0000
vn -1.0000 0.0000 0.0000
usemtl None
s off
f 82/111/87 83/112/87 81/113/87
f 84/114/88 87/115/88 83/112/88
f 88/116/89 85/117/89 87/115/89
f 86/118/90 81/119/90 85/117/90
f 87/115/91 81/120/91 83/121/91
f 84/122/92 86/118/92 88/116/92
f 82/111/87 84/114/87 83/112/87
f 84/114/88 88/116/88 87/115/88
f 88/116/89 86/118/89 85/117/89
f 86/118/90 82/123/90 81/119/90
f 87/115/91 85/117/91 81/120/91
f 84/122/92 82/124/92 86/118/92
