# Blender v2.92.0 OBJ File: 'spongebob.blend'
# www.blender.org
o sepatu_3D_Object_52.002
v -0.084597 -0.521954 0.005082
v -0.138797 -0.521954 0.005082
v -0.111697 -0.521954 -0.012118
v -0.144697 -0.477054 -0.003018
v -0.127597 -0.448354 0.004682
v -0.111697 -0.479554 -0.028518
v -0.111697 -0.448554 -0.006118
v -0.086897 -0.475054 0.056982
v -0.097097 -0.448354 0.012782
v -0.111697 -0.470654 0.061182
v -0.108597 -0.448554 0.028282
v -0.125197 -0.448254 0.020782
v -0.136697 -0.475054 0.056982
v -0.142897 -0.509554 -0.006318
v -0.111697 -0.509554 -0.015518
v -0.080597 -0.509554 -0.006318
v -0.078797 -0.477054 -0.003018
v -0.070197 -0.509554 0.018082
v -0.081197 -0.458454 0.148682
v -0.111697 -0.444954 0.150582
v -0.111697 -0.477754 0.162482
v -0.146997 -0.494254 0.051582
v -0.153197 -0.509554 0.018082
v -0.075197 -0.515854 0.082682
v -0.148197 -0.515854 0.082682
v -0.081897 -0.509754 0.049482
v -0.141597 -0.509754 0.049482
v -0.075197 -0.515854 0.082682
v -0.081897 -0.509754 0.049482
v -0.076897 -0.494254 0.051582
v -0.081297 -0.521954 0.046882
v -0.084597 -0.521954 0.005082
v -0.111697 -0.448554 -0.006118
v -0.097097 -0.448354 0.012782
v -0.127597 -0.448354 0.004682
v -0.125197 -0.448254 0.020782
v -0.108597 -0.448554 0.028282
v -0.111697 -0.521954 -0.012118
v -0.138797 -0.521954 0.005082
v -0.142197 -0.458454 0.148682
v -0.138097 -0.511754 0.142682
v -0.085397 -0.511754 0.142682
v -0.141597 -0.509754 0.049482
v -0.142197 -0.521954 0.046482
v -0.111697 -0.436054 0.108682
v -0.149997 -0.448854 0.109782
v -0.148197 -0.515854 0.082682
v -0.161797 -0.489954 0.118182
v -0.152497 -0.522854 0.119282
v -0.152497 -0.522854 0.119282
v -0.070897 -0.522854 0.119282
v -0.061597 -0.489954 0.118182
v -0.070897 -0.522854 0.119282
v -0.138097 -0.511754 0.142682
v -0.085397 -0.511754 0.142682
v -0.111697 -0.500954 0.154082
v -0.142197 -0.521954 0.046482
v -0.081297 -0.521954 0.046882
v -0.111697 -0.500954 0.154082
v -0.072797 -0.448654 0.105082
v 0.125703 -0.479554 -0.028518
v 0.092803 -0.477054 -0.003018
v 0.125703 -0.448554 -0.006118
v 0.110903 -0.448354 0.012782
v 0.150703 -0.475054 0.056982
v 0.139403 -0.448254 0.020782
v 0.125703 -0.470654 0.061182
v 0.122603 -0.448554 0.028282
v 0.100903 -0.475054 0.056982
v 0.094603 -0.509554 -0.006318
v 0.125703 -0.509554 -0.015518
v 0.156903 -0.509554 -0.006318
v 0.158703 -0.477054 -0.003018
v 0.167203 -0.509554 0.018082
v 0.156203 -0.458454 0.148682
v 0.125703 -0.444954 0.150582
v 0.125703 -0.477754 0.162482
v 0.090903 -0.494254 0.051582
v 0.084203 -0.509554 0.018082
v 0.162203 -0.515854 0.082682
v 0.089203 -0.515854 0.082682
v 0.155603 -0.509754 0.049482
v 0.095903 -0.509754 0.049482
v 0.162203 -0.515854 0.082682
v 0.155603 -0.509754 0.049482
v 0.161003 -0.494254 0.051582
v 0.156103 -0.521954 0.046882
v 0.152803 -0.521954 0.005082
v 0.141703 -0.448354 0.004682
v 0.125703 -0.448554 -0.006118
v 0.110903 -0.448354 0.012782
v 0.139403 -0.448254 0.020782
v 0.122603 -0.448554 0.028282
v 0.141703 -0.448354 0.004682
v 0.125703 -0.521954 -0.012118
v 0.098603 -0.521954 0.005082
v 0.095203 -0.458454 0.148682
v 0.099403 -0.511754 0.142682
v 0.152103 -0.511754 0.142682
v 0.095903 -0.509754 0.049482
v 0.095303 -0.521954 0.046482
v 0.125703 -0.436054 0.108682
v 0.087403 -0.448854 0.109782
v 0.089203 -0.515854 0.082682
v 0.075603 -0.489954 0.118182
v 0.084903 -0.522854 0.119282
v 0.166503 -0.522854 0.119282
v 0.084903 -0.522854 0.119282
v 0.175803 -0.489954 0.118182
v 0.166503 -0.522854 0.119282
v 0.099403 -0.511754 0.142682
v 0.152103 -0.511754 0.142682
v 0.125703 -0.500954 0.154082
v 0.095303 -0.521954 0.046482
v 0.156103 -0.521954 0.046882
v 0.152803 -0.521954 0.005082
v 0.098603 -0.521954 0.005082
v 0.125703 -0.500954 0.154082
v 0.164603 -0.448654 0.105082
v 0.125703 -0.521954 -0.012118
vt 0.484900 1.648000
vt 0.455300 1.648000
vt 0.470100 1.635800
vt -1.918100 1.900500
vt -1.912500 1.903900
vt -1.904900 1.886600
vt -1.904900 1.896600
vt -1.892700 1.936300
vt -1.897900 1.909300
vt -1.904900 1.938600
vt -1.904900 1.919800
vt -1.911400 1.914700
vt -1.917200 1.936300
vt -1.917400 1.898700
vt -1.904900 1.893700
vt -1.892400 1.898700
vt -1.891700 1.900500
vt -1.888300 1.912000
vt -1.892700 1.981200
vt -1.904900 1.985900
vt -1.904900 1.990500
vt -1.921400 1.938000
vt -1.921500 1.912000
vt 0.490100 1.697000
vt 0.450100 1.697000
vt 0.487600 1.675600
vt 0.452600 1.675600
vt -1.890300 1.947100
vt -1.892100 1.929100
vt -1.888400 1.938000
vt -1.892700 1.927600
vt -1.894100 1.905700
vt -1.904900 1.895500
vt -1.915800 1.905700
vt -1.917100 1.981200
vt -1.915400 1.980700
vt -1.894400 1.980700
vt -1.917700 1.929100
vt -1.917100 1.927400
vt -1.904900 1.963300
vt -1.920200 1.963900
vt -1.919500 1.947100
vt -1.925000 1.969100
vt -1.921200 1.968400
vt 0.447800 1.722300
vt 0.492400 1.722300
vt -1.884900 1.969100
vt -1.888600 1.968400
vt 0.455700 1.736900
vt 0.484500 1.736900
vt 0.470100 1.740900
vt 0.453400 1.673700
vt 0.486700 1.673900
vt -1.904900 1.984100
vt -1.901500 1.966900
vt -1.904900 1.886600
vt -1.918100 1.900500
vt -1.904900 1.896600
vt -1.912000 1.909300
vt -1.892700 1.936300
vt -1.898400 1.914700
vt -1.904900 1.938600
vt -1.904900 1.919800
vt -1.917200 1.936300
vt -1.917400 1.898700
vt -1.904900 1.893700
vt -1.892400 1.898700
vt -1.891700 1.900500
vt -1.888300 1.912000
vt -1.892700 1.981200
vt -1.904900 1.985900
vt -1.904900 1.990500
vt -1.921400 1.938000
vt -1.921500 1.912000
vt 0.490100 1.697000
vt 0.450100 1.697000
vt 0.487600 1.675600
vt 0.452600 1.675600
vt -1.890300 1.947100
vt -1.892100 1.929100
vt -1.888400 1.938000
vt -1.892700 1.927600
vt -1.894100 1.905700
vt -1.897300 1.903900
vt -1.904900 1.895500
vt -1.915800 1.905700
vt -1.917100 1.981200
vt -1.915400 1.980700
vt -1.894400 1.980700
vt -1.917700 1.929100
vt -1.917100 1.927400
vt -1.904900 1.963300
vt -1.920200 1.963900
vt -1.919500 1.947100
vt -1.925000 1.969100
vt -1.921200 1.968400
vt 0.492400 1.722300
vt 0.447800 1.722300
vt -1.884900 1.969100
vt -1.888600 1.968400
vt 0.455700 1.736900
vt 0.484500 1.736900
vt 0.470100 1.740900
vt 0.453400 1.673700
vt 0.486700 1.673900
vt 0.484900 1.648000
vt 0.455300 1.648000
vt -1.904900 1.984100
vt -1.901500 1.966900
vt 0.470100 1.635800
vn 0.0000 -1.0000 -0.0000
vn -0.9009 0.3598 -0.2426
vn -0.6846 0.5506 -0.4777
vn -0.0863 0.1509 -0.9848
vn 0.2427 0.6422 -0.7271
vn 0.7552 0.6507 -0.0789
vn 0.6561 0.7376 0.1597
vn 0.0497 0.9986 -0.0157
vn 0.2247 0.7990 0.5578
vn -0.5994 0.7188 0.3522
vn -0.7499 0.6594 -0.0542
vn -0.5958 -0.3413 -0.7270
vn 0.0004 -0.3320 -0.9433
vn 0.5958 -0.3401 -0.7275
vn 0.8589 0.3865 -0.3359
vn 0.9433 -0.3303 -0.0325
vn 0.6538 0.2994 0.6949
vn 0.0028 0.8357 0.5492
vn 0.0002 -0.0481 0.9988
vn -0.9972 0.0672 -0.0326
vn -0.9409 -0.3369 -0.0347
vn 0.0000 -0.9828 -0.1846
vn -0.0000 -0.9621 0.2727
vn -0.0028 -0.6289 0.7775
vn 0.9458 -0.2543 -0.2023
vn 0.9253 -0.3749 0.0567
vn 0.9967 0.0742 -0.0319
vn 0.9947 0.0657 -0.0785
vn 0.7794 -0.5789 -0.2394
vn 0.0005 -0.5226 -0.8526
vn -0.7793 -0.5792 -0.2393
vn -0.6511 0.2948 0.6994
vn -0.5957 -0.2070 0.7761
vn 0.5951 -0.2074 0.7764
vn -0.9213 -0.3852 0.0540
vn -0.9943 0.0690 -0.0817
vn -0.0171 0.9769 -0.2131
vn -0.5849 0.8020 -0.1216
vn -0.9433 -0.2651 -0.1996
vn -0.9954 0.0299 0.0911
vn -0.9393 -0.2580 0.2260
vn -0.0000 -0.9724 0.2333
vn 0.0000 -0.9998 0.0185
vn 0.9962 0.0225 0.0843
vn 0.9391 -0.2578 0.2273
vn -0.0000 -0.8250 0.5652
vn 0.0000 -0.8537 0.5207
vn 0.0000 -0.7260 0.6877
vn -0.0026 -0.9174 0.3980
vn -0.0026 -0.5961 0.8029
vn 0.0006 -0.3404 0.9403
vn 0.5793 0.8024 -0.1433
vn 0.0860 0.1508 -0.9848
vn -0.8592 0.3854 -0.3366
vn -0.2427 0.6407 -0.7284
vn -0.6555 0.7381 0.1597
vn 0.7570 0.6502 -0.0648
vn 0.6005 0.7181 0.3517
vn -0.0744 0.9971 -0.0149
vn -0.2214 0.7997 0.5581
vn -0.7497 0.6584 -0.0678
vn -0.5958 -0.3401 -0.7275
vn -0.0004 -0.3320 -0.9433
vn 0.5958 -0.3413 -0.7270
vn 0.9012 0.3585 -0.2434
vn 0.9409 -0.3369 -0.0347
vn 0.6539 0.3000 0.6946
vn -0.0002 -0.0481 0.9988
vn -0.9967 0.0742 -0.0319
vn -0.9433 -0.3303 -0.0325
vn 0.0000 -0.9827 -0.1852
vn -0.0000 -0.9831 -0.1831
vn 0.9433 -0.2651 -0.1996
vn 0.9201 -0.3878 0.0548
vn 0.9972 0.0672 -0.0326
vn 0.9952 0.0575 -0.0786
vn 0.7780 -0.5814 -0.2380
vn 0.6839 0.5496 -0.4798
vn -0.0005 -0.5226 -0.8526
vn -0.7797 -0.5784 -0.2397
vn -0.6510 0.2942 0.6997
vn -0.5951 -0.2074 0.7764
vn 0.5957 -0.2070 0.7761
vn -0.9256 -0.3743 0.0565
vn -0.9945 0.0684 -0.0793
vn -0.5849 0.8018 -0.1222
vn -0.9457 -0.2543 -0.2023
vn -0.9956 0.0298 0.0888
vn -0.9391 -0.2578 0.2273
vn 0.9960 0.0227 0.0867
vn 0.9393 -0.2580 0.2260
vn -0.0006 -0.3404 0.9403
vn 0.5793 0.8025 -0.1426
s 1
f 1/1/1 2/2/1 3/3/1
f 4/4/2 5/5/3 6/6/4
f 5/5/3 7/7/5 6/6/4
f 8/8/6 9/9/7 10/10/8
f 9/9/7 11/11/9 10/10/8
f 5/5/3 4/4/2 12/12/10
f 13/13/11 12/12/10 4/4/2
f 4/4/2 6/6/4 14/14/12
f 14/14/12 6/6/4 15/15/13
f 16/16/14 17/17/15 18/18/16
f 19/19/17 20/20/18 21/21/19
f 13/13/11 4/4/2 22/22/20
f 22/22/20 4/4/2 23/23/21
f 24/24/22 25/25/22 26/26/23
f 25/25/22 27/27/24 26/26/23
f 28/28/25 29/29/26 30/30/27
f 31/31/28 32/32/29 29/29/26
f 29/29/26 32/32/29 18/18/16
f 6/6/4 7/7/5 17/17/15
f 7/7/5 9/9/7 17/17/15
f 9/9/7 8/8/6 17/17/15
f 13/13/11 10/10/8 12/12/10
f 11/11/9 12/12/10 10/10/8
f 17/17/15 16/16/14 6/6/4
f 6/6/4 16/16/14 15/15/13
f 32/32/29 38/33/30 16/16/14
f 16/16/14 38/33/30 15/15/13
f 39/34/31 14/14/12 38/33/30
f 38/33/30 14/14/12 15/15/13
f 8/8/6 30/30/27 17/17/15
f 17/17/15 30/30/27 18/18/16
f 30/30/27 29/29/26 18/18/16
f 32/32/29 16/16/14 18/18/16
f 20/20/18 40/35/32 21/21/19
f 40/35/32 41/36/33 21/21/19
f 21/21/19 42/37/34 19/19/17
f 4/4/2 14/14/12 23/23/21
f 14/14/12 39/34/31 23/23/21
f 23/23/21 39/34/31 43/38/35
f 43/38/35 39/34/31 44/39/36
f 45/40/37 10/10/8 46/41/38
f 13/13/11 46/41/38 10/10/8
f 22/22/20 43/38/35 47/42/39
f 22/22/20 47/42/39 48/43/40
f 47/42/39 49/44/41 48/43/40
f 46/41/38 13/13/11 48/43/40
f 48/43/40 13/13/11 22/22/20
f 50/45/42 25/25/22 51/46/43
f 24/24/22 51/46/43 25/25/22
f 30/30/27 52/47/44 28/28/25
f 52/47/44 53/48/45 28/28/25
f 45/40/37 46/41/38 20/20/18
f 46/41/38 40/35/32 20/20/18
f 40/35/32 48/43/40 41/36/33
f 49/44/41 41/36/33 48/43/40
f 40/35/32 46/41/38 48/43/40
f 54/49/46 55/50/47 56/51/48
f 19/19/17 42/37/34 52/47/44
f 42/37/34 53/48/45 52/47/44
f 57/52/49 58/53/50 27/27/24
f 58/53/50 26/26/23 27/27/24
f 58/53/50 57/52/49 1/1/1
f 1/1/1 57/52/49 2/2/1
f 23/23/21 43/38/35 22/22/20
f 21/21/19 41/36/33 59/54/51
f 59/54/51 42/37/34 21/21/19
f 45/40/37 20/20/18 60/55/52
f 20/20/18 19/19/17 60/55/52
f 60/55/52 19/19/17 52/47/44
f 30/30/27 8/8/6 52/47/44
f 8/8/6 60/55/52 52/47/44
f 45/40/37 60/55/52 10/10/8
f 10/10/8 60/55/52 8/8/6
f 51/46/43 55/50/47 50/45/42
f 50/45/42 55/50/47 54/49/46
f 61/56/53 62/57/54 63/58/55
f 62/57/54 64/59/56 63/58/55
f 65/60/57 66/61/58 67/62/59
f 66/61/58 68/63/60 67/62/59
f 69/64/61 64/59/56 62/57/54
f 62/57/54 61/56/53 70/65/62
f 70/65/62 61/56/53 71/66/63
f 72/67/64 73/68/65 74/69/66
f 75/70/67 76/71/18 77/72/68
f 69/64/61 62/57/54 78/73/69
f 78/73/69 62/57/54 79/74/70
f 80/75/71 81/76/72 82/77/23
f 81/76/72 83/78/24 82/77/23
f 84/79/73 85/80/74 86/81/75
f 87/82/76 88/83/77 85/80/74
f 85/80/74 88/83/77 74/69/66
f 73/68/65 61/56/53 94/84/78
f 63/58/55 94/84/78 61/56/53
f 94/84/78 66/61/58 73/68/65
f 66/61/58 65/60/57 73/68/65
f 69/64/61 67/62/59 64/59/56
f 68/63/60 64/59/56 67/62/59
f 73/68/65 72/67/64 61/56/53
f 61/56/53 72/67/64 71/66/63
f 88/83/77 95/85/79 72/67/64
f 72/67/64 95/85/79 71/66/63
f 96/86/80 70/65/62 95/85/79
f 95/85/79 70/65/62 71/66/63
f 65/60/57 86/81/75 73/68/65
f 73/68/65 86/81/75 74/69/66
f 86/81/75 85/80/74 74/69/66
f 88/83/77 72/67/64 74/69/66
f 76/71/18 97/87/81 77/72/68
f 97/87/81 98/88/82 77/72/68
f 77/72/68 99/89/83 75/70/67
f 62/57/54 70/65/62 79/74/70
f 70/65/62 96/86/80 79/74/70
f 79/74/70 96/86/80 100/90/84
f 100/90/84 96/86/80 101/91/85
f 102/92/37 67/62/59 103/93/86
f 69/64/61 103/93/86 67/62/59
f 78/73/69 100/90/84 104/94/87
f 78/73/69 104/94/87 105/95/88
f 104/94/87 106/96/89 105/95/88
f 103/93/86 69/64/61 105/95/88
f 105/95/88 69/64/61 78/73/69
f 107/97/42 108/98/43 80/75/71
f 80/75/71 108/98/43 81/76/72
f 86/81/75 109/99/90 84/79/73
f 109/99/90 110/100/91 84/79/73
f 102/92/37 103/93/86 76/71/18
f 103/93/86 97/87/81 76/71/18
f 97/87/81 105/95/88 98/88/82
f 106/96/89 98/88/82 105/95/88
f 97/87/81 103/93/86 105/95/88
f 111/101/47 112/102/46 113/103/48
f 75/70/67 99/89/83 109/99/90
f 99/89/83 110/100/91 109/99/90
f 114/104/49 115/105/50 83/78/24
f 115/105/50 82/77/23 83/78/24
f 115/105/50 114/104/49 116/106/1
f 116/106/1 114/104/49 117/107/1
f 79/74/70 100/90/84 78/73/69
f 77/72/68 98/88/82 118/108/92
f 118/108/92 99/89/83 77/72/68
f 102/92/37 76/71/18 119/109/93
f 76/71/18 75/70/67 119/109/93
f 119/109/93 75/70/67 109/99/90
f 86/81/75 65/60/57 109/99/90
f 65/60/57 119/109/93 109/99/90
f 102/92/37 119/109/93 67/62/59
f 67/62/59 119/109/93 65/60/57
f 116/106/1 117/107/1 120/110/1
f 108/98/43 107/97/42 111/101/47
f 107/97/42 112/102/46 111/101/47
l 33 34
l 33 35
l 91 93
l 34 37
l 92 93
l 35 36
l 89 90
l 89 92
l 36 37
l 90 91
o alis_3D_Object_52.007
v -0.145297 0.344646 0.120882
v -0.039897 0.345146 0.121382
v -0.051797 0.349546 0.125782
v -0.101297 0.352146 0.128882
v -0.087197 0.352446 0.128682
v -0.101297 0.351146 0.130082
v -0.133597 0.348246 0.127382
v -0.133397 0.349546 0.125982
v -0.051597 0.348146 0.127282
v -0.087197 0.351146 0.130182
v -0.101297 0.351146 0.130082
v -0.087197 0.351146 0.130182
v -0.101297 0.379646 0.142682
v -0.087197 0.379746 0.142582
v -0.087197 0.351146 0.130182
v -0.087197 0.352446 0.128682
v -0.087197 0.379746 0.142582
v -0.101297 0.352146 0.128882
v -0.101297 0.379646 0.142682
v -0.087197 0.352446 0.128682
v -0.087197 0.379746 0.142582
v -0.101297 0.352146 0.128882
v -0.101297 0.351146 0.130082
v -0.101297 0.379646 0.142682
v -0.039097 0.343346 0.122682
v -0.039897 0.345146 0.121382
v -0.025697 0.370446 0.136682
v -0.025697 0.370446 0.136682
v -0.039897 0.345146 0.121382
v -0.037797 0.374846 0.139282
v -0.051797 0.349546 0.125782
v -0.051797 0.349546 0.125782
v -0.051597 0.348146 0.127282
v -0.037797 0.374846 0.139282
v -0.039097 0.343346 0.122682
v -0.025697 0.370446 0.136682
v -0.051597 0.348146 0.127282
v -0.037797 0.374846 0.139282
v -0.145297 0.344646 0.120882
v -0.145997 0.342946 0.122282
v -0.157697 0.370646 0.136082
v -0.145997 0.342946 0.122282
v -0.133597 0.348246 0.127382
v -0.157697 0.370646 0.136082
v -0.145497 0.374046 0.138282
v -0.133597 0.348246 0.127382
v -0.133397 0.349546 0.125982
v -0.145497 0.374046 0.138282
v -0.145297 0.344646 0.120882
v -0.157697 0.370646 0.136082
v -0.133397 0.349546 0.125982
v -0.145497 0.374046 0.138282
v -0.039097 0.343346 0.122682
v 0.056303 0.344646 0.120882
v 0.055603 0.342946 0.122282
v 0.161703 0.345146 0.121382
v 0.149803 0.349546 0.125782
v 0.100403 0.352146 0.128882
v 0.114403 0.352446 0.128682
v 0.100303 0.351146 0.130082
v 0.068003 0.348246 0.127382
v 0.068303 0.349546 0.125982
v 0.150003 0.348146 0.127282
v 0.114403 0.351146 0.130182
v 0.100303 0.351146 0.130082
v 0.114403 0.351146 0.130182
v 0.100403 0.379646 0.142682
v 0.114403 0.379746 0.142582
v 0.114403 0.351146 0.130182
v 0.114403 0.352446 0.128682
v 0.114403 0.379746 0.142582
v 0.100403 0.352146 0.128882
v 0.100403 0.379646 0.142682
v 0.114403 0.352446 0.128682
v 0.114403 0.379746 0.142582
v 0.100403 0.352146 0.128882
v 0.100303 0.351146 0.130082
v 0.100403 0.379646 0.142682
v 0.162503 0.343346 0.122682
v 0.161703 0.345146 0.121382
v 0.175903 0.370446 0.136682
v 0.175903 0.370446 0.136682
v 0.161703 0.345146 0.121382
v 0.163903 0.374846 0.139282
v 0.149803 0.349546 0.125782
v 0.149803 0.349546 0.125782
v 0.150003 0.348146 0.127282
v 0.163903 0.374846 0.139282
v 0.162503 0.343346 0.122682
v 0.175903 0.370446 0.136682
v 0.150003 0.348146 0.127282
v 0.163903 0.374846 0.139282
v 0.056303 0.344646 0.120882
v 0.055603 0.342946 0.122282
v 0.044003 0.370646 0.136082
v 0.055603 0.342946 0.122282
v 0.068003 0.348246 0.127382
v 0.044003 0.370646 0.136082
v 0.056103 0.374046 0.138282
v 0.068003 0.348246 0.127382
v 0.068303 0.349546 0.125982
v 0.056103 0.374046 0.138282
v 0.056303 0.344646 0.120882
v 0.044003 0.370646 0.136082
v 0.068303 0.349546 0.125982
v 0.056103 0.374046 0.138282
v 0.162503 0.343346 0.122682
vt 0.407600 1.602700
vt 0.407700 1.601600
vt 0.386200 1.600300
vt 0.386400 1.599100
vt 0.440500 1.600200
vt 0.440400 1.598900
vt 0.417000 1.602800
vt 0.417000 1.601400
vt 0.244800 1.824300
vt 0.255800 1.824300
vt 0.244800 1.804300
vt 0.255800 1.804200
vt 0.255800 1.824300
vt 0.255800 1.823400
vt 0.255800 1.804200
vt 0.244800 1.823600
vt 0.244800 1.804300
vt 0.255800 1.823400
vt 0.255800 1.804200
vt 0.244800 1.823600
vt 0.244800 1.824300
vt 0.244800 1.804300
vt 0.293600 1.829800
vt 0.293000 1.828500
vt 0.304200 1.810800
vt 0.304200 1.810800
vt 0.293000 1.828500
vt 0.294700 1.807700
vt 0.283700 1.825400
vt 0.283700 1.825400
vt 0.283800 1.826400
vt 0.294700 1.807700
vt 0.293600 1.829800
vt 0.304200 1.810800
vt 0.283800 1.826400
vt 0.294700 1.807700
vt 0.210100 1.828800
vt 0.209600 1.830100
vt 0.200400 1.810600
vt 0.209600 1.830100
vt 0.219300 1.826300
vt 0.200400 1.810600
vt 0.210000 1.808200
vt 0.219300 1.826300
vt 0.219500 1.825400
vt 0.210000 1.808200
vt 0.210100 1.828800
vt 0.200400 1.810600
vt 0.219500 1.825400
vt 0.210000 1.808200
vt 0.407600 1.602700
vt 0.407700 1.601600
vt 0.386200 1.600300
vt 0.386400 1.599100
vt 0.440500 1.600200
vt 0.440400 1.598900
vt 0.417000 1.602800
vt 0.417000 1.601400
vt 0.244800 1.824300
vt 0.255800 1.824300
vt 0.244800 1.804300
vt 0.255800 1.804200
vt 0.255800 1.824300
vt 0.255800 1.823400
vt 0.255800 1.804200
vt 0.244800 1.823600
vt 0.244800 1.804300
vt 0.255800 1.823400
vt 0.255800 1.804200
vt 0.244800 1.823600
vt 0.244800 1.824300
vt 0.244800 1.804300
vt 0.293600 1.829800
vt 0.293000 1.828500
vt 0.304200 1.810800
vt 0.304200 1.810800
vt 0.293000 1.828500
vt 0.294700 1.807700
vt 0.283700 1.825400
vt 0.283700 1.825400
vt 0.283800 1.826400
vt 0.294700 1.807700
vt 0.293600 1.829800
vt 0.304200 1.810800
vt 0.283800 1.826400
vt 0.294700 1.807700
vt 0.210100 1.828800
vt 0.209600 1.830100
vt 0.200400 1.810600
vt 0.209600 1.830100
vt 0.219300 1.826300
vt 0.200400 1.810600
vt 0.210000 1.808200
vt 0.219300 1.826300
vt 0.219500 1.825400
vt 0.210000 1.808200
vt 0.210100 1.828800
vt 0.200400 1.810600
vt 0.219500 1.825400
vt 0.210000 1.808200
vn -0.1216 0.7625 0.6354
vn -0.1532 0.7426 0.6519
vn -0.1207 0.7494 0.6510
vn -0.1182 0.7661 0.6317
vn 0.1164 0.7338 0.6693
vn 0.0399 0.7029 0.7101
vn 0.1156 0.7423 0.6601
vn 0.0885 0.7137 0.6949
vn -0.0065 -0.4043 0.9146
vn 0.0014 -0.4011 0.9160
vn 0.0015 -0.4011 0.9161
vn 0.0093 -0.3978 0.9174
vn 1.0000 0.0000 0.0000
vn -0.0222 0.4484 -0.8936
vn -0.0159 0.4511 -0.8924
vn -0.0158 0.4511 -0.8923
vn -0.0095 0.4537 -0.8911
vn -1.0000 0.0000 0.0000
vn 0.7943 -0.0818 -0.6020
vn 0.0036 0.5160 -0.8566
vn -0.0589 0.5183 -0.8531
vn -0.1212 0.5187 -0.8464
vn -0.8798 0.2832 0.3816
vn 0.1220 -0.5025 0.8559
vn 0.0807 -0.4653 0.8815
vn 0.0391 -0.4264 0.9037
vn -0.8422 -0.0909 -0.5315
vn -0.1445 -0.4895 0.8600
vn -0.0977 -0.4499 0.8877
vn -0.0505 -0.4084 0.9114
vn 0.8940 0.2574 0.3667
vn 0.1300 0.5459 -0.8277
vn 0.0809 0.5046 -0.8595
vn 0.0315 0.4608 -0.8869
vn -0.1215 0.7675 0.6295
vn -0.1587 0.7453 0.6476
vn -0.1207 0.7541 0.6456
vn -0.1318 0.7698 0.6245
vn 0.0895 0.7135 0.6949
vn 0.0094 -0.3978 0.9174
vn -0.0224 0.4484 -0.8936
vn -0.0160 0.4511 -0.8923
vn -0.0096 0.4537 -0.8911
vn -0.9978 0.0294 -0.0586
vn -0.0588 0.5185 -0.8531
vn -0.1210 0.5190 -0.8462
vn -0.8785 0.2851 0.3832
vn 0.0808 -0.4654 0.8814
vn 0.0809 -0.4654 0.8814
vn 0.0394 -0.4266 0.9036
vn -0.8433 -0.0892 -0.5299
vn -0.1447 -0.4891 0.8601
vn -0.0980 -0.4498 0.8877
vn -0.0509 -0.4085 0.9113
vn 0.8825 0.2350 0.4073
vn 0.1293 0.5453 -0.8282
vn 0.0807 0.5045 -0.8597
vn 0.0807 0.5044 -0.8597
vn 0.0317 0.4610 -0.8868
s 1
f 126/111/94 124/112/95 127/113/96
f 128/114/97 127/113/96 124/112/95
f 129/115/98 123/116/99 130/117/100
f 123/116/99 125/118/101 130/117/100
f 131/119/102 132/120/103 133/121/104
f 132/120/103 134/122/105 133/121/104
f 135/123/106 136/124/106 137/125/106
f 138/126/107 139/127/108 140/128/109
f 140/128/109 139/127/108 141/129/110
f 142/130/111 143/131/111 144/132/111
f 145/133/112 146/134/112 147/135/112
f 148/136/113 149/137/114 150/138/114
f 149/137/114 151/139/115 150/138/114
f 152/140/116 153/141/116 154/142/116
f 155/143/117 156/144/118 157/145/118
f 157/145/118 156/144/118 158/146/119
f 159/147/120 160/148/120 161/149/120
f 162/150/121 163/151/122 164/152/122
f 163/151/122 165/153/123 164/152/122
f 166/154/124 167/155/124 168/156/124
f 169/157/125 170/158/126 171/159/126
f 171/159/126 170/158/126 172/160/127
f 180/161/128 178/162/129 181/163/130
f 182/164/131 181/163/130 178/162/129
f 183/165/98 177/166/99 184/167/100
f 177/166/99 179/168/132 184/167/100
f 185/169/102 186/170/104 187/171/103
f 186/170/104 188/172/133 187/171/103
f 189/173/106 190/174/106 191/175/106
f 192/176/134 193/177/135 194/178/135
f 194/178/135 193/177/135 195/179/136
f 196/180/137 197/181/137 198/182/137
f 199/183/112 200/184/112 201/185/112
f 202/186/113 203/187/138 204/188/138
f 203/187/138 205/189/139 204/188/138
f 206/190/140 207/191/140 208/192/140
f 209/193/117 210/194/141 211/195/142
f 211/195/142 210/194/141 212/196/143
f 213/197/144 214/198/144 215/199/144
f 216/200/145 217/201/146 218/202/146
f 217/201/146 219/203/147 218/202/146
f 220/204/148 221/205/148 222/206/148
f 223/207/149 224/208/150 225/209/151
f 225/209/151 224/208/150 226/210/152
l 121 128
l 124 125
l 122 173
l 178 179
l 174 182
l 174 175
l 122 123
l 176 227
l 176 177
o pupil_hitam_3D_Object_52.010
v -0.070597 0.298746 0.156982
v -0.068997 0.253046 0.165882
v -0.027797 0.267146 0.149382
v -0.113297 0.267146 0.164482
v -0.108797 0.224846 0.163682
v -0.070597 0.207346 0.156982
v -0.032297 0.224846 0.150182
v 0.086003 0.298746 0.157182
v 0.084403 0.253046 0.166182
v 0.128803 0.267146 0.164782
v 0.043203 0.267146 0.149682
v 0.047803 0.224846 0.150482
v 0.086003 0.207346 0.157182
v 0.124303 0.224846 0.163982
vt 0.906900 1.626200
vt 0.906900 1.688200
vt 0.966500 1.669000
vt 0.847200 1.669000
vt 0.853500 1.726500
vt 0.906900 1.748800
vt 0.960200 1.726500
vt 0.906900 1.626200
vt 0.906900 1.688200
vt 0.966500 1.669000
vt 0.847200 1.669000
vt 0.853500 1.726500
vt 0.906900 1.748800
vt 0.960200 1.726500
vn 0.1705 0.1941 0.9661
vn 0.1737 -0.0082 0.9848
vn 0.3451 0.0853 0.9347
vn -0.0044 0.0851 0.9964
vn 0.0222 -0.1088 0.9938
vn 0.1704 -0.1941 0.9661
vn 0.3192 -0.1087 0.9414
vn -0.1703 0.1961 0.9657
vn -0.1739 -0.0084 0.9847
vn 0.0041 0.0861 0.9963
vn -0.3449 0.0859 0.9347
vn -0.3189 -0.1102 0.9414
vn -0.1705 -0.1961 0.9656
vn -0.0228 -0.1098 0.9937
s 1
f 228/211/153 229/212/154 230/213/155
f 231/214/156 229/212/154 228/211/153
f 232/215/157 229/212/154 231/214/156
f 233/216/158 229/212/154 232/215/157
f 234/217/159 229/212/154 233/216/158
f 230/213/155 229/212/154 234/217/159
f 235/218/160 236/219/161 237/220/162
f 238/221/163 236/219/161 235/218/160
f 239/222/164 236/219/161 238/221/163
f 240/223/165 236/219/161 239/222/164
f 241/224/166 236/219/161 240/223/165
f 237/220/162 236/219/161 241/224/166
o mulut_3D_Object_52.014
v 0.061803 -0.021554 0.135182
v 0.115603 0.004746 0.131382
v 0.059803 -0.013854 0.134982
v 0.007003 -0.015754 0.133982
v 0.007003 -0.007054 0.133582
v -0.047797 -0.021554 0.135182
v -0.045797 -0.013854 0.134982
v -0.101597 0.002246 0.131382
vt -1.594100 1.724600
vt -1.574200 1.657900
vt -1.594200 1.715600
vt -1.613100 1.699600
vt -1.613100 1.691200
vt -1.594100 1.724600
vt -1.594200 1.715600
vt -1.574200 1.657900
vn 0.0158 0.0301 0.9994
vn 0.0513 0.0392 0.9979
vn 0.0037 0.0353 0.9994
vn -0.0000 0.0334 0.9994
vn 0.0000 0.0459 0.9989
vn -0.0167 0.0303 0.9994
vn -0.0042 0.0355 0.9994
vn -0.0529 0.0397 0.9978
s 1
f 242/225/167 243/226/168 244/227/169
f 242/225/167 244/227/169 245/228/170
f 244/227/169 246/229/171 245/228/170
f 247/230/172 248/231/173 249/232/174
f 247/230/172 245/228/170 248/231/173
f 248/231/173 245/228/170 246/229/171
