# Blender v2.92.0 OBJ File: 'spongebob.blend'
# www.blender.org
o dasi_3D_Object_52.011
v 0.007003 -0.103354 0.132182
v 0.007003 -0.120154 0.131482
v 0.031903 -0.099454 0.126082
v 0.017903 -0.118454 0.129382
v 0.021203 -0.118854 0.126082
v 0.031903 -0.099454 0.126082
v 0.031903 -0.099454 0.126082
v 0.031903 -0.099454 0.126082
v 0.031903 -0.099454 0.126082
v 0.007003 -0.095854 0.127382
v 0.021203 -0.118854 0.126082
v 0.031903 -0.099454 0.126082
v 0.017903 -0.118454 0.129382
v 0.028803 -0.142854 0.128282
v 0.025703 -0.142854 0.131782
v 0.018403 -0.119954 0.129582
v 0.025703 -0.142854 0.131782
v 0.018403 -0.119954 0.129582
v 0.007003 -0.122054 0.131482
v 0.043503 -0.194354 0.131182
v 0.039403 -0.194354 0.134282
v 0.007003 -0.225054 0.133582
v 0.007003 -0.221754 0.135982
v 0.007003 -0.142354 0.126082
v 0.007003 -0.123354 0.126082
v 0.007003 -0.123354 0.126082
v -0.014797 -0.142854 0.128282
v -0.007197 -0.118854 0.126082
v 0.043503 -0.194354 0.131182
v 0.007003 -0.225054 0.133582
v -0.029497 -0.194354 0.131182
v 0.039403 -0.194354 0.134282
v -0.025397 -0.194354 0.134282
v -0.011697 -0.142854 0.131782
v 0.028803 -0.142854 0.128282
v 0.007003 -0.142354 0.126082
v 0.007003 -0.221754 0.135982
v 0.007003 -0.122054 0.131482
v 0.007003 -0.120154 0.131482
v -0.007197 -0.118854 0.126082
v -0.017897 -0.099454 0.126082
v -0.017897 -0.099454 0.126082
v -0.017897 -0.099454 0.126082
v -0.017897 -0.099454 0.126082
v -0.017897 -0.099454 0.126082
v -0.007197 -0.118854 0.126082
v -0.003897 -0.118454 0.129382
v -0.017897 -0.099454 0.126082
v -0.003897 -0.118454 0.129382
v -0.014797 -0.142854 0.128282
v -0.011697 -0.142854 0.131782
v -0.004397 -0.119954 0.129582
v -0.029497 -0.194354 0.131182
v -0.025397 -0.194354 0.134282
v -0.004397 -0.119954 0.129582
v 0.021203 -0.118854 0.126082
vt -1.404100 1.715300
vt -1.418300 1.715300
vt -1.400800 1.727900
vt -1.417000 1.721400
vt -1.397700 1.715300
vt 1.093200 1.901200
vt 1.105000 1.880200
vt 1.089500 1.900700
vt 1.101600 1.922300
vt 1.098100 1.922300
vt 1.090000 1.902300
vt -1.434000 1.725900
vt -1.418200 1.721700
vt -1.419800 1.715800
vt 1.117900 1.960900
vt 1.113300 1.960800
vt 1.077400 1.994600
vt 1.077400 1.990400
vt -0.273000 1.748200
vt -0.303100 1.742100
vt -0.303100 1.747300
vt -1.421100 1.716100
vt -1.434000 1.725400
vt -1.421100 1.721400
vt -1.466200 1.732500
vt -1.486200 1.715300
vt -1.466200 1.732500
vt -1.466200 1.732400
vt -1.466200 1.732400
vt -1.434000 1.725900
vt -1.434000 1.725400
vt -1.483700 1.715300
vt 1.077400 1.904600
vt 1.077400 1.902500
vt -1.400800 1.727900
vt 1.093200 1.901200
vt 1.089500 1.900700
vt 1.105000 1.880200
vt -1.417000 1.721400
vt 1.101600 1.922300
vt 1.098100 1.922300
vt 1.090000 1.902300
vt 1.117900 1.960900
vt 1.113300 1.960800
vt -0.303100 1.742100
vt -1.418200 1.721700
vt -1.421100 1.721400
vn -0.0000 0.2643 0.9644
vn 0.0000 -0.0027 1.0000
vn 0.1898 0.1834 0.9645
vn 0.1838 0.0352 0.9823
vn -0.0000 0.5391 0.8423
vn 0.7167 0.1396 0.6833
vn 0.6399 -0.3529 0.6826
vn 0.4476 0.0373 0.8934
vn 0.7219 0.2645 0.6394
vn 0.6871 0.2537 0.6809
vn 0.5344 0.2727 0.8000
vn 0.0346 0.0626 0.9974
vn 0.1380 0.1382 0.9807
vn 0.0000 0.0978 0.9952
vn 0.6561 -0.0393 0.7536
vn 0.5591 -0.3096 0.7691
vn -0.0000 -0.6113 0.7914
vn 0.0000 -0.5882 0.8087
vn 0.0000 0.0000 1.0000
vn 0.0000 -0.0928 -0.9957
vn -0.0088 -0.0838 -0.9964
vn -0.0263 -0.0830 -0.9962
vn 0.0000 -0.0671 -0.9977
vn 0.0000 -0.0779 -0.9970
vn 0.0000 -0.0639 -0.9980
vn -0.0000 0.0552 0.9985
vn 0.0000 0.0528 0.9986
vn -0.0462 0.0673 0.9967
vn 0.0066 -0.0769 -0.9970
vn 0.0000 0.0619 0.9981
vn -0.0000 0.0884 0.9961
vn -0.1898 0.1834 0.9645
vn -0.7167 0.1396 0.6833
vn -0.4476 0.0373 0.8934
vn -0.6399 -0.3529 0.6827
vn -0.1838 0.0352 0.9823
vn -0.7219 0.2646 0.6394
vn -0.6871 0.2537 0.6809
vn -0.5345 0.2727 0.8000
vn -0.6562 -0.0392 0.7536
vn -0.5591 -0.3096 0.7691
vn -0.1380 0.1382 0.9807
vn 0.0263 -0.0830 -0.9962
s 1
f 1/1/1 2/2/2 3/3/3
f 2/2/2 4/4/4 3/3/3
f 3/3/3 10/5/5 1/1/1
f 11/6/6 12/7/7 13/8/8
f 14/9/9 11/6/6 15/10/10
f 11/6/6 16/11/11 15/10/10
f 17/12/12 18/13/13 19/14/14
f 20/15/15 21/16/16 22/17/17
f 22/17/17 21/16/16 23/18/18
f 24/19/19 5/20/19 25/21/19
f 26/22/20 27/23/21 28/24/22
f 29/25/23 30/26/24 31/27/25
f 32/28/26 17/12/12 33/29/27
f 17/12/12 34/30/28 33/29/27
f 14/9/9 15/10/10 20/15/15
f 15/10/10 21/16/16 20/15/15
f 29/25/23 31/27/25 35/31/29
f 35/31/29 31/27/25 27/23/21
f 37/32/30 32/28/26 33/29/27
f 11/6/6 13/8/8 16/11/11
f 16/11/11 13/8/8 38/33/31
f 38/33/31 13/8/8 39/34/19
f 45/35/32 1/1/1 10/5/5
f 46/36/33 47/37/34 48/38/35
f 1/1/1 45/35/32 2/2/2
f 45/35/32 49/39/36 2/2/2
f 50/40/37 51/41/38 46/36/33
f 46/36/33 51/41/38 52/42/39
f 53/43/40 22/17/17 54/44/41
f 22/17/17 23/18/18 54/44/41
f 24/19/19 25/21/19 40/45/19
f 50/40/37 53/43/40 51/41/38
f 53/43/40 54/44/41 51/41/38
f 46/36/33 52/42/39 47/37/34
f 52/42/39 38/33/31 47/37/34
f 38/33/31 39/34/19 47/37/34
f 17/12/12 19/14/14 34/30/28
f 34/30/28 19/14/14 55/46/42
f 26/22/20 35/31/29 27/23/21
f 26/22/20 56/47/43 35/31/29
l 5 6
l 40 41
