# Blender v2.93.0 OBJ File: 'kepalasquidward.blend'
# www.blender.org
o mesh_id9
v -0.015040 -0.001769 0.050160
v -0.015863 -0.001067 0.050223
v -0.015863 -0.000724 0.046397
v -0.015040 -0.001426 0.046334
v -0.015040 -0.001141 0.051042
v -0.015040 -0.001769 0.050160
v -0.011199 -0.001769 0.050160
v -0.011199 -0.001141 0.051042
v -0.015863 -0.001067 0.050223
v -0.015040 -0.001141 0.051042
v -0.015040 0.014159 0.052417
v -0.015863 0.014232 0.051597
v -0.010376 -0.001067 0.050223
v -0.011199 -0.001769 0.050160
v -0.011199 -0.001426 0.046334
v -0.010376 -0.000724 0.046397
v -0.011199 -0.001141 0.051042
v -0.010376 -0.001067 0.050223
v -0.010376 0.014232 0.051597
v -0.011199 0.014159 0.052417
v -0.015863 0.014232 0.051597
v -0.015040 0.014934 0.051660
v -0.015040 0.015278 0.047835
v -0.015863 0.014576 0.047772
v -0.015040 0.014934 0.051660
v -0.015040 0.014159 0.052417
v -0.011199 0.014159 0.052417
v -0.011199 0.014934 0.051660
v -0.011199 0.014934 0.051660
v -0.010376 0.014232 0.051597
v -0.010376 0.014576 0.047772
v -0.011199 0.015278 0.047835
v -0.015863 0.014576 0.047772
v -0.015040 0.014650 0.046952
v -0.015040 -0.000650 0.045578
v -0.015863 -0.000724 0.046397
v -0.015040 0.014650 0.046952
v -0.015040 0.015278 0.047835
v -0.011199 0.015278 0.047835
v -0.011199 0.014650 0.046952
v -0.011199 0.014650 0.046952
v -0.010376 0.014576 0.047772
v -0.010376 -0.000724 0.046397
v -0.011199 -0.000650 0.045578
v -0.015040 -0.001426 0.046334
v -0.015040 -0.000650 0.045578
v -0.011199 -0.000650 0.045578
v -0.011199 -0.001426 0.046334
v -0.015040 -0.001141 0.051042
v -0.011199 -0.001141 0.051042
v -0.011199 0.014159 0.052417
v -0.015040 0.014159 0.052417
v -0.015040 0.014934 0.051660
v -0.011199 0.014934 0.051660
v -0.011199 0.015278 0.047835
v -0.015040 0.015278 0.047835
v -0.015040 0.014650 0.046952
v -0.011199 0.014650 0.046952
v -0.011199 -0.000650 0.045578
v -0.015040 -0.000650 0.045578
v -0.015040 -0.001426 0.046334
v -0.011199 -0.001426 0.046334
v -0.011199 -0.001769 0.050160
v -0.015040 -0.001769 0.050160
v -0.010376 -0.001067 0.050223
v -0.010376 -0.000724 0.046397
v -0.010376 0.014576 0.047772
v -0.010376 0.014232 0.051597
v -0.015863 -0.000724 0.046397
v -0.015863 -0.001067 0.050223
v -0.015863 0.014232 0.051597
v -0.015863 0.014576 0.047772
v -0.015040 -0.001769 0.050160
v -0.015040 -0.001141 0.051042
v -0.015863 -0.001067 0.050223
v -0.010376 -0.001067 0.050223
v -0.011199 -0.001141 0.051042
v -0.011199 -0.001769 0.050160
v -0.015863 0.014232 0.051597
v -0.015040 0.014159 0.052417
v -0.015040 0.014934 0.051660
v -0.011199 0.014934 0.051660
v -0.011199 0.014159 0.052417
v -0.010376 0.014232 0.051597
v -0.015863 0.014576 0.047772
v -0.015040 0.015278 0.047835
v -0.015040 0.014650 0.046952
v -0.011199 0.014650 0.046952
v -0.011199 0.015278 0.047835
v -0.010376 0.014576 0.047772
v -0.015863 -0.000724 0.046397
v -0.015040 -0.000650 0.045578
v -0.015040 -0.001426 0.046334
v -0.011199 -0.001426 0.046334
v -0.011199 -0.000650 0.045578
v -0.010376 -0.000724 0.046397
vt 0.412496 0.962504
vt 0.375000 0.787496
vt 0.412496 0.787496
vt 0.412496 0.010506
vt 0.412496 0.000000
vt 0.587504 0.000000
vt 0.587504 0.010506
vt 0.337504 0.010506
vt 0.412496 0.010506
vt 0.412496 0.239494
vt 0.337503 0.239494
vt 0.625000 0.962504
vt 0.587504 0.962504
vt 0.587504 0.787496
vt 0.625000 0.787496
vt 0.587504 0.010506
vt 0.662496 0.010506
vt 0.662497 0.239494
vt 0.587504 0.239494
vt 0.375000 0.287497
vt 0.412496 0.287496
vt 0.412496 0.462504
vt 0.375000 0.462504
vt 0.412496 0.287496
vt 0.412496 0.239494
vt 0.587504 0.239494
vt 0.587504 0.287496
vt 0.587504 0.287496
vt 0.625000 0.287497
vt 0.625000 0.462504
vt 0.587504 0.462504
vt 0.375000 0.510506
vt 0.412496 0.510506
vt 0.412496 0.739494
vt 0.375000 0.739494
vt 0.412496 0.510506
vt 0.412496 0.462504
vt 0.587504 0.462504
vt 0.587504 0.510506
vt 0.587504 0.510506
vt 0.625000 0.510506
vt 0.625000 0.739494
vt 0.587504 0.739494
vt 0.412496 0.787496
vt 0.412496 0.739494
vt 0.587504 0.739494
vt 0.587504 0.787496
vt 0.412496 0.010506
vt 0.587504 0.010506
vt 0.587504 0.239494
vt 0.412496 0.239494
vt 0.412496 0.287496
vt 0.587504 0.287496
vt 0.587504 0.462504
vt 0.412496 0.462504
vt 0.412496 0.510506
vt 0.587504 0.510506
vt 0.587504 0.739494
vt 0.412496 0.739494
vt 0.412496 0.787496
vt 0.587504 0.787496
vt 0.587504 0.962504
vt 0.412496 0.962504
vt 0.662496 0.010506
vt 0.837504 0.010506
vt 0.837504 0.239494
vt 0.662497 0.239494
vt 0.162496 0.010506
vt 0.337504 0.010506
vt 0.337503 0.239494
vt 0.162496 0.239494
vt 0.412496 0.000000
vt 0.412496 0.010506
vt 0.337504 0.010506
vt 0.662496 0.010506
vt 0.587504 0.010506
vt 0.587504 0.000000
vt 0.337503 0.239494
vt 0.412496 0.239494
vt 0.412496 0.287496
vt 0.587504 0.287496
vt 0.587504 0.239494
vt 0.662497 0.239494
vt 0.375000 0.462504
vt 0.412496 0.462504
vt 0.412496 0.510506
vt 0.587504 0.510506
vt 0.587504 0.462504
vt 0.625000 0.462504
vt 0.375000 0.739494
vt 0.412496 0.739494
vt 0.412496 0.787496
vt 0.587504 0.787496
vt 0.587504 0.739494
vt 0.625000 0.739494
vt 0.375000 0.962504
vn -0.6505 -0.7565 -0.0680
vn 0.0000 -0.8147 0.5799
vn -0.7071 -0.0633 0.7043
vn 0.6505 -0.7565 -0.0679
vn 0.7071 -0.0633 0.7043
vn -0.6505 0.7565 0.0680
vn -0.6505 0.7565 0.0679
vn 0.0000 0.6983 0.7158
vn 0.6505 0.7565 0.0679
vn 0.6505 0.7565 0.0680
vn -0.7071 0.0633 -0.7043
vn 0.0000 0.8147 -0.5799
vn 0.7071 0.0633 -0.7043
vn 0.0000 -0.6983 -0.7158
vn 0.0000 -0.0895 0.9960
vn 0.0000 0.9960 0.0895
vn 0.0000 0.0895 -0.9960
vn 0.0000 -0.9960 -0.0895
vn 1.0000 -0.0000 0.0000
vn -1.0000 -0.0000 0.0000
vn -0.5453 -0.6829 0.4861
vn 0.5453 -0.6829 0.4861
vn -0.5452 0.5853 0.6001
vn 0.5452 0.5853 0.6001
vn -0.5453 0.6829 -0.4861
vn 0.5453 0.6829 -0.4861
vn -0.5453 -0.5854 -0.6000
vn 0.5453 -0.5854 -0.6000
vn -0.6505 -0.7565 -0.0679
s off
f 1/1/1 3/2/1 4/3/1
f 5/4/2 6/5/2 7/6/2
f 5/4/2 7/6/2 8/7/2
f 9/8/3 10/9/3 11/10/3
f 9/8/3 11/10/3 12/11/3
f 13/12/4 14/13/4 15/14/4
f 13/12/4 15/14/4 16/15/4
f 17/16/5 18/17/5 19/18/5
f 17/16/5 19/18/5 20/19/5
f 21/20/6 22/21/6 23/22/6
f 21/20/7 23/22/7 24/23/7
f 25/24/8 26/25/8 27/26/8
f 25/24/8 27/26/8 28/27/8
f 29/28/9 30/29/9 31/30/9
f 29/28/10 31/30/10 32/31/10
f 33/32/11 34/33/11 35/34/11
f 33/32/11 35/34/11 36/35/11
f 37/36/12 38/37/12 39/38/12
f 37/36/12 39/38/12 40/39/12
f 41/40/13 42/41/13 43/42/13
f 41/40/13 43/42/13 44/43/13
f 45/44/14 46/45/14 47/46/14
f 45/44/14 47/46/14 48/47/14
f 49/48/15 50/49/15 51/50/15
f 49/48/15 51/50/15 52/51/15
f 53/52/16 54/53/16 55/54/16
f 53/52/16 55/54/16 56/55/16
f 57/56/17 58/57/17 59/58/17
f 57/56/17 59/58/17 60/59/17
f 61/60/18 62/61/18 63/62/18
f 61/60/18 63/62/18 64/63/18
f 65/64/19 66/65/19 67/66/19
f 65/64/19 67/66/19 68/67/19
f 69/68/20 70/69/20 71/70/20
f 69/68/20 71/70/20 72/71/20
f 73/72/21 74/73/21 75/74/21
f 76/75/22 77/76/22 78/77/22
f 79/78/23 80/79/23 81/80/23
f 82/81/24 83/82/24 84/83/24
f 85/84/25 86/85/25 87/86/25
f 88/87/26 89/88/26 90/89/26
f 91/90/27 92/91/27 93/92/27
f 94/93/28 95/94/28 96/95/28
s 1
f 1/1/29 2/96/29 3/2/29
o mesh_id10
v 0.011182 -0.001769 0.050160
v 0.010359 -0.001067 0.050223
v 0.010359 -0.000724 0.046397
v 0.011182 -0.001426 0.046334
v 0.011182 -0.001141 0.051042
v 0.011182 -0.001769 0.050160
v 0.015023 -0.001769 0.050160
v 0.015023 -0.001141 0.051042
v 0.010359 -0.001067 0.050223
v 0.011182 -0.001141 0.051042
v 0.011182 0.014159 0.052417
v 0.010359 0.014232 0.051597
v 0.015846 -0.001067 0.050223
v 0.015023 -0.001769 0.050160
v 0.015023 -0.001426 0.046334
v 0.015846 -0.000724 0.046397
v 0.015023 -0.001141 0.051042
v 0.015846 -0.001067 0.050223
v 0.015846 0.014232 0.051597
v 0.015023 0.014159 0.052417
v 0.010359 0.014232 0.051597
v 0.011182 0.014934 0.051660
v 0.011182 0.015278 0.047835
v 0.010359 0.014576 0.047772
v 0.011182 0.014934 0.051660
v 0.011182 0.014159 0.052417
v 0.015023 0.014159 0.052417
v 0.015023 0.014934 0.051660
v 0.015023 0.014934 0.051660
v 0.015846 0.014232 0.051597
v 0.015846 0.014576 0.047772
v 0.015023 0.015278 0.047835
v 0.010359 0.014576 0.047772
v 0.011182 0.014650 0.046952
v 0.011182 -0.000650 0.045578
v 0.010359 -0.000724 0.046397
v 0.011182 0.014650 0.046952
v 0.011182 0.015278 0.047835
v 0.015023 0.015278 0.047835
v 0.015023 0.014650 0.046952
v 0.015023 0.014650 0.046952
v 0.015846 0.014576 0.047772
v 0.015846 -0.000724 0.046397
v 0.015023 -0.000650 0.045578
v 0.011182 -0.001426 0.046334
v 0.011182 -0.000650 0.045578
v 0.015023 -0.000650 0.045578
v 0.015023 -0.001426 0.046334
v 0.011182 -0.001141 0.051042
v 0.015023 -0.001141 0.051042
v 0.015023 0.014159 0.052417
v 0.011182 0.014159 0.052417
v 0.011182 0.014934 0.051660
v 0.015023 0.014934 0.051660
v 0.015023 0.015278 0.047835
v 0.011182 0.015278 0.047835
v 0.011182 0.014650 0.046952
v 0.015023 0.014650 0.046952
v 0.015023 -0.000650 0.045578
v 0.011182 -0.000650 0.045578
v 0.011182 -0.001426 0.046334
v 0.015023 -0.001426 0.046334
v 0.015023 -0.001769 0.050160
v 0.011182 -0.001769 0.050160
v 0.015846 -0.001067 0.050223
v 0.015846 -0.000724 0.046397
v 0.015846 0.014576 0.047772
v 0.015846 0.014232 0.051597
v 0.010359 -0.000724 0.046397
v 0.010359 -0.001067 0.050223
v 0.010359 0.014232 0.051597
v 0.010359 0.014576 0.047772
v 0.011182 -0.001769 0.050160
v 0.011182 -0.001141 0.051042
v 0.010359 -0.001067 0.050223
v 0.015846 -0.001067 0.050223
v 0.015023 -0.001141 0.051042
v 0.015023 -0.001769 0.050160
v 0.010359 0.014232 0.051597
v 0.011182 0.014159 0.052417
v 0.011182 0.014934 0.051660
v 0.015023 0.014934 0.051660
v 0.015023 0.014159 0.052417
v 0.015846 0.014232 0.051597
v 0.010359 0.014576 0.047772
v 0.011182 0.015278 0.047835
v 0.011182 0.014650 0.046952
v 0.015023 0.014650 0.046952
v 0.015023 0.015278 0.047835
v 0.015846 0.014576 0.047772
v 0.010359 -0.000724 0.046397
v 0.011182 -0.000650 0.045578
v 0.011182 -0.001426 0.046334
v 0.015023 -0.001426 0.046334
v 0.015023 -0.000650 0.045578
v 0.015846 -0.000724 0.046397
vt 0.412496 0.962504
vt 0.375000 0.787496
vt 0.412496 0.787496
vt 0.412496 0.010506
vt 0.412496 0.000000
vt 0.587504 0.000000
vt 0.587504 0.010506
vt 0.337504 0.010506
vt 0.412496 0.010506
vt 0.412496 0.239494
vt 0.337503 0.239494
vt 0.625000 0.962504
vt 0.587504 0.962504
vt 0.587504 0.787496
vt 0.625000 0.787496
vt 0.587504 0.010506
vt 0.662496 0.010506
vt 0.662497 0.239494
vt 0.587504 0.239494
vt 0.375000 0.287497
vt 0.412496 0.287496
vt 0.412496 0.462504
vt 0.375000 0.462504
vt 0.412496 0.287496
vt 0.412496 0.239494
vt 0.587504 0.239494
vt 0.587504 0.287496
vt 0.587504 0.287496
vt 0.625000 0.287497
vt 0.625000 0.462504
vt 0.587504 0.462504
vt 0.375000 0.510506
vt 0.412496 0.510506
vt 0.412496 0.739494
vt 0.375000 0.739494
vt 0.412496 0.510506
vt 0.412496 0.462504
vt 0.587504 0.462504
vt 0.587504 0.510506
vt 0.587504 0.510506
vt 0.625000 0.510506
vt 0.625000 0.739494
vt 0.587504 0.739494
vt 0.412496 0.787496
vt 0.412496 0.739494
vt 0.587504 0.739494
vt 0.587504 0.787496
vt 0.412496 0.010506
vt 0.587504 0.010506
vt 0.587504 0.239494
vt 0.412496 0.239494
vt 0.412496 0.287496
vt 0.587504 0.287496
vt 0.587504 0.462504
vt 0.412496 0.462504
vt 0.412496 0.510506
vt 0.587504 0.510506
vt 0.587504 0.739494
vt 0.412496 0.739494
vt 0.412496 0.787496
vt 0.587504 0.787496
vt 0.587504 0.962504
vt 0.412496 0.962504
vt 0.662496 0.010506
vt 0.837504 0.010506
vt 0.837504 0.239494
vt 0.662497 0.239494
vt 0.162496 0.010506
vt 0.337504 0.010506
vt 0.337503 0.239494
vt 0.162496 0.239494
vt 0.412496 0.000000
vt 0.412496 0.010506
vt 0.337504 0.010506
vt 0.662496 0.010506
vt 0.587504 0.010506
vt 0.587504 0.000000
vt 0.337503 0.239494
vt 0.412496 0.239494
vt 0.412496 0.287496
vt 0.587504 0.287496
vt 0.587504 0.239494
vt 0.662497 0.239494
vt 0.375000 0.462504
vt 0.412496 0.462504
vt 0.412496 0.510506
vt 0.587504 0.510506
vt 0.587504 0.462504
vt 0.625000 0.462504
vt 0.375000 0.739494
vt 0.412496 0.739494
vt 0.412496 0.787496
vt 0.587504 0.787496
vt 0.587504 0.739494
vt 0.625000 0.739494
vt 0.375000 0.962504
vn -0.6505 -0.7565 -0.0680
vn 0.0000 -0.8147 0.5799
vn -0.7071 -0.0633 0.7043
vn 0.6505 -0.7565 -0.0680
vn 0.6505 -0.7565 -0.0679
vn 0.7071 -0.0633 0.7043
vn -0.6505 0.7565 0.0680
vn -0.6505 0.7565 0.0679
vn 0.0000 0.6983 0.7158
vn 0.6504 0.7565 0.0679
vn 0.6505 0.7565 0.0680
vn -0.7071 0.0633 -0.7043
vn 0.0000 0.8147 -0.5799
vn 0.7071 0.0633 -0.7043
vn 0.0000 -0.6983 -0.7158
vn 0.0000 -0.0895 0.9960
vn 0.0000 0.9960 0.0895
vn 0.0000 0.0895 -0.9960
vn 0.0000 -0.9960 -0.0895
vn 1.0000 -0.0000 0.0000
vn -1.0000 -0.0000 0.0000
vn -0.5453 -0.6829 0.4861
vn 0.5453 -0.6829 0.4861
vn -0.5452 0.5853 0.6001
vn 0.5452 0.5854 0.6001
vn -0.5453 0.6829 -0.4861
vn 0.5453 0.6829 -0.4861
vn -0.5453 -0.5854 -0.6000
vn 0.5453 -0.5854 -0.6000
vn -0.6505 -0.7565 -0.0679
s off
f 97/97/30 99/98/30 100/99/30
f 101/100/31 102/101/31 103/102/31
f 101/100/31 103/102/31 104/103/31
f 105/104/32 106/105/32 107/106/32
f 105/104/32 107/106/32 108/107/32
f 109/108/33 110/109/33 111/110/33
f 109/108/34 111/110/34 112/111/34
f 113/112/35 114/113/35 115/114/35
f 113/112/35 115/114/35 116/115/35
f 117/116/36 118/117/36 119/118/36
f 117/116/37 119/118/37 120/119/37
f 121/120/38 122/121/38 123/122/38
f 121/120/38 123/122/38 124/123/38
f 125/124/39 126/125/39 127/126/39
f 125/124/40 127/126/40 128/127/40
f 129/128/41 130/129/41 131/130/41
f 129/128/41 131/130/41 132/131/41
f 133/132/42 134/133/42 135/134/42
f 133/132/42 135/134/42 136/135/42
f 137/136/43 138/137/43 139/138/43
f 137/136/43 139/138/43 140/139/43
f 141/140/44 142/141/44 143/142/44
f 141/140/44 143/142/44 144/143/44
f 145/144/45 146/145/45 147/146/45
f 145/144/45 147/146/45 148/147/45
f 149/148/46 150/149/46 151/150/46
f 149/148/46 151/150/46 152/151/46
f 153/152/47 154/153/47 155/154/47
f 153/152/47 155/154/47 156/155/47
f 157/156/48 158/157/48 159/158/48
f 157/156/48 159/158/48 160/159/48
f 161/160/49 162/161/49 163/162/49
f 161/160/49 163/162/49 164/163/49
f 165/164/50 166/165/50 167/166/50
f 165/164/50 167/166/50 168/167/50
f 169/168/51 170/169/51 171/170/51
f 172/171/52 173/172/52 174/173/52
f 175/174/53 176/175/53 177/176/53
f 178/177/54 179/178/54 180/179/54
f 181/180/55 182/181/55 183/182/55
f 184/183/56 185/184/56 186/185/56
f 187/186/57 188/187/57 189/188/57
f 190/189/58 191/190/58 192/191/58
s 1
f 97/97/59 98/192/59 99/98/59
o instance_9.001_ID205
v 208.808289 -7.874008 551.736511
v 176.527588 -7.874008 558.098816
v 181.815063 -7.874008 558.234131
v 181.815063 -7.874008 558.234131
v 176.527588 -7.874008 558.098816
v 208.808289 -7.874008 551.736511
v 181.815063 -7.874008 558.234131
v 176.527588 -7.874008 558.098816
v 208.808289 -7.874008 551.736511
vn 0.0000 -1.0000 0.0000
vn 0.0000 1.0000 0.0000
s off
f 196//60 197//60 198//60
f 193//61 194//61 195//61
l 199 200
l 201 199
l 200 201
o instance_9.002_ID213
v 48.009766 -7.874008 554.810547
v 37.025452 -7.874008 554.071289
v 38.722656 -7.874008 554.572876
v 38.722656 -7.874008 554.572876
v 37.025452 -7.874008 554.071289
v 48.009766 -7.874008 554.810547
v 38.722656 -7.874008 554.572876
v 37.025452 -7.874008 554.071289
v 48.009766 -7.874008 554.810547
vn 0.0000 -1.0000 0.0000
vn 0.0000 1.0000 0.0000
s off
f 205//62 206//62 207//62
f 202//63 203//63 204//63
l 208 209
l 210 208
l 209 210
o instance_6.001_ID141
v 0.289010 -0.301232 0.680348
v 0.301881 -0.301232 0.675949
l 211 212
o instance_6.002_ID145.001
v -0.887121 1.035881 -0.276253
v -0.874317 1.035881 -0.301816
l 213 214
o instance_9.001_ID205.001
v 181.815063 -7.874099 558.234131
v 176.527588 -7.874099 558.098816
v 208.808289 -7.874098 551.736511
v 208.808289 -7.874098 551.736511
v 176.527588 -7.874099 558.098816
v 181.815063 -7.874099 558.234131
v 181.815063 -7.874099 558.234131
v 176.527588 -7.874099 558.098816
v 208.808289 -7.874098 551.736511
vt 0.386177 0.603384
vt 0.386177 0.603384
vt 0.386177 0.603384
vt 0.386177 0.603384
vt 0.386177 0.603384
vt 0.386177 0.603384
vn 0.0000 -1.0000 0.0000
vn -0.0000 1.0000 -0.0000
s off
f 215/193/64 216/194/64 217/195/64
f 218/196/65 219/197/65 220/198/65
l 221 222
l 222 223
l 223 221
o instance_9.002_ID213.001
v 38.722656 -7.874098 554.572876
v 37.025452 -7.874098 554.071289
v 48.009766 -7.874099 554.810547
v 48.009766 -7.874099 554.810547
v 37.025452 -7.874098 554.071289
v 38.722656 -7.874098 554.572876
v 38.722656 -7.874098 554.572876
v 37.025452 -7.874098 554.071289
v 48.009766 -7.874099 554.810547
vt 0.386177 0.603384
vt 0.386177 0.603384
vt 0.386177 0.603384
vt 0.386177 0.603384
vt 0.386177 0.603384
vt 0.386177 0.603384
vn -0.0000 -1.0000 0.0000
vn 0.0000 1.0000 0.0000
s off
f 224/199/66 225/200/66 226/201/66
f 227/202/67 228/203/67 229/204/67
l 230 231
l 231 232
l 232 230
