# Blender v2.93.0 OBJ File: 'tampoline.blend'
# www.blender.org
o Circle.001
v 0.289255 0.182387 -0.135874
v 0.277985 0.182387 -0.212786
v 0.257353 0.182387 -0.282204
v 0.164193 0.182387 -0.276460
v 0.098276 0.182387 -0.269412
v 0.024259 0.182387 -0.327772
v -0.017138 0.182387 -0.382857
v -0.069371 0.182387 -0.325140
v -0.121242 0.171357 -0.259830
v -0.204603 0.182387 -0.262475
v -0.282404 0.182387 -0.259934
v -0.269253 0.182387 -0.176046
v -0.269788 0.182387 -0.096243
v -0.320565 0.182387 -0.036112
v -0.383057 0.182387 0.014556
v -0.318884 0.182387 0.063798
v -0.266957 0.182387 0.121870
v -0.256219 0.182387 0.199030
v -0.260134 0.182387 0.279823
v -0.181666 0.182387 0.262722
v -0.101484 0.182387 0.256669
v -0.041732 0.182387 0.314034
v 0.014357 0.182387 0.380475
v 0.061440 0.182387 0.311645
v 0.120346 0.182387 0.261516
v 0.196671 0.182387 0.248979
v 0.279623 0.182387 0.257553
v 0.260088 0.182387 0.187938
v 0.255564 0.182387 0.106729
v 0.311401 0.182387 0.048004
v 0.380275 0.182387 -0.016938
v 0.340650 0.182387 -0.077555
vt 0.000000 0.000000
vt 0.000000 0.000000
vt 0.000000 0.000000
vt 0.000000 0.000000
vt 0.000000 0.000000
vt 0.000000 0.000000
vt 0.000000 0.000000
vt 0.000000 0.000000
vt 0.000000 0.000000
vt 0.000000 0.000000
vt 0.000000 0.000000
vt 0.000000 0.000000
vt 0.000000 0.000000
vt 0.000000 0.000000
vt 0.000000 0.000000
vt 0.000000 0.000000
vt 0.000000 0.000000
vt 0.000000 0.000000
vt 0.000000 0.000000
vt 0.000000 0.000000
vt 0.000000 0.000000
vt 0.000000 0.000000
vt 0.000000 0.000000
vt 0.000000 0.000000
vt 0.000000 0.000000
vt 0.000000 0.000000
vt 0.000000 0.000000
vt 0.000000 0.000000
vt 0.000000 0.000000
vt 0.000000 0.000000
vt 0.000000 0.000000
vt 0.000000 0.000000
vn 0.0000 1.0000 0.0000
vn -0.0475 0.9971 0.0602
vn 0.0048 0.9854 0.1702
vn 0.1276 0.9872 0.0954
vn -0.0493 0.9986 0.0206
vn 0.0746 0.9972 0.0005
vn -0.0088 0.9997 -0.0210
vn 0.0486 0.9985 -0.0232
s off
f 18/1/1 20/2/1 21/3/1
f 1/4/1 2/5/1 4/6/1
f 2/5/1 3/7/1 4/6/1
f 4/6/1 5/8/1 1/4/1
f 6/9/1 7/10/1 8/11/1
f 5/8/2 6/9/2 9/12/2
f 6/9/3 8/11/3 9/12/3
f 9/12/4 10/13/4 12/14/4
f 10/13/1 11/15/1 12/14/1
f 32/16/1 1/4/1 30/17/1
f 1/4/1 5/8/1 29/18/1
f 30/17/1 31/19/1 32/16/1
f 29/18/1 30/17/1 1/4/1
f 5/8/5 9/12/5 29/18/5
f 9/12/6 12/14/6 13/20/6
f 26/21/1 27/22/1 28/23/1
f 28/23/1 29/18/1 26/21/1
f 29/18/7 9/12/7 21/3/7
f 21/3/8 9/12/8 13/20/8
f 13/20/1 14/24/1 16/25/1
f 29/18/1 25/26/1 26/21/1
f 14/24/1 15/27/1 16/25/1
f 16/25/1 17/28/1 13/20/1
f 25/26/1 29/18/1 21/3/1
f 22/29/1 23/30/1 24/31/1
f 22/29/1 24/31/1 21/3/1
f 24/31/1 25/26/1 21/3/1
f 13/20/1 17/28/1 21/3/1
f 18/1/1 19/32/1 20/2/1
f 17/28/1 18/1/1 21/3/1
