# Blender v2.92.0 OBJ File: ''
# www.blender.org
mtllib tongkatnama.mtl
o SketchUp.009_ID125
v 13.176186 -3.534142 1.451644
v 11.741087 -3.534142 2.695172
v 11.741087 -3.534142 1.451644
v 13.176186 -3.534142 2.695172
v 13.176186 -3.534142 2.695172
v 13.176186 -3.534142 1.451644
v 11.741087 -3.534142 2.695172
v 11.741087 -3.534142 1.451644
v 11.741087 -3.534142 2.695172
v 11.741087 -3.534142 1.451644
v 13.176186 -3.534142 1.451644
v 13.176186 -3.534142 2.695172
vn 0.0000 -1.0000 0.0000
vn 0.0000 1.0000 0.0000
usemtl material
s off
f 1//1 2//1 3//1
f 2//1 1//1 4//1
usemtl material_0
f 5//2 6//2 7//2
f 8//2 7//2 6//2
l 9 10
l 10 11
l 12 11
l 12 9
o SketchUp.016_ID200
v 11.526398 -3.534142 -1.474681
v 11.519041 10.494883 -1.418802
v 11.519041 -3.534142 -1.418802
v 11.526398 10.494883 -1.474681
v 11.526398 10.494883 -1.474681
v 11.526398 -3.534142 -1.474681
v 11.519041 10.494883 -1.418802
v 11.519041 -3.534142 -1.418802
v 11.519041 -3.534142 -1.418802
v 11.526398 -3.534142 -1.474681
v 11.526398 10.494883 -1.474681
v 11.519041 10.494883 -1.418802
v 11.547968 -3.534142 -1.526751
v 11.547968 10.494883 -1.526751
v 11.547968 10.494883 -1.526751
v 11.547968 -3.534142 -1.526751
v 11.547968 -3.534142 -1.526751
v 11.547968 10.494883 -1.526751
v 11.526398 10.494883 -1.362922
v 11.526398 -3.534142 -1.362922
v 11.526398 10.494883 -1.362922
v 11.526398 -3.534142 -1.362922
v 11.526398 -3.534142 -1.362922
v 11.526398 10.494883 -1.362922
v 11.582277 -3.534142 -1.571465
v 11.582277 10.494883 -1.571465
v 11.582277 10.494883 -1.571465
v 11.582277 -3.534142 -1.571465
v 11.582277 -3.534142 -1.571465
v 11.582277 10.494883 -1.571465
v 11.547968 10.494883 -1.310852
v 11.547968 -3.534142 -1.310852
v 11.547968 10.494883 -1.310852
v 11.547968 -3.534142 -1.310852
v 11.547968 -3.534142 -1.310852
v 11.547968 10.494883 -1.310852
v 11.626991 10.494883 -1.605776
v 11.626991 -3.534142 -1.605776
v 11.626991 10.494883 -1.605776
v 11.626991 -3.534142 -1.605776
v 11.626991 -3.534142 -1.605776
v 11.626991 10.494883 -1.605776
v 11.582277 10.494883 -1.266137
v 11.582277 -3.534142 -1.266137
v 11.582277 10.494883 -1.266137
v 11.582277 -3.534142 -1.266137
v 11.582277 -3.534142 -1.266137
v 11.582277 10.494883 -1.266137
v 11.679062 10.494883 -1.627345
v 11.679062 -3.534142 -1.627345
v 11.679062 10.494883 -1.627345
v 11.679062 -3.534142 -1.627345
v 11.679062 -3.534142 -1.627345
v 11.679062 10.494883 -1.627345
v 11.626991 -3.534142 -1.231827
v 11.626991 10.494883 -1.231827
v 11.626991 10.494883 -1.231827
v 11.626991 -3.534142 -1.231827
v 11.626991 -3.534142 -1.231827
v 11.626991 10.494883 -1.231827
v 11.734941 10.494883 -1.634701
v 11.734941 -3.534142 -1.634701
v 11.734941 10.494883 -1.634701
v 11.734941 -3.534142 -1.634701
v 11.734941 -3.534142 -1.634701
v 11.734941 10.494883 -1.634701
v 11.679062 -3.534142 -1.210258
v 11.679062 10.494883 -1.210258
v 11.679062 10.494883 -1.210258
v 11.679062 -3.534142 -1.210258
v 11.679062 -3.534142 -1.210258
v 11.679062 10.494883 -1.210258
v 11.790821 10.494883 -1.627345
v 11.790821 -3.534142 -1.627345
v 11.790821 10.494883 -1.627345
v 11.790821 -3.534142 -1.627345
v 11.790821 -3.534142 -1.627345
v 11.790821 10.494883 -1.627345
v 11.734941 -3.534142 -1.202902
v 11.734941 10.494883 -1.202902
v 11.734941 10.494883 -1.202902
v 11.734941 -3.534142 -1.202902
v 11.734941 -3.534142 -1.202902
v 11.734941 10.494883 -1.202902
v 11.842892 10.494883 -1.605776
v 11.842892 -3.534142 -1.605776
v 11.842892 10.494883 -1.605776
v 11.842892 -3.534142 -1.605776
v 11.842892 -3.534142 -1.605776
v 11.842892 10.494883 -1.605776
v 11.790821 -3.534142 -1.210258
v 11.790821 10.494883 -1.210258
v 11.790821 10.494883 -1.210258
v 11.790821 -3.534142 -1.210258
v 11.790821 -3.534142 -1.210258
v 11.790821 10.494883 -1.210258
v 11.887606 10.494883 -1.571465
v 11.887606 -3.534142 -1.571465
v 11.887606 10.494883 -1.571465
v 11.887606 -3.534142 -1.571465
v 11.887606 -3.534142 -1.571465
v 11.887606 10.494883 -1.571465
v 11.842892 -3.534142 -1.231827
v 11.842892 10.494883 -1.231827
v 11.842892 10.494883 -1.231827
v 11.842892 -3.534142 -1.231827
v 11.842892 -3.534142 -1.231827
v 11.842892 10.494883 -1.231827
v 11.921917 -3.534142 -1.526751
v 11.921917 10.494883 -1.526751
v 11.921917 -3.534142 -1.526751
v 11.921917 10.494883 -1.526751
v 11.921917 -3.534142 -1.526751
v 11.921917 10.494883 -1.526751
v 11.887606 -3.534142 -1.266137
v 11.887606 10.494883 -1.266137
v 11.887606 10.494883 -1.266137
v 11.887606 -3.534142 -1.266137
v 11.887606 -3.534142 -1.266137
v 11.887606 10.494883 -1.266137
v 11.943487 -3.534142 -1.474681
v 11.943487 10.494883 -1.474681
v 11.943487 -3.534142 -1.474681
v 11.943487 10.494883 -1.474681
v 11.943487 -3.534142 -1.474681
v 11.943487 10.494883 -1.474681
v 11.921917 10.494883 -1.310852
v 11.921917 -3.534142 -1.310852
v 11.921917 -3.534142 -1.310852
v 11.921917 10.494883 -1.310852
v 11.921917 -3.534142 -1.310852
v 11.921917 10.494883 -1.310852
v 11.950840 -3.534142 -1.418802
v 11.950840 10.494883 -1.418802
v 11.950840 -3.534142 -1.418802
v 11.950840 10.494883 -1.418802
v 11.950840 -3.534142 -1.418802
v 11.950840 10.494883 -1.418802
v 11.943487 10.494883 -1.362922
v 11.943487 -3.534142 -1.362922
v 11.943487 -3.534142 -1.362922
v 11.943487 10.494883 -1.362922
v 11.943487 -3.534142 -1.362922
v 11.943487 10.494883 -1.362922
vn 0.9659 0.0000 0.2588
vn 1.0000 0.0000 0.0000
vn 0.8660 0.0000 0.5000
vn 0.9659 0.0000 -0.2588
vn 0.7071 0.0000 0.7071
vn 0.8660 0.0000 -0.5000
vn 0.5000 0.0000 0.8660
vn 0.7071 0.0000 -0.7071
vn 0.2588 0.0000 0.9659
vn 0.5000 0.0000 -0.8660
vn 0.0000 0.0000 1.0000
vn 0.2588 0.0000 -0.9659
vn -0.2588 0.0000 0.9659
vn 0.0000 0.0000 -1.0000
vn -0.5000 0.0000 0.8660
vn -0.2588 0.0000 -0.9659
vn -0.7071 0.0000 0.7071
vn -0.5000 0.0000 -0.8660
vn -0.8660 0.0000 0.5000
vn -0.7071 0.0000 -0.7071
vn -0.9659 0.0000 0.2588
vn -0.8660 0.0000 -0.5000
vn -1.0000 0.0000 0.0000
vn -0.9659 0.0000 -0.2588
usemtl material
s 1
f 13//3 14//4 15//4
f 14//4 13//3 16//3
f 25//5 16//3 13//3
f 16//3 25//5 26//5
f 15//4 31//6 32//6
f 31//6 15//4 14//4
f 37//7 26//5 25//5
f 26//5 37//7 38//7
f 32//6 43//8 44//8
f 43//8 32//6 31//6
f 49//9 37//7 50//9
f 37//7 49//9 38//7
f 44//8 55//10 56//10
f 55//10 44//8 43//8
f 61//11 50//9 62//11
f 50//9 61//11 49//9
f 55//10 67//12 56//10
f 67//12 55//10 68//12
f 73//13 62//11 74//13
f 62//11 73//13 61//11
f 68//12 79//14 67//12
f 79//14 68//12 80//14
f 85//15 74//13 86//15
f 74//13 85//15 73//13
f 80//14 91//16 79//14
f 91//16 80//14 92//16
f 97//17 86//15 98//17
f 86//15 97//17 85//15
f 92//16 103//18 91//16
f 103//18 92//16 104//18
f 109//19 98//17 110//19
f 98//17 109//19 97//17
f 104//18 115//20 103//18
f 115//20 104//18 116//20
f 109//19 121//21 122//21
f 121//21 109//19 110//19
f 116//20 127//22 115//20
f 127//22 116//20 128//22
f 122//21 133//23 134//23
f 133//23 122//21 121//21
f 139//24 127//22 128//22
f 127//22 139//24 140//24
f 134//23 145//25 146//25
f 145//25 134//23 133//23
f 151//26 140//24 139//24
f 140//24 151//26 152//26
f 146//25 152//26 151//26
f 152//26 146//25 145//25
usemtl __LightSlateGray_
f 17//26 18//26 19//25
f 20//25 19//25 18//26
f 27//24 28//24 17//26
f 18//26 17//26 28//24
f 19//25 20//25 33//23
f 34//23 33//23 20//25
f 39//22 40//22 27//24
f 28//24 27//24 40//22
f 33//23 34//23 45//21
f 46//21 45//21 34//23
f 39//22 51//20 40//22
f 52//20 40//22 51//20
f 45//21 46//21 57//19
f 58//19 57//19 46//21
f 51//20 63//18 52//20
f 64//18 52//20 63//18
f 69//17 57//19 70//17
f 58//19 70//17 57//19
f 63//18 75//16 64//18
f 76//16 64//18 75//16
f 81//15 69//17 82//15
f 70//17 82//15 69//17
f 75//16 87//14 76//16
f 88//14 76//16 87//14
f 93//13 81//15 94//13
f 82//15 94//13 81//15
f 87//14 99//12 88//14
f 100//12 88//14 99//12
f 105//11 93//13 106//11
f 94//13 106//11 93//13
f 99//12 111//10 100//12
f 112//10 100//12 111//10
f 117//9 105//11 118//9
f 106//11 118//9 105//11
f 112//10 111//10 123//8
f 124//8 123//8 111//10
f 129//7 117//9 130//7
f 118//9 130//7 117//9
f 123//8 124//8 135//6
f 136//6 135//6 124//8
f 141//5 142//5 130//7
f 129//7 130//7 142//5
f 135//6 136//6 147//4
f 148//4 147//4 136//6
f 153//3 154//3 141//5
f 142//5 141//5 154//3
f 147//4 148//4 153//3
f 154//3 153//3 148//4
l 21 22
l 22 23
l 24 23
l 21 24
l 22 29
l 29 30
l 23 30
l 35 21
l 36 24
l 35 36
l 29 41
l 41 42
l 30 42
l 47 35
l 48 36
l 47 48
l 41 53
l 53 54
l 42 54
l 59 47
l 60 48
l 59 60
l 53 65
l 65 66
l 54 66
l 71 59
l 72 60
l 71 72
l 65 77
l 77 78
l 66 78
l 83 71
l 84 72
l 83 84
l 77 89
l 89 90
l 78 90
l 95 83
l 96 84
l 95 96
l 89 101
l 101 102
l 90 102
l 107 95
l 108 96
l 107 108
l 101 113
l 113 114
l 102 114
l 119 107
l 120 108
l 119 120
l 113 125
l 125 126
l 114 126
l 131 119
l 132 120
l 131 132
l 125 137
l 137 138
l 126 138
l 143 131
l 144 132
l 143 144
l 137 149
l 149 150
l 138 150
l 155 143
l 156 144
l 155 156
l 149 155
l 150 156
